<svg preserveAspectRatio="none" width="100%" height="100%" overflow="visible" style="display: block;" viewBox="0 0 18.75 14.4844" fill="none" xmlns="http://www.w3.org/2000/svg">
<g id="Vector">
<path fill-rule="evenodd" clip-rule="evenodd" d="M18.5351 5.99009C18.8253 6.28561 18.8211 6.76047 18.5255 7.05071L11.1755 14.2695C10.8838 14.556 10.4163 14.556 10.1245 14.2695L6.9745 11.1761C6.67896 10.8859 6.67466 10.411 6.96488 10.1155C7.25511 9.81994 7.72996 9.81563 8.0255 10.1059L10.65 12.6832L17.4745 5.98054C17.77 5.6903 18.2448 5.69457 18.5351 5.99009Z" fill="var(--fill-0, #8793AB)"/>
<path fill-rule="evenodd" clip-rule="evenodd" d="M0 0.75C0 0.335786 0.335786 0 0.75 0H16.5C16.9142 0 17.25 0.335786 17.25 0.75C17.25 1.16421 16.9142 1.5 16.5 1.5H0.75C0.335786 1.5 0 1.16421 0 0.75Z" fill="var(--fill-0, #8793AB)"/>
<path fill-rule="evenodd" clip-rule="evenodd" d="M0 6.75C0 6.33579 0.335786 6 0.75 6H10.5C10.9142 6 11.25 6.33579 11.25 6.75C11.25 7.16421 10.9142 7.5 10.5 7.5H0.75C0.335786 7.5 0 7.16421 0 6.75Z" fill="var(--fill-0, #8793AB)"/>
<path fill-rule="evenodd" clip-rule="evenodd" d="M0 12.75C0 12.3358 0.335786 12 0.75 12H5.25C5.66421 12 6 12.3358 6 12.75C6 13.1642 5.66421 13.5 5.25 13.5H0.75C0.335786 13.5 0 13.1642 0 12.75Z" fill="var(--fill-0, #8793AB)"/>
</g>
</svg>
