<svg preserveAspectRatio="none" width="100%" height="100%" overflow="visible" style="display: block;" viewBox="0 0 15.6212 17.4965" fill="none" xmlns="http://www.w3.org/2000/svg">
<path id="Vector" d="M15.6212 8.73792C15.6218 8.96063 15.5629 9.17945 15.4505 9.37175C15.3382 9.56404 15.1765 9.72282 14.9822 9.83167L1.86341 17.3325C1.67516 17.4392 1.46262 17.4957 1.24623 17.4965C1.04684 17.4954 0.85061 17.4467 0.673907 17.3543C0.497204 17.262 0.345159 17.1287 0.230465 16.9656C0.115771 16.8025 0.0417554 16.6143 0.0145977 16.4168C-0.0125599 16.2193 0.00792809 16.0181 0.0743514 15.8301L2.18373 9.58402C2.20434 9.52295 2.24333 9.46975 2.29536 9.43171C2.34739 9.39367 2.40991 9.37264 2.47435 9.37152H8.12123C8.20691 9.3717 8.29171 9.35427 8.37037 9.32031C8.44903 9.28634 8.51987 9.23657 8.57848 9.17407C8.63709 9.11158 8.68223 9.0377 8.71108 8.95702C8.73994 8.87635 8.7519 8.7906 8.74623 8.70511C8.73206 8.5444 8.65769 8.39497 8.53803 8.28675C8.41837 8.17853 8.26224 8.11951 8.10091 8.12152H2.47591C2.41053 8.12152 2.3468 8.10102 2.29368 8.0629C2.24056 8.02478 2.20074 7.97096 2.17982 7.90902L0.0704452 1.6637C-0.0135124 1.42432 -0.0226497 1.16506 0.0442469 0.920366C0.111143 0.675669 0.250907 0.457117 0.444972 0.293743C0.639036 0.130369 0.878215 0.0299075 1.13073 0.00570365C1.38325 -0.0185002 1.63716 0.0346995 1.85873 0.158235L14.9837 7.64964C15.1769 7.75824 15.3378 7.91625 15.4498 8.10748C15.5618 8.29872 15.621 8.5163 15.6212 8.73792Z" fill="var(--fill-0, #A3A3A3)"/>
</svg>
