<svg preserveAspectRatio="none" width="100%" height="100%" overflow="visible" style="display: block;" viewBox="0 0 10.8749 9.74909" fill="none" xmlns="http://www.w3.org/2000/svg">
<path id="Vector" d="M9.2775 8.74717C9.31131 8.78349 9.33758 8.82617 9.35478 8.87271C9.37198 8.91926 9.37977 8.96876 9.3777 9.01834C9.37563 9.06792 9.36373 9.1166 9.34271 9.16155C9.32169 9.2065 9.29195 9.24683 9.25523 9.28021C9.21851 9.31358 9.17552 9.33933 9.12877 9.35597C9.08202 9.37262 9.03243 9.37981 8.98288 9.37715C8.93333 9.37448 8.8848 9.36201 8.8401 9.34045C8.7954 9.31889 8.75543 9.28867 8.7225 9.25155L6.75 7.0817V9.35983C6.75114 9.42698 6.73486 9.49329 6.70273 9.55227C6.67061 9.61126 6.62375 9.66091 6.56672 9.69639C6.50191 9.73494 6.42699 9.75305 6.35173 9.74837C6.27647 9.74369 6.20437 9.71642 6.14484 9.67014L3.07219 7.27952C3.04986 7.2621 3.03176 7.23985 3.01926 7.21444C3.00676 7.18903 3.00017 7.16112 3 7.1328V2.9567L1.2225 1.00155C1.18869 0.965224 1.16242 0.922553 1.14522 0.876005C1.12802 0.829457 1.12023 0.779958 1.1223 0.730377C1.12437 0.680796 1.13627 0.63212 1.15729 0.587169C1.17831 0.542217 1.20805 0.501886 1.24477 0.468511C1.28149 0.435137 1.32448 0.409383 1.37123 0.392743C1.41798 0.376103 1.46757 0.368907 1.51712 0.371573C1.56667 0.374239 1.6152 0.386713 1.6599 0.408273C1.7046 0.429833 1.74457 0.460049 1.7775 0.497171L9.2775 8.74717ZM8.00203 6.14748C8.07657 6.21329 8.17419 6.24681 8.27343 6.24065C8.37268 6.2345 8.46541 6.18919 8.53125 6.11467C8.83287 5.77226 8.99928 5.33161 8.99928 4.8753C8.99928 4.41898 8.83287 3.97833 8.53125 3.63592C8.49927 3.59712 8.45981 3.56515 8.41523 3.54191C8.37064 3.51866 8.32184 3.50462 8.27172 3.50062C8.2216 3.49662 8.17118 3.50274 8.12347 3.51861C8.07577 3.53449 8.03174 3.5598 7.99401 3.59303C7.95628 3.62626 7.92561 3.66675 7.90384 3.71207C7.88208 3.75739 7.86964 3.80663 7.86729 3.85686C7.86493 3.90708 7.8727 3.95727 7.89013 4.00443C7.90756 4.05159 7.9343 4.09477 7.96875 4.13139C8.14962 4.33681 8.2494 4.60113 8.2494 4.87483C8.2494 5.14853 8.14962 5.41284 7.96875 5.61826C7.903 5.69286 7.86956 5.79052 7.87581 5.88977C7.88205 5.98901 7.92745 6.08171 8.00203 6.14748ZM9.92016 2.37451C9.88789 2.33595 9.84819 2.30426 9.80343 2.28135C9.75867 2.25843 9.70976 2.24475 9.6596 2.24113C9.60945 2.2375 9.55908 2.24399 9.51148 2.26023C9.46389 2.27646 9.42005 2.3021 9.38256 2.33562C9.34508 2.36914 9.31472 2.40986 9.29329 2.45535C9.27187 2.50084 9.25981 2.55018 9.25783 2.60043C9.25586 2.65067 9.26401 2.70081 9.2818 2.74784C9.2996 2.79487 9.32667 2.83784 9.36141 2.8742C9.85345 3.42424 10.1255 4.13635 10.1255 4.87436C10.1255 5.61236 9.85345 6.32447 9.36141 6.87452C9.32667 6.91087 9.2996 6.95385 9.2818 7.00088C9.26401 7.04791 9.25586 7.09804 9.25783 7.14829C9.25981 7.19854 9.27187 7.24787 9.29329 7.29337C9.31472 7.33886 9.34508 7.37958 9.38256 7.4131C9.42005 7.44662 9.46389 7.47226 9.51148 7.48849C9.55908 7.50473 9.60945 7.51122 9.6596 7.50759C9.70976 7.50396 9.75867 7.49029 9.80343 7.46737C9.84819 7.44445 9.88789 7.41277 9.92016 7.3742C10.535 6.68669 10.8749 5.7967 10.8749 4.87436C10.8749 3.95202 10.535 3.06202 9.92016 2.37451ZM6.42188 4.49327C6.44721 4.522 6.48073 4.54228 6.51794 4.55139C6.55515 4.5605 6.59425 4.55799 6.62999 4.5442C6.66573 4.53042 6.69639 4.50602 6.71785 4.47428C6.7393 4.44255 6.75052 4.405 6.75 4.3667V0.386077C6.75087 0.329232 6.73923 0.272891 6.7159 0.221047C6.69257 0.169202 6.65812 0.123124 6.615 0.0860773C6.54934 0.0317537 6.46715 0.00141129 6.38194 4.80239e-05C6.29674 -0.00131525 6.21361 0.0263819 6.14625 0.0785773L4.11703 1.65545C4.09664 1.67133 4.07975 1.69125 4.06742 1.71396C4.05509 1.73667 4.04759 1.76169 4.04539 1.78744C4.04319 1.81319 4.04633 1.83912 4.05463 1.86359C4.06292 1.88807 4.07619 1.91057 4.09359 1.92967L6.42188 4.49327ZM2.0625 2.62436H0.75C0.551088 2.62436 0.360322 2.70338 0.21967 2.84403C0.0790176 2.98468 0 3.17545 0 3.37436V6.37436C0 6.57327 0.0790176 6.76404 0.21967 6.90469C0.360322 7.04534 0.551088 7.12436 0.75 7.12436H2.0625C2.11223 7.12436 2.15992 7.1046 2.19508 7.06944C2.23025 7.03428 2.25 6.98659 2.25 6.93686V2.81186C2.25 2.76213 2.23025 2.71444 2.19508 2.67928C2.15992 2.64411 2.11223 2.62436 2.0625 2.62436Z" fill="var(--fill-0, #8793AB)"/>
</svg>
