<svg preserveAspectRatio="none" width="100%" height="100%" overflow="visible" style="display: block;" viewBox="0 0 17.1789 16.8421" fill="none" xmlns="http://www.w3.org/2000/svg">
<g id="Union">
<path d="M13.8061 3.03157C13.7185 1.34255 12.3213 0 10.6105 0C9.84402 0 9.14019 0.269876 8.58944 0.718927C8.03868 0.269876 7.33486 0 6.5684 0C5.31864 0 4.23622 0.716432 3.70943 1.761C3.5933 1.98232 3.50304 2.21698 3.44109 2.45997C3.42953 2.50535 3.4245 2.55085 3.42542 2.59549C3.39823 2.73773 3.38045 2.88332 3.37276 3.03157L3.36841 3.03157C1.50809 3.03157 0 4.53965 0 6.39997C0 6.42671 0.000312325 6.45337 0.000932168 6.47996C0.0162951 7.13889 0.220976 7.75089 0.562283 8.26375C0.637882 8.37738 0.720181 8.48613 0.808608 8.58944C0.304905 9.17793 0 9.94297 0 10.7789C0 12.5478 1.36351 13.9982 3.09684 14.1365C3.22717 14.7894 3.54611 15.3741 3.99446 15.8315H3.20457C2.92552 15.8315 2.6993 16.0577 2.6993 16.3368C2.6993 16.6158 2.92552 16.842 3.20457 16.842H6.39997C6.4286 16.842 6.45667 16.8397 6.48399 16.8351C6.51144 16.8397 6.53964 16.8421 6.5684 16.8421C6.90846 16.8421 7.23814 16.794 7.55057 16.7038C7.81868 16.6264 7.9733 16.3464 7.89594 16.0783C7.81858 15.8102 7.53851 15.6555 7.2704 15.7329C7.04812 15.797 6.81272 15.8316 6.5684 15.8316C6.53978 15.8316 6.51171 15.834 6.48439 15.8385C6.45694 15.8339 6.42874 15.8315 6.39997 15.8315C5.14305 15.8315 4.11554 14.8478 4.04587 13.6085C4.03833 13.4745 3.97772 13.3489 3.87743 13.2596C3.77714 13.1703 3.64541 13.1246 3.51135 13.1325C3.46411 13.1354 3.41645 13.1368 3.36841 13.1368C2.06618 13.1368 1.01052 12.0811 1.01052 10.7789C1.01052 10.1958 1.2218 9.66232 1.57294 9.25041L1.58476 9.25783C1.82137 9.40577 2.1331 9.33389 2.28104 9.09728C2.42898 8.86068 2.35709 8.54894 2.12049 8.40101C2.02672 8.34238 1.9374 8.27739 1.85313 8.20664L1.84914 8.20324C1.68199 8.06223 1.53482 7.89863 1.41233 7.71714C1.15844 7.34087 1.01052 6.88763 1.01052 6.39997C1.01052 5.09775 2.06618 4.04209 3.36841 4.04209C3.51895 4.04209 3.66576 4.05613 3.80771 4.08285C3.96792 4.113 4.13284 4.06399 4.25059 3.95125C4.36834 3.8385 4.42445 3.67587 4.40129 3.5145C4.38658 3.41205 4.37893 3.30706 4.37893 3.19999C4.37893 2.84402 4.46388 2.5079 4.61461 2.21078C4.86836 1.73872 5.29453 1.35893 5.84146 1.17397C6.98694 0.786609 8.22956 1.40119 8.61693 2.54667C8.70632 2.81101 8.99308 2.95284 9.25742 2.86344C9.52176 2.77405 9.66359 2.48729 9.5742 2.22295C9.48651 1.96364 9.36883 1.72294 9.22633 1.50342C9.60381 1.19495 10.0854 1.01052 10.6105 1.01052C11.8197 1.01052 12.7999 1.99078 12.7999 3.19999C12.7999 3.30706 12.7923 3.41205 12.7776 3.5145C12.7544 3.67587 12.8105 3.8385 12.9283 3.95125C13.046 4.06399 13.211 4.113 13.3712 4.08285C13.5131 4.05613 13.6599 4.04209 13.8105 4.04209C15.1127 4.04209 16.1684 5.09775 16.1684 6.39997C16.1684 7.12315 15.8434 7.76993 15.3297 8.20324C15.2159 8.29924 15.1503 8.44055 15.1503 8.58944C15.1503 8.73723 15.215 8.87755 15.3272 8.97351L15.336 8.98111C15.846 9.41439 16.1683 10.0588 16.1683 10.7791L16.1683 10.786C16.1681 10.8548 16.165 10.9229 16.159 10.9902C16.0522 12.1934 15.0415 13.1368 13.8105 13.1368C13.7624 13.1368 13.7148 13.1354 13.6675 13.1325C13.6634 13.1323 13.6593 13.1321 13.6552 13.132C13.4685 13.1199 13.2883 13.0861 13.1168 13.0334C12.85 12.9515 12.5673 13.1012 12.4854 13.368C12.4034 13.6347 12.5532 13.9174 12.82 13.9994C12.8996 14.0238 12.9804 14.0454 13.0623 14.064C12.8072 15.0538 11.9251 15.792 10.8647 15.83C9.98224 15.7972 9.2322 15.2421 8.91682 14.463C8.81211 14.2043 8.51755 14.0795 8.25889 14.1842C8.00023 14.2889 7.87542 14.5835 7.98012 14.8422C8.4214 15.9323 9.44669 16.7249 10.6694 16.8301C10.7046 16.8379 10.7413 16.842 10.7789 16.842H13.9514C14.2305 16.842 14.4567 16.6158 14.4567 16.3368C14.4567 16.0577 14.2305 15.8315 13.9514 15.8315H13.281C13.7121 15.3723 14.0091 14.7858 14.1097 14.1344C15.773 13.988 17.0893 12.6326 17.1745 10.9524C17.1774 10.8949 17.1789 10.8371 17.1789 10.7789C17.1789 9.94297 16.874 9.17793 16.3703 8.58944C16.874 8.00095 17.1789 7.23591 17.1789 6.39997C17.1789 4.53965 15.6708 3.03157 13.8105 3.03157L13.8061 3.03157Z" fill="var(--fill-0, black)"/>
<path d="M11.3798 5.2145C11.2848 4.9521 10.9951 4.81635 10.7327 4.91129C10.4703 5.00624 10.3346 5.29592 10.4295 5.55832L11.4162 8.28528L10.7403 8.51775C10.4764 8.60851 10.3361 8.89599 10.4269 9.15987C10.5176 9.42375 10.8051 9.56409 11.069 9.47334L11.9067 9.18522C12.3515 9.03225 12.5847 8.54464 12.4247 8.10237L11.3798 5.2145Z" fill="var(--fill-0, black)"/>
<path d="M12.9214 5.54315C12.8773 5.26761 13.0649 5.00847 13.3405 4.96435C13.616 4.92022 13.8751 5.10782 13.9193 5.38336L14.0258 6.04856C14.0699 6.3241 13.8823 6.58324 13.6068 6.62736C13.3312 6.67149 13.0721 6.48389 13.028 6.20835L12.9214 5.54315Z" fill="var(--fill-0, black)"/>
<path d="M8.85413 6.38035C8.86467 6.49368 8.84238 6.60251 8.79509 6.6974C8.70712 6.87394 8.53258 7.0023 8.32174 7.02191C7.99759 7.05205 7.71037 6.8137 7.68023 6.48955L7.63345 5.98645C7.62279 5.87185 7.64569 5.76187 7.69408 5.66623C7.78255 5.49132 7.95626 5.36438 8.16583 5.3449C8.48998 5.31475 8.7772 5.5531 8.80734 5.87726L8.85413 6.38035Z" fill="var(--fill-0, black)"/>
</g>
</svg>
