<svg preserveAspectRatio="none" width="100%" height="100%" overflow="visible" style="display: block;" viewBox="0 0 18.8701 12.009" fill="none" xmlns="http://www.w3.org/2000/svg">
<path id="Vector" d="M8.63119 8.24583C9.43534 7.71047 10.0459 6.93054 10.3725 6.02136C10.6991 5.11219 10.7244 4.12205 10.4448 3.19735C10.1651 2.27266 9.59531 1.4625 8.81961 0.886697C8.04391 0.31089 7.1035 0 6.13744 0C5.17138 0 4.23097 0.31089 3.45527 0.886697C2.67957 1.4625 2.10976 2.27266 1.83011 3.19735C1.55046 4.12205 1.57581 5.11219 1.90241 6.02136C2.22902 6.93054 2.83954 7.71047 3.64369 8.24583C2.18906 8.78195 0.946769 9.77405 0.10219 11.0741C0.0578014 11.14 0.0269693 11.2142 0.0114855 11.2922C-0.00399831 11.3702 -0.00382495 11.4505 0.0119955 11.5284C0.0278159 11.6063 0.0589678 11.6803 0.10364 11.7461C0.148313 11.8119 0.205615 11.8681 0.272216 11.9116C0.338817 11.955 0.413389 11.9848 0.491596 11.9991C0.569803 12.0135 0.650085 12.0122 0.727777 11.9953C0.805468 11.9783 0.879019 11.9461 0.944153 11.9005C1.00929 11.8549 1.06471 11.7968 1.10719 11.7296C1.65198 10.8917 2.39746 10.2031 3.27592 9.72646C4.15438 9.2498 5.13799 9.00014 6.13744 9.00014C7.13689 9.00014 8.1205 9.2498 8.99896 9.72646C9.87742 10.2031 10.6229 10.8917 11.1677 11.7296C11.2557 11.8604 11.3916 11.9513 11.5461 11.9826C11.7006 12.014 11.8612 11.9833 11.9933 11.8972C12.1253 11.8111 12.2182 11.6764 12.2517 11.5224C12.2853 11.3684 12.2569 11.2073 12.1727 11.0741C11.3281 9.77405 10.0858 8.78195 8.63119 8.24583ZM2.83744 4.50183C2.83744 3.84915 3.03098 3.21113 3.39359 2.66844C3.7562 2.12576 4.27159 1.70279 4.87458 1.45302C5.47758 1.20325 6.1411 1.1379 6.78124 1.26523C7.42137 1.39257 8.00938 1.70686 8.47089 2.16837C8.9324 2.62989 9.2467 3.21789 9.37403 3.85803C9.50136 4.49816 9.43601 5.16168 9.18624 5.76468C8.93647 6.36768 8.5135 6.88307 7.97082 7.24567C7.42814 7.60828 6.79012 7.80183 6.13744 7.80183C5.26253 7.80083 4.42374 7.45284 3.80508 6.83418C3.18643 6.21553 2.83843 5.37674 2.83744 4.50183ZM18.5979 11.9043C18.4647 11.9912 18.3023 12.0216 18.1466 11.9889C17.9909 11.9561 17.8546 11.8628 17.7677 11.7296C17.2235 10.8912 16.4782 10.2023 15.5995 9.72586C14.7209 9.2494 13.7369 9.00049 12.7374 9.00183C12.5783 9.00183 12.4257 8.93861 12.3132 8.82609C12.2007 8.71357 12.1374 8.56096 12.1374 8.40183C12.1374 8.2427 12.2007 8.09008 12.3132 7.97756C12.4257 7.86504 12.5783 7.80183 12.7374 7.80183C13.2234 7.80137 13.7033 7.69358 14.1428 7.48616C14.5823 7.27874 14.9705 6.97682 15.2798 6.60196C15.5891 6.22709 15.8117 5.78855 15.9319 5.31766C16.052 4.84677 16.0667 4.35515 15.9748 3.87794C15.8829 3.40072 15.6868 2.94969 15.4004 2.55707C15.114 2.16445 14.7444 1.83993 14.3181 1.6067C13.8917 1.37347 13.4191 1.23728 12.934 1.20788C12.4489 1.17847 11.9633 1.25656 11.5119 1.43658C11.4383 1.46839 11.3591 1.48513 11.2789 1.48581C11.1987 1.48649 11.1192 1.47109 11.0451 1.44052C10.971 1.40995 10.9037 1.36484 10.8473 1.30784C10.7909 1.25084 10.7466 1.18312 10.7168 1.10867C10.687 1.03422 10.6724 0.954558 10.674 0.87439C10.6755 0.794221 10.6931 0.715173 10.7257 0.641915C10.7583 0.568657 10.8052 0.502675 10.8638 0.447869C10.9223 0.393063 10.9912 0.350545 11.0664 0.322826C12.0995 -0.0891859 13.2486 -0.104012 14.292 0.281206C15.3354 0.666424 16.1991 1.42439 16.7166 2.40889C17.2341 3.39338 17.3687 4.53465 17.0944 5.61251C16.8201 6.69038 16.1563 7.62847 15.2312 8.24583C16.6858 8.78195 17.9281 9.77405 18.7727 11.0741C18.8596 11.2074 18.89 11.3697 18.8572 11.5254C18.8245 11.6811 18.7312 11.8174 18.5979 11.9043Z" fill="var(--fill-0, white)"/>
</svg>
