<svg preserveAspectRatio="none" width="100%" height="100%" overflow="visible" style="display: block;" viewBox="0 0 11.4375 11.4375" fill="none" xmlns="http://www.w3.org/2000/svg">
<path id="Subtract" fill-rule="evenodd" clip-rule="evenodd" d="M9.84895 1.58854L5.71874 0L1.58854 1.58854L0 5.71874L1.58854 9.84895L5.71874 11.4375L9.84895 9.84895L11.4375 5.71874L9.84895 1.58854ZM8.12808 4.75496C8.29894 4.58411 8.29894 4.3071 8.12808 4.13624C7.95723 3.96539 7.68022 3.96539 7.50936 4.13624L4.87872 6.76688L3.92808 5.81624C3.75723 5.64539 3.48022 5.64539 3.30936 5.81624C3.13851 5.9871 3.13851 6.26411 3.30936 6.43496L4.56936 7.69496C4.74022 7.86582 5.01723 7.86582 5.18808 7.69496L8.12808 4.75496Z" fill="var(--fill-0, #25D8BE)"/>
</svg>
