<svg preserveAspectRatio="none" width="100%" height="100%" overflow="visible" style="display: block;" viewBox="0 0 18 18" fill="none" xmlns="http://www.w3.org/2000/svg">
<g id="Vector">
<path fill-rule="evenodd" clip-rule="evenodd" d="M0 17.25C0 16.8358 0.335786 16.5 0.75 16.5H17.25C17.6642 16.5 18 16.8358 18 17.25C18 17.6642 17.6642 18 17.25 18H0.75C0.335786 18 0 17.6642 0 17.25Z" fill="var(--fill-0, #8793AB)"/>
<path fill-rule="evenodd" clip-rule="evenodd" d="M2.25 3.75C2.66421 3.75 3 4.08579 3 4.5V14.25C3 14.6642 2.66421 15 2.25 15C1.83579 15 1.5 14.6642 1.5 14.25V4.5C1.5 4.08579 1.83579 3.75 2.25 3.75Z" fill="var(--fill-0, #8793AB)"/>
<path fill-rule="evenodd" clip-rule="evenodd" d="M9 0C9.41421 0 9.75 0.335786 9.75 0.75V14.25C9.75 14.6642 9.41421 15 9 15C8.58579 15 8.25 14.6642 8.25 14.25V0.75C8.25 0.335786 8.58579 0 9 0Z" fill="var(--fill-0, #8793AB)"/>
<path fill-rule="evenodd" clip-rule="evenodd" d="M15.75 8.25C16.1642 8.25 16.5 8.58579 16.5 9V14.25C16.5 14.6642 16.1642 15 15.75 15C15.3358 15 15 14.6642 15 14.25V9C15 8.58579 15.3358 8.25 15.75 8.25Z" fill="var(--fill-0, #8793AB)"/>
</g>
</svg>
