<svg preserveAspectRatio="none" width="100%" height="100%" overflow="visible" style="display: block;" viewBox="0 0 34.3578 33.6842" fill="none" xmlns="http://www.w3.org/2000/svg">
<g id="Union">
<path d="M27.6122 6.06314C27.4371 2.68511 24.6426 0 21.221 0C19.688 0 18.2804 0.539752 17.1789 1.43785C16.0774 0.539752 14.6697 0 13.1368 0C10.6373 0 8.47245 1.43286 7.41886 3.522C7.18659 3.96465 7.00607 4.43396 6.88219 4.91995C6.85906 5.01069 6.849 5.1017 6.85084 5.19098C6.79646 5.47546 6.7609 5.76663 6.74553 6.06314L6.73681 6.06313C3.01617 6.06313 0 9.07931 0 12.7999C0 12.8534 0.00062465 12.9067 0.00186434 12.9599C0.0325902 14.2778 0.441951 15.5018 1.12457 16.5275C1.27576 16.7548 1.44036 16.9723 1.61722 17.1789C0.60981 18.3559 0 19.8859 0 21.5578C0 25.0956 2.72702 27.9965 6.19367 28.273C6.45434 29.5788 7.09223 30.7483 7.98891 31.663H6.40913C5.85104 31.663 5.39861 32.1155 5.39861 32.6736C5.39861 33.2317 5.85104 33.6841 6.40913 33.6841H12.7999C12.8572 33.6841 12.9133 33.6793 12.968 33.6702C13.0229 33.6794 13.0793 33.6842 13.1368 33.6842C13.8169 33.6842 14.4763 33.5879 15.1011 33.4076C15.6374 33.2529 15.9466 32.6928 15.7919 32.1566C15.6372 31.6203 15.077 31.3111 14.5408 31.4658C14.0962 31.5941 13.6254 31.6632 13.1368 31.6632C13.0796 31.6632 13.0234 31.6679 12.9688 31.6771C12.9139 31.6678 12.8575 31.663 12.7999 31.663C10.2861 31.663 8.23108 29.6955 8.09174 27.2171C8.07666 26.9489 7.95545 26.6978 7.75486 26.5192C7.55427 26.3405 7.29082 26.2491 7.0227 26.2651C6.92823 26.2707 6.83291 26.2736 6.73681 26.2736C4.13237 26.2736 2.02104 24.1623 2.02104 21.5578C2.02104 20.3916 2.4436 19.3246 3.14587 18.5008L3.16953 18.5157C3.64274 18.8115 4.26621 18.6678 4.56208 18.1946C4.85795 17.7214 4.71419 17.0979 4.24097 16.802C4.05345 16.6848 3.87481 16.5548 3.70626 16.4133L3.69828 16.4065C3.36398 16.1245 3.06964 15.7973 2.82466 15.4343C2.31689 14.6817 2.02105 13.7753 2.02104 12.7999C2.02104 10.1955 4.13237 8.08418 6.73681 8.08418C7.0379 8.08418 7.33151 8.11227 7.61543 8.16569C7.93585 8.22599 8.26567 8.12798 8.50117 7.90249C8.73667 7.677 8.8489 7.35174 8.80257 7.02901C8.77316 6.8241 8.75786 6.61412 8.75786 6.39997C8.75786 5.68804 8.92776 5.01579 9.22922 4.42155C9.73671 3.47744 10.5891 2.71786 11.6829 2.34795C13.9739 1.57322 16.4591 2.80237 17.2339 5.09334C17.4126 5.62202 17.9862 5.90567 18.5148 5.72689C19.0435 5.54811 19.3272 4.97459 19.1484 4.4459C18.973 3.92728 18.7377 3.44588 18.4527 3.00683C19.2076 2.38989 20.1708 2.02104 21.221 2.02104C23.6394 2.02104 25.5999 3.98156 25.5999 6.39997C25.5999 6.61412 25.5846 6.8241 25.5552 7.02901C25.5089 7.35174 25.6211 7.677 25.8566 7.90249C26.0921 8.12798 26.4219 8.22599 26.7423 8.16569C27.0262 8.11227 27.3199 8.08418 27.6209 8.08418C30.2254 8.08418 32.3367 10.1955 32.3367 12.7999C32.3367 14.2463 31.6868 15.5399 30.6595 16.4065C30.4319 16.5985 30.3005 16.8811 30.3005 17.1789C30.3005 17.4745 30.4299 17.7551 30.6544 17.947L30.6719 17.9622C31.6921 18.8288 32.3367 20.1177 32.3367 21.5582L32.3367 21.5721C32.3363 21.7096 32.33 21.8458 32.318 21.9804C32.1043 24.3869 30.083 26.2736 27.6209 26.2736C27.5248 26.2736 27.4295 26.2707 27.3351 26.2651C27.3268 26.2646 27.3186 26.2642 27.3104 26.2639C26.9371 26.2397 26.5766 26.1723 26.2335 26.0668C25.7001 25.9029 25.1347 26.2025 24.9708 26.736C24.8068 27.2694 25.1064 27.8348 25.6399 27.9987C25.7991 28.0477 25.9608 28.0908 26.1247 28.128C25.6144 30.1076 23.8501 31.5841 21.7294 31.66C19.9645 31.5945 18.4644 30.4842 17.8336 28.926C17.6242 28.4087 17.0351 28.159 16.5178 28.3685C16.0005 28.5779 15.7508 29.167 15.9602 29.6843C16.8428 31.8646 18.8934 33.4499 21.3388 33.6603C21.4093 33.6759 21.4826 33.6841 21.5578 33.6841H27.9028C28.4609 33.6841 28.9133 33.2317 28.9133 32.6736C28.9133 32.1155 28.4609 31.663 27.9028 31.663H26.5621C27.4241 30.7445 28.0182 29.5715 28.2193 28.2688C31.546 27.976 34.1787 25.2652 34.349 21.9047C34.3548 21.7898 34.3578 21.6742 34.3578 21.5578C34.3578 19.8859 33.7479 18.3559 32.7405 17.1789C33.7479 16.0019 34.3578 14.4718 34.3578 12.7999C34.3578 9.07931 31.3416 6.06313 27.6209 6.06313L27.6122 6.06314Z" fill="var(--fill-0, black)"/>
<path d="M22.7595 10.429C22.5696 9.9042 21.9903 9.6327 21.4655 9.82259C20.9407 10.0125 20.6692 10.5918 20.8591 11.1166L22.8325 16.5706L21.4806 17.0355C20.9529 17.217 20.6722 17.792 20.8537 18.3197C21.0352 18.8475 21.6102 19.1282 22.1379 18.9467L23.8134 18.3704C24.7029 18.0645 25.1694 17.0893 24.8494 16.2047L22.7595 10.429Z" fill="var(--fill-0, black)"/>
<path d="M25.8429 11.0863C25.7546 10.5352 26.1298 10.0169 26.6809 9.9287C27.232 9.84045 27.7503 10.2156 27.8385 10.7667L28.0516 12.0971C28.1398 12.6482 27.7646 13.1665 27.2135 13.2547C26.6625 13.343 26.1442 12.9678 26.0559 12.4167L25.8429 11.0863Z" fill="var(--fill-0, black)"/>
<path d="M17.7083 12.7607C17.7293 12.9874 17.6848 13.205 17.5902 13.3948C17.4142 13.7479 17.0652 14.0046 16.6435 14.0438C15.9952 14.1041 15.4207 13.6274 15.3605 12.9791L15.2669 11.9729C15.2456 11.7437 15.2914 11.5237 15.3882 11.3325C15.5651 10.9826 15.9125 10.7288 16.3317 10.6898C16.98 10.6295 17.5544 11.1062 17.6147 11.7545L17.7083 12.7607Z" fill="var(--fill-0, black)"/>
</g>
</svg>
