<svg preserveAspectRatio="none" width="100%" height="100%" overflow="visible" style="display: block;" viewBox="0 0 17.9589 18.0056" fill="none" xmlns="http://www.w3.org/2000/svg">
<path id="Path (Stroke)" fill-rule="evenodd" clip-rule="evenodd" d="M1.50164 1.50001C1.66336 3.78591 2.12651 6.02848 2.85564 7.79724L6.15754 5.04566L4.48036 1.5L1.50164 1.50001ZM3.53127 9.18678L7.56401 5.82617C7.82669 5.60726 7.90806 5.2384 7.76185 4.9293L5.63325 0.429302C5.50925 0.167166 5.24525 -1.25169e-06 4.95527 0L1.48981 1.4618e-05C0.643766 1.81943e-05 -0.0573247 0.708538 0.00370614 1.58202C0.199677 4.38677 0.832255 7.22999 1.91664 9.3425C3.55177 12.5279 5.48216 14.6784 8.59495 16.4058C10.2609 17.3303 13.0576 17.8595 15.6689 17.9989C15.8116 18.0066 16.0894 18.0064 16.3474 18.0045C17.2467 17.998 17.9589 17.2637 17.9589 16.376V12.7449C17.9589 12.4098 17.7366 12.1153 17.4143 12.0236L12.1643 10.5287C11.8508 10.4394 11.5156 10.5628 11.3348 10.834L8.72568 14.7477C6.41369 13.3439 4.87127 11.6396 3.53127 9.18678ZM10.0667 15.4403C11.4977 16.0064 13.6143 16.3871 15.7489 16.5011C15.8364 16.5057 16.0634 16.5065 16.3365 16.5045C16.4 16.5041 16.4589 16.4512 16.4589 16.376V13.3111L12.2795 12.1211L10.0667 15.4403Z" fill="var(--fill-0, #8793AB)"/>
</svg>
