<svg preserveAspectRatio="none" width="100%" height="100%" overflow="visible" style="display: block;" viewBox="0 0 8.97957 9.00001" fill="none" xmlns="http://www.w3.org/2000/svg">
<g id="Vector">
<path d="M1.76569 4.59201L3.78195 2.91236C3.91334 2.80291 3.95404 2.61842 3.88089 2.46385L2.81659 0.214607C2.75459 0.0835628 2.6226 0 2.47762 0L0.744904 7.30903e-06C0.321879 9.09717e-06 -0.0286762 0.354274 0.00185486 0.791025C0.099853 2.1929 0.416144 3.61401 0.958336 4.6699C1.77592 6.26211 2.74112 7.33698 4.29751 8.20039C5.13045 8.66246 6.52881 8.92699 7.83444 8.99668C7.90579 9.00049 8.04469 9.0004 8.17367 8.99947C8.62335 8.99621 8.97943 8.62906 8.97943 8.18522V6.37042C8.97943 6.20285 8.86826 6.05562 8.70709 6.00975L6.08209 5.26255C5.9254 5.21795 5.75783 5.27962 5.66744 5.41517L4.36285 7.37139C3.20687 6.66972 2.43567 5.81793 1.76569 4.59201Z" fill="var(--fill-0, #8793AB)"/>
<path fill-rule="evenodd" clip-rule="evenodd" d="M4.47945 0.830357C4.47945 0.475317 4.76726 0.1875 5.1223 0.1875H7.07766C7.4327 0.1875 7.72052 0.475317 7.72052 0.830357V2.4375C7.72052 2.79254 7.4327 3.08036 7.07766 3.08036H5.1223C4.76726 3.08036 4.47945 2.79254 4.47945 2.4375V0.830357Z" fill="var(--fill-0, #8793AB)"/>
<path d="M8.8389 0.3803C8.81245 0.373826 8.78492 0.373028 8.75814 0.377956C8.73135 0.382885 8.70592 0.39343 8.6835 0.408896L7.89617 0.933705C7.88333 0.942274 7.8728 0.953882 7.86552 0.967499C7.85824 0.981115 7.85444 0.996319 7.85445 1.01176V2.36234C7.85444 2.37778 7.85824 2.39298 7.86552 2.4066C7.8728 2.42022 7.88333 2.43182 7.89617 2.44039L8.68795 2.96825C8.71759 2.98802 8.75224 2.99894 8.78786 2.99973C8.82348 3.00051 8.85858 2.99114 8.88906 2.9727C8.91727 2.95477 8.9404 2.92991 8.95624 2.90048C8.97208 2.87106 8.9801 2.83806 8.97954 2.80464V0.561956C8.97956 0.520368 8.96576 0.479953 8.9403 0.447069C8.91484 0.414185 8.87917 0.390697 8.8389 0.3803Z" fill="var(--fill-0, #8793AB)"/>
</g>
</svg>
