<svg preserveAspectRatio="none" width="100%" height="100%" overflow="visible" style="display: block;" viewBox="0 0 19.5 15.75" fill="none" xmlns="http://www.w3.org/2000/svg">
<path id="Vector" d="M18 2.25H10.0003L7.39969 0.3C7.13967 0.105989 6.82411 0.000804693 6.49969 0H1.5C1.10218 0 0.720644 0.158035 0.43934 0.43934C0.158035 0.720644 0 1.10218 0 1.5V14.25C0 14.6478 0.158035 15.0294 0.43934 15.3107C0.720644 15.592 1.10218 15.75 1.5 15.75H18.0834C18.459 15.7495 18.819 15.6001 19.0846 15.3346C19.3501 15.069 19.4995 14.709 19.5 14.3334V3.75C19.5 3.35218 19.342 2.97064 19.0607 2.68934C18.7794 2.40804 18.3978 2.25 18 2.25ZM18 14.25H1.5V1.5H6.49969L9.3 3.6C9.42982 3.69737 9.58772 3.75 9.75 3.75H18V14.25Z" fill="var(--fill-0, #8793AB)"/>
</svg>
