<svg preserveAspectRatio="none" width="100%" height="100%" overflow="visible" style="display: block;" viewBox="0 0 11 13" fill="none" xmlns="http://www.w3.org/2000/svg">
<path id="Union" fill-rule="evenodd" clip-rule="evenodd" d="M2.16667 0C0.998175 0 0 0.9001 0 2.07143V10.9286C0 12.0999 0.998175 13 2.16667 13H8.83333C10.0018 13 11 12.0999 11 10.9286V2.07143C11 0.9001 10.0018 0 8.83333 0H2.16667ZM1 2.07143C1 1.50701 1.49421 1 2.16667 1H6.5V6.5L7.55995 5.67975L8.5 6.5V1H8.83333C9.50579 1 10 1.50701 10 2.07143V10.9286C10 11.493 9.50579 12 8.83333 12H2.16667C1.49421 12 1 11.493 1 10.9286V2.07143Z" fill="var(--fill-0, #8793AB)"/>
</svg>
