<svg preserveAspectRatio="none" width="100%" height="100%" overflow="visible" style="display: block;" viewBox="0 0 20.2486 16.4737" fill="none" xmlns="http://www.w3.org/2000/svg">
<path id="Vector" d="M12.5378 6.83245C12.4821 6.7511 12.4429 6.65956 12.4226 6.56307C12.4023 6.46657 12.4012 6.36701 12.4194 6.2701C12.4376 6.17318 12.4747 6.0808 12.5287 5.99825C12.5826 5.9157 12.6523 5.8446 12.7337 5.78901L19.0769 1.44839C19.2412 1.34674 19.4383 1.31242 19.6273 1.35257C19.8163 1.39272 19.9825 1.50424 20.0913 1.66391C20.2001 1.82357 20.243 2.01905 20.2112 2.20962C20.1794 2.40018 20.0753 2.57112 19.9206 2.68682L13.5766 7.02745C13.4522 7.11318 13.3047 7.15896 13.1537 7.1587C13.0323 7.15823 12.9129 7.1283 12.8056 7.07147C12.6983 7.01465 12.6064 6.93262 12.5378 6.83245ZM20.1194 14.8096C20.007 14.9737 19.834 15.0865 19.6385 15.123C19.443 15.1596 19.241 15.117 19.0769 15.0046L10.5006 9.13589L6.51531 11.8621C6.81938 12.6343 6.82828 13.4915 6.54032 14.2698C6.25236 15.0481 5.68772 15.6931 4.95429 16.0814C4.22086 16.4698 3.37006 16.5743 2.56445 16.375C1.75885 16.1756 1.05492 15.6865 0.587162 15.001C0.119409 14.3155 -0.079371 13.4816 0.0288021 12.6588C0.136975 11.836 0.544518 11.0819 1.17356 10.5406C1.8026 9.99923 2.60904 9.70865 3.43879 9.72433C4.26854 9.74002 5.06342 10.0609 5.67156 10.6256L9.17218 8.22651L5.66687 5.82745C5.06079 6.38925 4.26901 6.70813 3.44273 6.7232C2.61646 6.73826 1.81358 6.44846 1.18742 5.90913C0.56126 5.3698 0.155687 4.61873 0.04815 3.79935C-0.059387 2.97996 0.138647 2.14967 0.604436 1.46703C1.07023 0.784393 1.77113 0.297233 2.57331 0.0985798C3.37549 -0.100073 4.22274 0.0036997 4.95326 0.390083C5.68379 0.776466 6.2464 1.41839 6.53367 2.19326C6.82094 2.96814 6.81273 3.82168 6.51062 4.59089L19.9169 13.7662C19.9988 13.8213 20.0691 13.892 20.1237 13.9743C20.1783 14.0566 20.2161 14.1489 20.2349 14.2459C20.2537 14.3428 20.2532 14.4425 20.2333 14.5393C20.2135 14.636 20.1748 14.7279 20.1194 14.8096ZM5.25062 13.1015C5.25071 12.6677 5.10039 12.2473 4.82526 11.9119C4.55013 11.5765 4.16722 11.3469 3.74178 11.2622C3.31633 11.1775 2.87468 11.2429 2.49206 11.4473C2.10945 11.6518 1.80955 11.9825 1.64347 12.3833C1.47739 12.784 1.45541 13.2299 1.58126 13.6451C1.70711 14.0602 1.97302 14.4189 2.33366 14.6599C2.69431 14.901 3.12739 15.0096 3.5591 14.9671C3.99082 14.9247 4.39446 14.7338 4.70124 14.4271C4.87599 14.2535 5.01454 14.047 5.10884 13.8194C5.20315 13.5918 5.25134 13.3478 5.25062 13.1015ZM4.70124 4.6762C4.96352 4.414 5.14216 4.07991 5.21455 3.71618C5.28694 3.35245 5.24984 2.97542 5.10795 2.63277C4.96605 2.29013 4.72573 1.99726 4.41737 1.79121C4.10902 1.58515 3.74648 1.47517 3.37562 1.47517C3.00475 1.47517 2.64222 1.58515 2.33386 1.79121C2.02551 1.99726 1.78519 2.29013 1.64329 2.63277C1.50139 2.97542 1.46429 3.35245 1.53669 3.71618C1.60908 4.07991 1.78771 4.414 2.04999 4.6762C2.22314 4.85194 2.42951 4.9915 2.65708 5.08676C2.88466 5.18202 3.12891 5.23107 3.37562 5.23107C3.62233 5.23107 3.86657 5.18202 4.09415 5.08676C4.32173 4.9915 4.52809 4.85194 4.70124 4.6762Z" fill="var(--fill-0, #8793AB)"/>
</svg>
