<svg preserveAspectRatio="none" width="100%" height="100%" overflow="visible" style="display: block;" viewBox="0 0 16.3167 16.3167" fill="none" xmlns="http://www.w3.org/2000/svg">
<path id="Vector" d="M5.84743 10.4692L1.25647 8.77752C1.12988 8.73079 1.02065 8.64639 0.943506 8.53568C0.866359 8.42497 0.825 8.29327 0.825 8.15833C0.825 8.0234 0.866359 7.8917 0.943506 7.78099C1.02065 7.67028 1.12988 7.58588 1.25647 7.53915L5.84743 5.84743L7.53915 1.25647C7.58588 1.12988 7.67028 1.02065 7.78099 0.943506C7.8917 0.866359 8.0234 0.825 8.15833 0.825C8.29327 0.825 8.42497 0.866359 8.53568 0.943506C8.64639 1.02065 8.73079 1.12988 8.77752 1.25647L10.4692 5.84743L15.0602 7.53915C15.1868 7.58588 15.296 7.67028 15.3732 7.78099C15.4503 7.8917 15.4917 8.0234 15.4917 8.15833C15.4917 8.29327 15.4503 8.42497 15.3732 8.53568C15.296 8.64639 15.1868 8.73079 15.0602 8.77752L10.4692 10.4692L8.77752 15.0602C8.73079 15.1868 8.64639 15.296 8.53568 15.3732C8.42497 15.4503 8.29327 15.4917 8.15833 15.4917C8.0234 15.4917 7.8917 15.4503 7.78099 15.3732C7.67028 15.296 7.58588 15.1868 7.53915 15.0602L5.84743 10.4692Z" stroke="var(--stroke-0, #020617)" stroke-width="1.65" stroke-linecap="round" stroke-linejoin="round"/>
</svg>
