<svg preserveAspectRatio="none" width="100%" height="100%" overflow="visible" style="display: block;" viewBox="0 0 20 15.0922" fill="none" xmlns="http://www.w3.org/2000/svg">
<g id="gmail">
<path id="Vector" d="M15.5012 1.35179L10.0584 5.49978L4.49107 1.35179V1.35291L4.4978 1.35851V7.16683L9.99559 11.4045L15.5012 7.33051V1.35179Z" fill="var(--fill-0, #EA4335)"/>
<path id="Vector_2" d="M16.9305 0.343018L15.5011 1.35199V7.33071L19.9989 3.9585V1.9271C19.9989 1.9271 19.4529 -0.974251 16.9305 0.343018Z" fill="var(--fill-0, #FBBC05)"/>
<path id="Vector_3" d="M15.5011 7.33067V15.0852H18.9484C18.9484 15.0852 19.9294 14.9865 20 13.8946V3.95846L15.5011 7.33067Z" fill="var(--fill-0, #34A853)"/>
<path id="Vector_4" d="M4.49784 15.0921V7.16719L4.49107 7.16158L4.49784 15.0921Z" fill="var(--fill-0, #C5221F)"/>
<path id="Vector_5" d="M4.49106 1.35306L3.06953 0.349692C0.547089 -0.967577 0 1.93266 0 1.93266V3.96405L4.49106 7.16137V1.35306Z" fill="var(--fill-0, #C5221F)"/>
<path id="Vector_6" d="M4.49107 1.35329V7.1616L4.49784 7.16721V1.3589L4.49107 1.35329Z" fill="var(--fill-0, #C5221F)"/>
<path id="Vector_7" d="M0 3.96522V13.9014C0.0695072 14.9944 1.05158 15.0919 1.05158 15.0919H4.49891L4.49106 7.16142L0 3.96522Z" fill="var(--fill-0, #4285F4)"/>
</g>
</svg>
