<svg preserveAspectRatio="none" width="100%" height="100%" overflow="visible" style="display: block;" viewBox="0 0 24 24" fill="none" xmlns="http://www.w3.org/2000/svg">
<g id="link-tanka">
<path id="Union" d="M9.28571 2.5C12.6095 2.5 15.3731 4.89015 15.9561 8.0452C19.1106 8.62851 21.5 11.3909 21.5 14.7143C21.5 18.4619 18.4619 21.5 14.7143 21.5C11.3909 21.5 8.62851 19.1106 8.0452 15.9561C4.89015 15.3731 2.5 12.6095 2.5 9.28571C2.5 5.53807 5.53807 2.5 9.28571 2.5ZM16.0668 9.45734C15.9771 13.0686 13.0686 15.9771 9.45734 16.0668C10.0583 18.4104 12.1832 20.1429 14.7143 20.1429C17.7124 20.1429 20.1429 17.7124 20.1429 14.7143C20.1429 12.1832 18.4104 10.0583 16.0668 9.45734ZM9.28571 3.85714C6.2876 3.85714 3.85714 6.2876 3.85714 9.28571C3.85714 12.2838 6.2876 14.7143 9.28571 14.7143C12.2838 14.7143 14.7143 12.2838 14.7143 9.28571C14.7143 6.2876 12.2838 3.85714 9.28571 3.85714Z" fill="var(--fill-0, #6F7F94)"/>
</g>
</svg>
