<svg preserveAspectRatio="none" width="100%" height="100%" overflow="visible" style="display: block;" viewBox="0 0 16 16" fill="none" xmlns="http://www.w3.org/2000/svg">
<g id="icon-wrapper-2025" clip-path="url(#clip0_0_1860)">
<path id="Vector" d="M8 0.687499C6.55373 0.687499 5.13993 1.11637 3.93739 1.91988C2.73486 2.72338 1.7976 3.86544 1.24413 5.20163C0.690667 6.53781 0.545855 8.00811 0.82801 9.4266C1.11016 10.8451 1.80661 12.148 2.82928 13.1707C3.85196 14.1934 5.15492 14.8898 6.5734 15.172C7.99189 15.4541 9.46219 15.3093 10.7984 14.7559C12.1346 14.2024 13.2766 13.2651 14.0801 12.0626C14.8836 10.8601 15.3125 9.44627 15.3125 8C15.3105 6.06123 14.5394 4.20246 13.1685 2.83154C11.7975 1.46063 9.93877 0.689546 8 0.687499ZM11.2105 6.71047L7.27297 10.648C7.22073 10.7003 7.15869 10.7418 7.09041 10.7701C7.02212 10.7984 6.94892 10.8129 6.875 10.8129C6.80108 10.8129 6.72788 10.7984 6.6596 10.7701C6.59131 10.7418 6.52927 10.7003 6.47703 10.648L4.78953 8.96047C4.68398 8.85492 4.62469 8.71177 4.62469 8.5625C4.62469 8.41323 4.68398 8.27008 4.78953 8.16453C4.89508 8.05898 5.03823 7.99969 5.1875 7.99969C5.33677 7.99969 5.47992 8.05898 5.58547 8.16453L6.875 9.45476L10.4145 5.91453C10.4668 5.86227 10.5288 5.82081 10.5971 5.79253C10.6654 5.76424 10.7386 5.74969 10.8125 5.74969C10.8864 5.74969 10.9596 5.76424 11.0279 5.79253C11.0962 5.82081 11.1582 5.86227 11.2105 5.91453C11.2627 5.96679 11.3042 6.02884 11.3325 6.09712C11.3608 6.1654 11.3753 6.23859 11.3753 6.3125C11.3753 6.38641 11.3608 6.45959 11.3325 6.52788C11.3042 6.59616 11.2627 6.65821 11.2105 6.71047Z" fill="var(--fill-0, #CFD4DB)"/>
</g>
<defs>
<clipPath id="clip0_0_1860">
<rect width="16" height="16" fill="white"/>
</clipPath>
</defs>
</svg>
