<svg preserveAspectRatio="none" width="100%" height="100%" overflow="visible" style="display: block;" viewBox="0 0 16.2409 16.2409" fill="none" xmlns="http://www.w3.org/2000/svg">
<path id="Vector" d="M16.2388 8.80369C16.106 10.3474 15.5351 11.8211 14.5932 13.0514C13.6513 14.2817 12.3777 15.2173 10.9221 15.7483C9.46648 16.2793 7.8895 16.3836 6.37668 16.0488C4.86385 15.714 3.47812 14.9541 2.3825 13.8584C1.28689 12.7628 0.526981 11.3771 0.192176 9.86427C-0.142629 8.35145 -0.0384007 6.77447 0.492599 5.31887C1.0236 3.86327 1.95928 2.5896 3.18956 1.64771C4.41984 0.705829 5.89353 0.134909 7.43726 0.00212339C7.51934 -0.00464789 7.60195 0.00481317 7.68036 0.0299665C7.75878 0.0551199 7.83148 0.0954729 7.89431 0.148721C7.95713 0.20197 8.00885 0.267071 8.04652 0.340309C8.08418 0.413546 8.10705 0.493485 8.11383 0.575561C8.1206 0.657637 8.11114 0.740243 8.08598 0.818663C8.06083 0.897083 8.02048 0.96978 7.96723 1.0326C7.91398 1.09543 7.84888 1.14715 7.77564 1.18482C7.7024 1.22248 7.62246 1.24535 7.54039 1.25212C6.23382 1.36438 4.98649 1.84749 3.94516 2.64459C2.90384 3.4417 2.11184 4.51965 1.66236 5.7516C1.21288 6.98355 1.12462 8.31825 1.40795 9.59866C1.69129 10.8791 2.33444 12.0519 3.26173 12.9792C4.18902 13.9065 5.36187 14.5497 6.64229 14.833C7.9227 15.1163 9.2574 15.0281 10.4894 14.5786C11.7213 14.1291 12.7992 13.3371 13.5964 12.2958C14.3935 11.2545 14.8766 10.0071 14.9888 8.70056C15.0025 8.5348 15.0815 8.38126 15.2083 8.27372C15.3352 8.16618 15.4996 8.11345 15.6654 8.12712C15.8311 8.1408 15.9847 8.21976 16.0922 8.34664C16.1998 8.47352 16.2525 8.63793 16.2388 8.80369ZM7.48883 3.75212V8.12712C7.48883 8.29288 7.55467 8.45186 7.67188 8.56907C7.78909 8.68628 7.94807 8.75212 8.11383 8.75212H12.4888C12.6546 8.75212 12.8136 8.68628 12.9308 8.56907C13.048 8.45186 13.1138 8.29288 13.1138 8.12712C13.1138 7.96136 13.048 7.80239 12.9308 7.68518C12.8136 7.56797 12.6546 7.50212 12.4888 7.50212H8.73883V3.75212C8.73883 3.58636 8.67298 3.42739 8.55577 3.31018C8.43856 3.19297 8.27959 3.12712 8.11383 3.12712C7.94807 3.12712 7.78909 3.19297 7.67188 3.31018C7.55467 3.42739 7.48883 3.58636 7.48883 3.75212ZM10.6138 1.87712C10.7992 1.87712 10.9805 1.82214 11.1347 1.71913C11.2888 1.61611 11.409 1.46969 11.48 1.29839C11.5509 1.12708 11.5695 0.938583 11.5333 0.756726C11.4971 0.574869 11.4078 0.407823 11.2767 0.276711C11.1456 0.145599 10.9786 0.0563109 10.7967 0.0201373C10.6149 -0.0160364 10.4264 0.00252924 10.2551 0.0734864C10.0838 0.144444 9.93734 0.264605 9.83432 0.418776C9.73131 0.572947 9.67633 0.754203 9.67633 0.939623C9.67633 1.18826 9.7751 1.42672 9.95091 1.60254C10.1267 1.77835 10.3652 1.87712 10.6138 1.87712ZM13.4263 3.75212C13.6117 3.75212 13.793 3.69714 13.9472 3.59413C14.1013 3.49111 14.2215 3.34469 14.2925 3.17339C14.3634 3.00208 14.382 2.81358 14.3458 2.63173C14.3096 2.44987 14.2203 2.28282 14.0892 2.15171C13.9581 2.0206 13.7911 1.93131 13.6092 1.89514C13.4274 1.85896 13.2389 1.87753 13.0676 1.94849C12.8963 2.01944 12.7498 2.13961 12.6468 2.29378C12.5438 2.44795 12.4888 2.6292 12.4888 2.81462C12.4888 3.06326 12.5876 3.30172 12.7634 3.47754C12.9392 3.65335 13.1777 3.75212 13.4263 3.75212ZM15.3013 6.56462C15.4867 6.56462 15.668 6.50964 15.8222 6.40663C15.9763 6.30361 16.0965 6.15719 16.1675 5.98589C16.2384 5.81458 16.257 5.62608 16.2208 5.44423C16.1846 5.26237 16.0953 5.09532 15.9642 4.96421C15.8331 4.8331 15.6661 4.74381 15.4842 4.70764C15.3024 4.67146 15.1139 4.69003 14.9426 4.76099C14.7713 4.83194 14.6248 4.95211 14.5218 5.10628C14.4188 5.26045 14.3638 5.4417 14.3638 5.62712C14.3638 5.87576 14.4626 6.11422 14.6384 6.29004C14.8142 6.46585 15.0527 6.56462 15.3013 6.56462Z" fill="var(--fill-0, #CFD4DB)"/>
</svg>
