<svg preserveAspectRatio="none" width="100%" height="100%" overflow="visible" style="display: block;" viewBox="0 0 24 24" fill="none" xmlns="http://www.w3.org/2000/svg">
<g id="&#228;&#186;&#164;&#230;&#152;&#147;&#230;&#184;&#133;&#229;&#141;&#149;_transaction-order 1">
<g id="Group 1321317750">
<path id="Vector" d="M12 11.2686H16.8" stroke="var(--stroke-0, #9560FF)" stroke-width="1.8" stroke-linecap="round" stroke-linejoin="round"/>
<path id="Vector_2" d="M12 16.5996H16.8" stroke="var(--stroke-0, #9560FF)" stroke-width="1.8" stroke-linecap="round" stroke-linejoin="round"/>
<path id="Subtract" d="M17.7354 2.69922C19.705 2.69947 21.3018 4.29694 21.3018 6.2666V19.5332C21.3016 21.5027 19.7049 23.0994 17.7354 23.0996H6.26855C4.29883 23.0996 2.70131 21.5029 2.70117 19.5332V6.2666C2.70117 4.29679 4.29874 2.69922 6.26855 2.69922H7.82422L8.00488 4.5H6.26855C5.29285 4.5 4.50195 5.2909 4.50195 6.2666V19.5332C4.50209 20.5088 5.29294 21.2998 6.26855 21.2998H17.7354C18.7108 21.2996 19.5018 20.5086 19.502 19.5332V6.2666C19.502 5.29105 18.7108 4.50025 17.7354 4.5H15.7783V2.69922H17.7354Z" fill="var(--fill-0, #9560FF)"/>
<path id="Rectangle 279335635" d="M8.40625 2.9998C8.40625 2.33706 8.94351 1.7998 9.60625 1.7998H14.4062C15.069 1.7998 15.6062 2.33706 15.6062 2.9998V3.99994C15.6062 4.66268 15.069 5.19994 14.4062 5.19994H9.60625C8.94351 5.19994 8.40625 4.66268 8.40625 3.99994V2.9998Z" stroke="var(--stroke-0, #9560FF)" stroke-width="1.8" stroke-linejoin="round"/>
<circle id="Ellipse 2890" cx="8.00521" cy="11.266" r="1.33333" fill="var(--fill-0, #9560FF)"/>
<circle id="Ellipse 2891" cx="8.00521" cy="16.599" r="1.33333" fill="var(--fill-0, #9560FF)"/>
</g>
</g>
</svg>
