<svg preserveAspectRatio="none" width="100%" height="100%" overflow="visible" style="display: block;" viewBox="0 0 8.25008 10.5012" fill="none" xmlns="http://www.w3.org/2000/svg">
<path id="Vector" d="M6.37506 10.1262C6.37506 10.2257 6.33555 10.321 6.26523 10.3914C6.1949 10.4617 6.09952 10.5012 6.00006 10.5012H2.25006C2.15061 10.5012 2.05522 10.4617 1.9849 10.3914C1.91457 10.321 1.87506 10.2257 1.87506 10.1262C1.87506 10.0267 1.91457 9.93136 1.9849 9.86103C2.05522 9.79071 2.15061 9.7512 2.25006 9.7512H6.00006C6.09952 9.7512 6.1949 9.79071 6.26523 9.86103C6.33555 9.93136 6.37506 10.0267 6.37506 10.1262ZM8.25006 4.1262C8.25168 4.75134 8.11045 5.36859 7.83717 5.93084C7.56388 6.49309 7.16576 6.98548 6.67319 7.37042C6.58108 7.44102 6.50634 7.53174 6.45467 7.63565C6.403 7.73955 6.37577 7.8539 6.37506 7.96995V8.2512C6.37506 8.45011 6.29604 8.64088 6.15539 8.78153C6.01474 8.92218 5.82397 9.0012 5.62506 9.0012H2.62506C2.42615 9.0012 2.23538 8.92218 2.09473 8.78153C1.95408 8.64088 1.87506 8.45011 1.87506 8.2512V7.96995C1.87498 7.85529 1.84862 7.74218 1.79799 7.6393C1.74737 7.53642 1.67383 7.44652 1.58303 7.37651C1.09169 6.99385 0.693833 6.50442 0.419582 5.94528C0.145332 5.38614 0.00187208 4.77194 6.13357e-05 4.14917C-0.0121262 1.9151 1.7935 0.0546348 4.02569 0.00119728C4.57569 -0.0120568 5.1228 0.0848472 5.63479 0.286206C6.14679 0.487564 6.61333 0.789308 7.00696 1.17368C7.40059 1.55805 7.71335 2.01728 7.92684 2.52433C8.14032 3.03139 8.25022 3.57603 8.25006 4.1262ZM6.74491 3.68839C6.64767 3.14524 6.38635 2.64493 5.99614 2.25481C5.60594 1.86468 5.10557 1.60348 4.56241 1.50635C4.51384 1.49817 4.46413 1.49963 4.41613 1.51065C4.36812 1.52167 4.32276 1.54204 4.28263 1.57059C4.24249 1.59915 4.20838 1.63533 4.18223 1.67707C4.15608 1.7188 4.1384 1.76529 4.13022 1.81385C4.12203 1.86242 4.12349 1.91213 4.13451 1.96013C4.14553 2.00814 4.1659 2.0535 4.19446 2.09363C4.22301 2.13377 4.25919 2.16788 4.30093 2.19403C4.34267 2.22018 4.38915 2.23785 4.43772 2.24604C5.21444 2.37682 5.8735 3.03588 6.00522 3.81401C6.02006 3.90135 6.06534 3.98061 6.13303 4.03776C6.20073 4.0949 6.28647 4.12623 6.37506 4.1262C6.39625 4.12607 6.41741 4.12435 6.43834 4.12104C6.53636 4.10431 6.62372 4.04933 6.68121 3.96819C6.7387 3.88706 6.76161 3.78641 6.74491 3.68839Z" fill="var(--fill-0, #854FF7)"/>
</svg>
