<svg preserveAspectRatio="none" width="100%" height="100%" overflow="visible" style="display: block;" viewBox="0 0 18.2812 15.4688" fill="none" xmlns="http://www.w3.org/2000/svg">
<path id="Vector" d="M16.875 0H1.40625C1.03329 0 0.675604 0.148158 0.411881 0.411881C0.148158 0.675604 0 1.03329 0 1.40625V14.0625C0 14.4355 0.148158 14.7931 0.411881 15.0569C0.675604 15.3206 1.03329 15.4688 1.40625 15.4688H16.875C17.248 15.4688 17.6056 15.3206 17.8694 15.0569C18.1331 14.7931 18.2812 14.4355 18.2812 14.0625V1.40625C18.2812 1.03329 18.1331 0.675604 17.8694 0.411881C17.6056 0.148158 17.248 0 16.875 0ZM3.51562 9.84375H2.10938C1.92289 9.84375 1.74405 9.76967 1.61219 9.63781C1.48033 9.50595 1.40625 9.32711 1.40625 9.14062C1.40625 8.95414 1.48033 8.7753 1.61219 8.64344C1.74405 8.51158 1.92289 8.4375 2.10938 8.4375H3.51562C3.70211 8.4375 3.88095 8.51158 4.01281 8.64344C4.14467 8.7753 4.21875 8.95414 4.21875 9.14062C4.21875 9.32711 4.14467 9.50595 4.01281 9.63781C3.88095 9.76967 3.70211 9.84375 3.51562 9.84375ZM3.51562 7.03125H2.10938C1.92289 7.03125 1.74405 6.95717 1.61219 6.82531C1.48033 6.69345 1.40625 6.51461 1.40625 6.32812C1.40625 6.14164 1.48033 5.9628 1.61219 5.83094C1.74405 5.69908 1.92289 5.625 2.10938 5.625H3.51562C3.70211 5.625 3.88095 5.69908 4.01281 5.83094C4.14467 5.9628 4.21875 6.14164 4.21875 6.32812C4.21875 6.51461 4.14467 6.69345 4.01281 6.82531C3.88095 6.95717 3.70211 7.03125 3.51562 7.03125ZM3.51562 4.21875H2.10938C1.92289 4.21875 1.74405 4.14467 1.61219 4.01281C1.48033 3.88095 1.40625 3.70211 1.40625 3.51562C1.40625 3.32914 1.48033 3.1503 1.61219 3.01844C1.74405 2.88658 1.92289 2.8125 2.10938 2.8125H3.51562C3.70211 2.8125 3.88095 2.88658 4.01281 3.01844C4.14467 3.1503 4.21875 3.32914 4.21875 3.51562C4.21875 3.70211 4.14467 3.88095 4.01281 4.01281C3.88095 4.14467 3.70211 4.21875 3.51562 4.21875ZM16.875 14.0625H5.625V1.40625H16.875V14.0625Z" fill="var(--fill-0, #8794A6)"/>
</svg>
