<svg preserveAspectRatio="none" width="100%" height="100%" overflow="visible" style="display: block;" viewBox="0 0 20.35 20.35" fill="none" xmlns="http://www.w3.org/2000/svg">
<g id="icons8-outlook-calendar 1">
<path id="Vector" d="M11.8708 5.51146H18.0322C18.3756 5.51146 18.6542 5.79 18.6542 6.13341V14.2166C18.6542 14.56 18.3756 14.8385 18.0322 14.8385H11.8708V5.51146Z" fill="var(--fill-0, #1976D2)"/>
<path id="Vector_2" d="M17.8063 7.61344H11.8708V14.2026H17.8063V7.61344Z" fill="var(--fill-0, white)"/>
<path id="Vector_3" d="M11.4469 18.6542L1.69583 16.7464V3.60365L11.4469 1.69583V18.6542Z" fill="var(--fill-0, #1976D2)"/>
<path id="Vector_4" d="M6.46536 6.99531C5.11887 6.99531 4.0276 8.41896 4.0276 10.175C4.0276 11.931 5.11887 13.3547 6.46536 13.3547C7.81186 13.3547 8.90313 11.931 8.90313 10.175C8.90313 8.41896 7.81186 6.99531 6.46536 6.99531ZM6.35938 12.0828C5.65688 12.0828 5.0875 11.2285 5.0875 10.175C5.0875 9.12146 5.65688 8.26719 6.35938 8.26719C7.06187 8.26719 7.63125 9.12146 7.63125 10.175C7.63125 11.2285 7.06187 12.0828 6.35938 12.0828Z" fill="var(--fill-0, white)"/>
<path id="Vector_5" d="M13.0354 12.6072H11.8908V13.8367H13.0354V12.6072Z" fill="var(--fill-0, #1976D2)"/>
<path id="Vector_6" d="M14.4773 12.6072H13.3326V13.8367H14.4773V12.6072Z" fill="var(--fill-0, #1976D2)"/>
<path id="Vector_7" d="M15.9192 12.6072H14.7745V13.8367H15.9192V12.6072Z" fill="var(--fill-0, #1976D2)"/>
<path id="Vector_8" d="M13.0354 11.0903H11.8908V12.3198H13.0354V11.0903Z" fill="var(--fill-0, #1976D2)"/>
<path id="Vector_9" d="M14.4773 11.0903H13.3326V12.3198H14.4773V11.0903Z" fill="var(--fill-0, #1976D2)"/>
<path id="Vector_10" d="M15.9192 11.0903H14.7745V12.3198H15.9192V11.0903Z" fill="var(--fill-0, #1976D2)"/>
<path id="Vector_11" d="M17.3611 11.0903H16.2164V12.3198H17.3611V11.0903Z" fill="var(--fill-0, #1976D2)"/>
<path id="Vector_12" d="M13.0354 9.6264H11.8908V10.8559H13.0354V9.6264Z" fill="var(--fill-0, #1976D2)"/>
<path id="Vector_13" d="M14.4773 9.6264H13.3326V10.8559H14.4773V9.6264Z" fill="var(--fill-0, #1976D2)"/>
<path id="Vector_14" d="M15.9192 9.6264H14.7745V10.8559H15.9192V9.6264Z" fill="var(--fill-0, #1976D2)"/>
<path id="Vector_15" d="M17.3611 9.6264H16.2164V10.8559H17.3611V9.6264Z" fill="var(--fill-0, #1976D2)"/>
<path id="Vector_16" d="M14.4773 8.10269H13.3326V9.33217H14.4773V8.10269Z" fill="var(--fill-0, #1976D2)"/>
<path id="Vector_17" d="M15.9192 8.10269H14.7745V9.33217H15.9192V8.10269Z" fill="var(--fill-0, #1976D2)"/>
<path id="Vector_18" d="M17.3611 8.10269H16.2164V9.33217H17.3611V8.10269Z" fill="var(--fill-0, #1976D2)"/>
</g>
</svg>
