<svg preserveAspectRatio="none" width="100%" height="100%" overflow="visible" style="display: block;" viewBox="0 0 20 20" fill="none" xmlns="http://www.w3.org/2000/svg">
<g id="loading 1">
<path id="Vector" d="M12.039 3.04127C12.039 3.98964 11.2703 4.75831 10.3219 4.75831C9.37366 4.75831 8.60489 3.98964 8.60489 3.04127C8.60498 2.09289 9.37366 1.32422 10.3219 1.32422C11.2702 1.32422 12.039 2.09298 12.039 3.04127ZM10.3219 15.7485C9.49215 15.7485 8.81958 16.4212 8.81958 17.2509C8.81958 18.0806 9.49224 18.7532 10.3219 18.7532C11.1516 18.7532 11.8243 18.0806 11.8243 17.2509C11.8243 16.4212 11.1517 15.7485 10.3219 15.7485ZM17.4268 11.2192C16.8341 11.2192 16.3537 10.7389 16.3537 10.1461C16.3537 9.55334 16.8341 9.0729 17.4268 9.0729C18.0196 9.0729 18.5 9.55334 18.5 10.1461C18.4999 10.7388 18.0195 11.2192 17.4268 11.2192ZM4.93409 10.1461C4.93409 9.19779 4.16542 8.42902 3.21705 8.42902C2.26877 8.42902 1.5 9.19769 1.5 10.1461C1.5 11.0943 2.26867 11.8631 3.21705 11.8631C4.16542 11.8631 4.93409 11.0943 4.93409 10.1461ZM6.51228 3.90815C7.18284 4.57871 7.18284 5.66585 6.51228 6.33631C5.84172 7.00687 4.75458 7.00687 4.08402 6.33631C3.41346 5.66576 3.41346 4.57861 4.08402 3.90806C4.75458 3.2375 5.84172 3.2375 6.51228 3.90815ZM14.4353 14.2594C13.9324 14.7623 13.9324 15.5777 14.4352 16.0806C14.9381 16.5835 15.7535 16.5835 16.2564 16.0806C16.7593 15.5777 16.7593 14.7623 16.2564 14.2594C15.7535 13.7564 14.9382 13.7564 14.4353 14.2594ZM15.953 5.72925C15.6177 6.06453 15.074 6.06453 14.7389 5.72925C14.4036 5.39388 14.4036 4.85031 14.7389 4.51512C14.8186 4.43538 14.9133 4.37212 15.0174 4.32896C15.1216 4.2858 15.2332 4.26358 15.346 4.26358C15.4587 4.26358 15.5703 4.2858 15.6745 4.32896C15.7787 4.37212 15.8733 4.43538 15.953 4.51512C16.2883 4.8504 16.2883 5.39406 15.953 5.72925ZM6.51228 13.9558C5.84172 13.2853 4.75458 13.2853 4.08402 13.9558C3.41346 14.6264 3.41346 15.7135 4.08402 16.384C4.75458 17.0545 5.84172 17.0545 6.51219 16.384C7.18275 15.7135 7.18275 14.6264 6.51228 13.9558Z" fill="var(--fill-0, #FFB744)"/>
</g>
</svg>
