<svg preserveAspectRatio="none" width="100%" height="100%" overflow="visible" style="display: block;" viewBox="0 0 15.25 15.25" fill="none" xmlns="http://www.w3.org/2000/svg">
<g id="Group 1321317770">
<path id="Vector" d="M4.6874 14.5H1.34782C1.18927 14.5 1.03721 14.437 0.925098 14.3249C0.812985 14.2128 0.75 14.0607 0.75 13.9022V10.5626C0.750073 10.4043 0.812961 10.2524 0.924863 10.1404L10.1403 0.924959C10.2524 0.812931 10.4044 0.75 10.5629 0.75C10.7214 0.75 10.8734 0.812931 10.9855 0.924959L14.325 4.2623C14.4371 4.3744 14.5 4.5264 14.5 4.68489C14.5 4.84337 14.4371 4.99537 14.325 5.10747L5.10962 14.3251C4.99759 14.437 4.84575 14.4999 4.6874 14.5Z" stroke="var(--stroke-0, #8794A6)" stroke-width="1.5" stroke-linecap="round" stroke-linejoin="round"/>
<path id="Vector_2" d="M8.01902 3.06887L12.077 7.12682" stroke="var(--stroke-0, #8794A6)" stroke-width="1.5" stroke-linecap="round" stroke-linejoin="round"/>
</g>
</svg>
