<svg preserveAspectRatio="none" width="100%" height="100%" overflow="visible" style="display: block;" viewBox="0 0 13.375 2.75" fill="none" xmlns="http://www.w3.org/2000/svg">
<path id="Vector" d="M7.9375 1.375C7.9375 1.62223 7.86419 1.8639 7.72684 2.06946C7.58949 2.27502 7.39426 2.43524 7.16586 2.52985C6.93745 2.62446 6.68611 2.64921 6.44364 2.60098C6.20116 2.55275 5.97843 2.4337 5.80362 2.25888C5.6288 2.08407 5.50975 1.86134 5.46152 1.61886C5.41329 1.37639 5.43804 1.12505 5.53265 0.896646C5.62726 0.668238 5.78748 0.473015 5.99304 0.335663C6.1986 0.198311 6.44027 0.125 6.6875 0.125C7.01902 0.125 7.33696 0.256696 7.57138 0.491117C7.80581 0.725537 7.9375 1.04348 7.9375 1.375ZM1.375 0.125C1.12777 0.125 0.8861 0.198311 0.680538 0.335663C0.474977 0.473015 0.314761 0.668238 0.220151 0.896646C0.125542 1.12505 0.100788 1.37639 0.149019 1.61886C0.197251 1.86134 0.316302 2.08407 0.491117 2.25888C0.665933 2.4337 0.888662 2.55275 1.13114 2.60098C1.37361 2.64921 1.62495 2.62446 1.85336 2.52985C2.08176 2.43524 2.27699 2.27502 2.41434 2.06946C2.55169 1.8639 2.625 1.62223 2.625 1.375C2.625 1.04348 2.4933 0.725537 2.25888 0.491117C2.02446 0.256696 1.70652 0.125 1.375 0.125ZM12 0.125C11.7528 0.125 11.5111 0.198311 11.3055 0.335663C11.1 0.473015 10.9398 0.668238 10.8452 0.896646C10.7505 1.12505 10.7258 1.37639 10.774 1.61886C10.8223 1.86134 10.9413 2.08407 11.1161 2.25888C11.2909 2.4337 11.5137 2.55275 11.7561 2.60098C11.9986 2.64921 12.2499 2.62446 12.4784 2.52985C12.7068 2.43524 12.902 2.27502 13.0393 2.06946C13.1767 1.8639 13.25 1.62223 13.25 1.375C13.25 1.04348 13.1183 0.725537 12.8839 0.491117C12.6495 0.256696 12.3315 0.125 12 0.125Z" fill="var(--fill-0, #020617)" stroke="var(--stroke-0, #020617)" stroke-width="0.25"/>
</svg>
