<svg preserveAspectRatio="none" width="100%" height="100%" overflow="visible" style="display: block;" viewBox="0 0 13.0953 17.6221" fill="none" xmlns="http://www.w3.org/2000/svg">
<g id="Vector">
<path d="M13.0268 8.06075C12.9968 7.92636 12.9344 7.80132 12.8452 7.69644C12.7559 7.59156 12.6425 7.51 12.5146 7.45881L8.89872 6.01259L9.64691 1.02396C9.67437 0.844818 9.64371 0.661594 9.55942 0.501159C9.47513 0.340723 9.34165 0.21152 9.17855 0.1325C9.01545 0.0534808 8.83133 0.028804 8.65318 0.0620894C8.47503 0.0953749 8.31224 0.184871 8.18868 0.31745L0.275817 8.79552C0.181758 8.89625 0.113674 9.01839 0.0774599 9.15136C0.0412459 9.28433 0.0379943 9.42413 0.0679866 9.55864C0.0979789 9.69316 0.160311 9.81833 0.249584 9.92332C0.338857 10.0283 0.45238 10.11 0.580321 10.1612L4.19622 11.6074L3.44803 16.5982C3.42056 16.7773 3.45122 16.9605 3.53551 17.121C3.6198 17.2814 3.75329 17.4106 3.91638 17.4896C4.07948 17.5686 4.26361 17.5933 4.44175 17.56C4.6199 17.5267 4.78269 17.4373 4.90625 17.3047L12.8191 8.8266C12.9136 8.72558 12.9819 8.60297 13.0181 8.46948C13.0543 8.33599 13.0573 8.19567 13.0268 8.06075ZM5.5301 14.1487L5.97308 11.1976C6.00139 11.0088 5.96509 10.8159 5.87007 10.6502C5.77505 10.4845 5.62688 10.3558 5.44956 10.2848L2.36071 9.04915L7.56483 3.47341L7.12186 6.42448C7.09355 6.61336 7.12985 6.80626 7.22486 6.97194C7.31988 7.13761 7.46805 7.26635 7.64538 7.33729L10.7342 8.57297L5.5301 14.1487Z" fill="url(#paint0_linear_0_1963)"/>
<path d="M13.0268 8.06075C12.9968 7.92636 12.9344 7.80132 12.8452 7.69644C12.7559 7.59156 12.6425 7.51 12.5146 7.45881L8.89872 6.01259L9.64691 1.02396C9.67437 0.844818 9.64371 0.661594 9.55942 0.501159C9.47513 0.340723 9.34165 0.21152 9.17855 0.1325C9.01545 0.0534808 8.83133 0.028804 8.65318 0.0620894C8.47503 0.0953749 8.31224 0.184871 8.18868 0.31745L0.275817 8.79552C0.181758 8.89625 0.113674 9.01839 0.0774599 9.15136C0.0412459 9.28433 0.0379943 9.42413 0.0679866 9.55864C0.0979789 9.69316 0.160311 9.81833 0.249584 9.92332C0.338857 10.0283 0.45238 10.11 0.580321 10.1612L4.19622 11.6074L3.44803 16.5982C3.42056 16.7773 3.45122 16.9605 3.53551 17.121C3.6198 17.2814 3.75329 17.4106 3.91638 17.4896C4.07948 17.5686 4.26361 17.5933 4.44175 17.56C4.6199 17.5267 4.78269 17.4373 4.90625 17.3047L12.8191 8.8266C12.9136 8.72558 12.9819 8.60297 13.0181 8.46948C13.0543 8.33599 13.0573 8.19567 13.0268 8.06075ZM5.5301 14.1487L5.97308 11.1976C6.00139 11.0088 5.96509 10.8159 5.87007 10.6502C5.77505 10.4845 5.62688 10.3558 5.44956 10.2848L2.36071 9.04915L7.56483 3.47341L7.12186 6.42448C7.09355 6.61336 7.12985 6.80626 7.22486 6.97194C7.31988 7.13761 7.46805 7.26635 7.64538 7.33729L10.7342 8.57297L5.5301 14.1487Z" fill="var(--fill-1, white)"/>
<path d="M13.0268 8.06075C12.9968 7.92636 12.9344 7.80132 12.8452 7.69644C12.7559 7.59156 12.6425 7.51 12.5146 7.45881L8.89872 6.01259L9.64691 1.02396C9.67437 0.844818 9.64371 0.661594 9.55942 0.501159C9.47513 0.340723 9.34165 0.21152 9.17855 0.1325C9.01545 0.0534808 8.83133 0.028804 8.65318 0.0620894C8.47503 0.0953749 8.31224 0.184871 8.18868 0.31745L0.275817 8.79552C0.181758 8.89625 0.113674 9.01839 0.0774599 9.15136C0.0412459 9.28433 0.0379943 9.42413 0.0679866 9.55864C0.0979789 9.69316 0.160311 9.81833 0.249584 9.92332C0.338857 10.0283 0.45238 10.11 0.580321 10.1612L4.19622 11.6074L3.44803 16.5982C3.42056 16.7773 3.45122 16.9605 3.53551 17.121C3.6198 17.2814 3.75329 17.4106 3.91638 17.4896C4.07948 17.5686 4.26361 17.5933 4.44175 17.56C4.6199 17.5267 4.78269 17.4373 4.90625 17.3047L12.8191 8.8266C12.9136 8.72558 12.9819 8.60297 13.0181 8.46948C13.0543 8.33599 13.0573 8.19567 13.0268 8.06075ZM5.5301 14.1487L5.97308 11.1976C6.00139 11.0088 5.96509 10.8159 5.87007 10.6502C5.77505 10.4845 5.62688 10.3558 5.44956 10.2848L2.36071 9.04915L7.56483 3.47341L7.12186 6.42448C7.09355 6.61336 7.12985 6.80626 7.22486 6.97194C7.31988 7.13761 7.46805 7.26635 7.64538 7.33729L10.7342 8.57297L5.5301 14.1487Z" stroke="var(--stroke-0, white)" stroke-width="0.0953333"/>
</g>
<defs>
<linearGradient id="paint0_linear_0_1963" x1="2.16584" y1="2.43811" x2="12.8206" y2="15.393" gradientUnits="userSpaceOnUse">
<stop stop-color="#21B3F2"/>
<stop offset="1" stop-color="#C27FEC"/>
</linearGradient>
</defs>
</svg>
