<svg preserveAspectRatio="none" width="100%" height="100%" overflow="visible" style="display: block;" viewBox="0 0 17.5787 17.5787" fill="none" xmlns="http://www.w3.org/2000/svg">
<path id="Vector" d="M17.3725 3.01872L14.56 0.206217C14.4947 0.140843 14.4171 0.0889812 14.3318 0.0535969C14.2464 0.0182126 14.1549 0 14.0625 0C13.9701 0 13.8786 0.0182126 13.7932 0.0535969C13.7079 0.0889812 13.6303 0.140843 13.565 0.206217L5.12754 8.64372C5.06226 8.70906 5.01051 8.78663 4.97522 8.87199C4.93993 8.95734 4.9218 9.04882 4.92188 9.14118V11.9537C4.92188 12.1402 4.99595 12.319 5.12782 12.4509C5.25968 12.5827 5.43852 12.6568 5.625 12.6568H8.4375C8.52986 12.6569 8.62134 12.6387 8.70669 12.6035C8.79205 12.5682 8.86961 12.5164 8.93496 12.4511L17.3725 4.01364C17.4378 3.94834 17.4897 3.87079 17.5251 3.78543C17.5605 3.70008 17.5787 3.60858 17.5787 3.51618C17.5787 3.42378 17.5605 3.33228 17.5251 3.24692C17.4897 3.16157 17.4378 3.08402 17.3725 3.01872ZM8.14658 11.2506H6.32812V9.4321L11.9531 3.8071L13.7716 5.62555L8.14658 11.2506ZM14.7656 4.63151L12.9472 2.81305L14.0625 1.69772L15.881 3.51618L14.7656 4.63151ZM16.875 9.14118V16.1724C16.875 16.5454 16.7268 16.9031 16.4631 17.1668C16.1994 17.4305 15.8417 17.5787 15.4688 17.5787H1.40625C1.03329 17.5787 0.675604 17.4305 0.411881 17.1668C0.148158 16.9031 0 16.5454 0 16.1724V2.10993C0 1.73697 0.148158 1.37928 0.411881 1.11556C0.675604 0.851836 1.03329 0.703678 1.40625 0.703678H8.4375C8.62398 0.703678 8.80282 0.777757 8.93468 0.909619C9.06655 1.04148 9.14062 1.22032 9.14062 1.4068C9.14062 1.59328 9.06655 1.77213 8.93468 1.90399C8.80282 2.03585 8.62398 2.10993 8.4375 2.10993H1.40625V16.1724H15.4688V9.14118C15.4688 8.9547 15.5428 8.77586 15.6747 8.64399C15.8066 8.51213 15.9854 8.43805 16.1719 8.43805C16.3584 8.43805 16.5372 8.51213 16.6691 8.64399C16.8009 8.77586 16.875 8.9547 16.875 9.14118Z" fill="var(--fill-0, #8793AB)"/>
</svg>
