<svg preserveAspectRatio="none" width="100%" height="100%" overflow="visible" style="display: block;" viewBox="0 0 16.875 18.2812" fill="none" xmlns="http://www.w3.org/2000/svg">
<path id="Vector" d="M15.4688 1.40625H13.3594V0.703125C13.3594 0.516645 13.2853 0.337802 13.1534 0.205941C13.0216 0.074079 12.8427 0 12.6562 0C12.4698 0 12.2909 0.074079 12.1591 0.205941C12.0272 0.337802 11.9531 0.516645 11.9531 0.703125V1.40625H4.92188V0.703125C4.92188 0.516645 4.8478 0.337802 4.71593 0.205941C4.58407 0.074079 4.40523 0 4.21875 0C4.03227 0 3.85343 0.074079 3.72157 0.205941C3.5897 0.337802 3.51562 0.516645 3.51562 0.703125V1.40625H1.40625C1.03329 1.40625 0.675604 1.55441 0.411881 1.81813C0.148158 2.08185 0 2.43954 0 2.8125V16.875C0 17.248 0.148158 17.6056 0.411881 17.8694C0.675604 18.1331 1.03329 18.2812 1.40625 18.2812H15.4688C15.8417 18.2812 16.1994 18.1331 16.4631 17.8694C16.7268 17.6056 16.875 17.248 16.875 16.875V2.8125C16.875 2.43954 16.7268 2.08185 16.4631 1.81813C16.1994 1.55441 15.8417 1.40625 15.4688 1.40625ZM3.51562 2.8125V3.51562C3.51562 3.70211 3.5897 3.88095 3.72157 4.01281C3.85343 4.14467 4.03227 4.21875 4.21875 4.21875C4.40523 4.21875 4.58407 4.14467 4.71593 4.01281C4.8478 3.88095 4.92188 3.70211 4.92188 3.51562V2.8125H11.9531V3.51562C11.9531 3.70211 12.0272 3.88095 12.1591 4.01281C12.2909 4.14467 12.4698 4.21875 12.6562 4.21875C12.8427 4.21875 13.0216 4.14467 13.1534 4.01281C13.2853 3.88095 13.3594 3.70211 13.3594 3.51562V2.8125H15.4688V5.625H1.40625V2.8125H3.51562ZM15.4688 16.875H1.40625V7.03125H15.4688V16.875Z" fill="var(--fill-0, #8793AB)"/>
</svg>
