<svg preserveAspectRatio="none" width="100%" height="100%" overflow="visible" style="display: block;" viewBox="0 0 24.3537 33.5417" fill="none" xmlns="http://www.w3.org/2000/svg">
<g id="Docs">
<path id="Page" d="M2.28539 0.0293435C1.02456 0.0293435 0.00245693 1.05145 0.00245693 2.31227V31.2294C0.00245693 32.4902 1.02456 33.5123 2.28539 33.5123H22.0708C23.3316 33.5123 24.3537 32.4902 24.3537 31.2294V9.16106L15.222 0.0293435H2.28539Z" fill="var(--fill-0, #4E8DF5)"/>
<path id="Shadow" d="M2.28539 33.5122C1.02456 33.5122 0.00245693 32.4901 0.00245693 31.2292V30.8488C0.00245693 32.1096 1.02456 33.1317 2.28539 33.1317H22.0708C23.3316 33.1317 24.3537 32.1096 24.3537 30.8488V31.2292C24.3537 32.4901 23.3316 33.5122 22.0708 33.5122H2.28539Z" fill="var(--fill-0, #417EE9)"/>
<path id="Highlight" d="M2.28539 0.0293435C1.02456 0.0293435 0.00245693 1.05145 0.00245693 2.31227V2.69276C0.00245693 1.43193 1.02456 0.409832 2.28539 0.409832H15.6025L15.222 0.0293435H2.28539Z" fill="var(--fill-0, #639AF6)"/>
<path id="Fold" d="M15.2219 0.0293435L24.3536 9.16106H17.5048C16.244 9.16106 15.2219 8.13896 15.2219 6.87813V0.0293435Z" fill="var(--fill-0, #A6C5FA)"/>
<g id="Icon">
<path d="M18.2665 16.7708H6.09089V18.2928H18.2665V16.7708Z" fill="var(--fill-0, white)"/>
<path d="M18.2665 19.8147H6.09089V21.3367H18.2665V19.8147Z" fill="var(--fill-0, white)"/>
<path d="M6.09089 22.8586H18.2665V24.3806H6.09089V22.8586Z" fill="var(--fill-0, white)"/>
<path d="M15.2226 25.9026H6.09089V27.4245H15.2226V25.9026Z" fill="var(--fill-0, white)"/>
</g>
</g>
</svg>
