<svg preserveAspectRatio="none" width="100%" height="100%" overflow="visible" style="display: block;" viewBox="0 0 13.5 13.5" fill="none" xmlns="http://www.w3.org/2000/svg">
<path id="Vector" d="M11.7162 1.78383C11.295 1.3627 10.724 1.12577 10.1283 1.12498C9.53271 1.12419 8.96108 1.3596 8.53875 1.77961L7.71961 2.63812C7.61485 2.73604 7.47664 2.79025 7.33324 2.78967C7.18984 2.78909 7.05208 2.73377 6.94811 2.63501C6.84414 2.53625 6.78182 2.4015 6.77388 2.25833C6.76594 2.11515 6.81298 1.97434 6.90539 1.86469L7.72945 1.00055C7.73232 0.997326 7.73537 0.994274 7.73859 0.991406C8.37327 0.366985 9.22897 0.0186498 10.1193 0.0222752C11.0096 0.0259006 11.8625 0.381193 12.4921 1.01076C13.1216 1.64033 13.4769 2.49317 13.4805 3.3835C13.4842 4.27384 13.1358 5.12954 12.5114 5.76422C12.5085 5.76744 12.5055 5.77049 12.5023 5.77336L11.6381 6.59742C11.5285 6.68983 11.3877 6.73687 11.2445 6.72893C11.1013 6.72099 10.9666 6.65867 10.8678 6.5547C10.769 6.45073 10.7137 6.31297 10.7131 6.16957C10.7126 6.02617 10.7668 5.88797 10.8647 5.7832L11.7232 4.96406C12.1437 4.54125 12.3791 3.9688 12.3778 3.37249C12.3765 2.77618 12.1385 2.20478 11.7162 1.78383ZM5.78039 10.8619L4.96125 11.7204C4.53726 12.1322 3.96827 12.3606 3.37724 12.3563C2.78621 12.3519 2.22062 12.1152 1.80269 11.6973C1.38476 11.2794 1.14806 10.7138 1.14374 10.1228C1.13942 9.53173 1.36783 8.96274 1.77961 8.53875L2.63812 7.71961C2.73604 7.61485 2.79025 7.47664 2.78967 7.33324C2.78909 7.18984 2.73377 7.05208 2.63501 6.94811C2.53625 6.84414 2.4015 6.78182 2.25833 6.77388C2.11515 6.76594 1.97434 6.81298 1.86469 6.90539L0.997734 7.72945C0.994514 7.73232 0.991462 7.73537 0.988594 7.73859C0.364173 8.37327 0.0158373 9.22897 0.0194626 10.1193C0.023088 11.0096 0.378381 11.8625 1.00795 12.4921C1.63752 13.1216 2.49036 13.4769 3.38069 13.4805C4.27103 13.4842 5.12673 13.1358 5.76141 12.5114C5.76463 12.5085 5.76768 12.5055 5.77055 12.5023L6.59461 11.6381C6.65063 11.5858 6.69536 11.5225 6.72604 11.4522C6.75672 11.3819 6.7727 11.3061 6.77301 11.2294C6.77332 11.1528 6.75795 11.0768 6.72784 11.0063C6.69773 10.9358 6.65352 10.8722 6.59792 10.8193C6.54232 10.7665 6.47651 10.7256 6.40454 10.6992C6.33256 10.6727 6.25593 10.6613 6.17937 10.6655C6.1028 10.6698 6.02791 10.6896 5.9593 10.7239C5.89069 10.7581 5.82981 10.8061 5.78039 10.8647V10.8619ZM12.9375 8.4375H11.25C11.1008 8.4375 10.9577 8.49676 10.8523 8.60225C10.7468 8.70774 10.6875 8.85082 10.6875 9C10.6875 9.14918 10.7468 9.29226 10.8523 9.39775C10.9577 9.50324 11.1008 9.5625 11.25 9.5625H12.9375C13.0867 9.5625 13.2298 9.50324 13.3352 9.39775C13.4407 9.29226 13.5 9.14918 13.5 9C13.5 8.85082 13.4407 8.70774 13.3352 8.60225C13.2298 8.49676 13.0867 8.4375 12.9375 8.4375ZM0.5625 5.0625H2.25C2.39918 5.0625 2.54226 5.00324 2.64775 4.89775C2.75324 4.79226 2.8125 4.64918 2.8125 4.5C2.8125 4.35082 2.75324 4.20774 2.64775 4.10225C2.54226 3.99676 2.39918 3.9375 2.25 3.9375H0.5625C0.413316 3.9375 0.270242 3.99676 0.164753 4.10225C0.0592633 4.20774 0 4.35082 0 4.5C0 4.64918 0.0592633 4.79226 0.164753 4.89775C0.270242 5.00324 0.413316 5.0625 0.5625 5.0625ZM9 10.6875C8.85082 10.6875 8.70774 10.7468 8.60225 10.8523C8.49676 10.9577 8.4375 11.1008 8.4375 11.25V12.9375C8.4375 13.0867 8.49676 13.2298 8.60225 13.3352C8.70774 13.4407 8.85082 13.5 9 13.5C9.14918 13.5 9.29226 13.4407 9.39775 13.3352C9.50324 13.2298 9.5625 13.0867 9.5625 12.9375V11.25C9.5625 11.1008 9.50324 10.9577 9.39775 10.8523C9.29226 10.7468 9.14918 10.6875 9 10.6875ZM4.5 2.8125C4.64918 2.8125 4.79226 2.75324 4.89775 2.64775C5.00324 2.54226 5.0625 2.39918 5.0625 2.25V0.5625C5.0625 0.413316 5.00324 0.270242 4.89775 0.164753C4.79226 0.0592633 4.64918 0 4.5 0C4.35082 0 4.20774 0.0592633 4.10225 0.164753C3.99676 0.270242 3.9375 0.413316 3.9375 0.5625V2.25C3.9375 2.39918 3.99676 2.54226 4.10225 2.64775C4.20774 2.75324 4.35082 2.8125 4.5 2.8125Z" fill="var(--fill-0, #8794A6)"/>
</svg>
