<svg preserveAspectRatio="none" width="100%" height="100%" overflow="visible" style="display: block;" viewBox="0 0 14.4602 14.4603" fill="none" xmlns="http://www.w3.org/2000/svg">
<path id="Union" fill-rule="evenodd" clip-rule="evenodd" d="M5.86803 0C2.62721 0 0 2.62721 0 5.86803C0 9.10885 2.62721 11.7361 5.86803 11.7361C7.28587 11.7361 8.58627 11.2332 9.60061 10.3961L13.6648 14.4603L14.4602 13.6648L10.3961 9.60061C11.2332 8.58627 11.7361 7.28588 11.7361 5.86803C11.7361 2.62721 9.10885 0 5.86803 0ZM1.125 5.86803C1.125 3.24853 3.24853 1.125 5.86803 1.125C8.48753 1.125 10.6111 3.24853 10.6111 5.86803C10.6111 8.48753 8.48753 10.6111 5.86803 10.6111C3.24853 10.6111 1.125 8.48753 1.125 5.86803Z" fill="var(--fill-0, #8D8D8D)"/>
</svg>
