<svg preserveAspectRatio="none" width="100%" height="100%" overflow="visible" style="display: block;" viewBox="0 0 30.1873 30.1872" fill="none" xmlns="http://www.w3.org/2000/svg">
<g id="g-calendar">
<g id="Vector">
</g>
<path id="Vector_2" d="M27.9116 5.02358e-05H23.0043V7.11096H30.1849V2.00515C30.1869 2.00515 29.8301 0.193967 27.9116 5.02358e-05Z" fill="var(--fill-0, #1967D2)"/>
<path id="Vector_3" d="M23.0063 30.1542V30.1717V30.1872L30.1869 23.0763H30.1225L23.0063 30.1542Z" fill="var(--fill-0, #1967D2)"/>
<path id="Vector_4" d="M30.1873 23.0765V23.0118L30.1226 23.0765H30.1873Z" fill="var(--fill-0, #FBBC05)"/>
<path id="Vector_5" d="M30.1869 7.1108H23.0063V23.0119H30.1869V7.1108Z" fill="var(--fill-0, #FBBC05)"/>
<path id="Vector_6" d="M30.1225 23.0763H23.0063V30.1542L30.1225 23.0763Z" fill="var(--fill-0, #EA4335)"/>
<path id="Vector_7" d="M23.0063 23.0762H30.1225L30.1869 23.0118H23.0063V23.0762Z" fill="var(--fill-0, #EA4335)"/>
<path id="Vector_8" d="M22.9885 30.1721H23.0066V30.1541L22.9885 30.1721Z" fill="var(--fill-0, #34A853)"/>
<path id="Vector_9" d="M7.0194 23.0118V30.1712H22.989L23.0066 23.0118H7.0194Z" fill="var(--fill-0, #34A853)"/>
<path id="Vector_10" d="M23.0061 23.0758V23.0118L22.9885 30.1712L23.0061 30.1538V23.0758Z" fill="var(--fill-0, #34A853)"/>
<path id="Vector_11" d="M6.06179e-05 23.0118V27.9897C0.0643993 29.605 1.81129 30.1712 1.81129 30.1712H7.01883V23.0118H6.06179e-05Z" fill="var(--fill-0, #188038)"/>
<path id="Vector_12" d="M7.01876 7.11108H23.0059V0.000170022H2.014C2.014 0.000170022 0.128677 0.194086 0 2.19724V23.0122H7.01876V7.11108Z" fill="var(--fill-0, #4285F4)"/>
<g id="31">
<path d="M12.2497 19.7934C11.884 19.7934 11.5313 19.7458 11.1917 19.6505C10.8607 19.5552 10.556 19.4123 10.2773 19.2217C9.99861 19.0225 9.75042 18.7757 9.53271 18.4812C9.3237 18.1867 9.1626 17.8445 9.04939 17.4548L10.6561 16.8181C10.7693 17.2512 10.9609 17.5804 11.2309 17.8056C11.5008 18.0221 11.8405 18.1304 12.2497 18.1304C12.4326 18.1304 12.6068 18.1044 12.7723 18.0524C12.9377 17.9918 13.0814 17.9095 13.2033 17.8056C13.3252 17.7016 13.421 17.5804 13.4907 17.4418C13.5691 17.2945 13.6083 17.13 13.6083 16.9481C13.6083 16.567 13.4646 16.2681 13.1772 16.0516C12.8985 15.835 12.511 15.7268 12.0146 15.7268H11.2439V14.1807H11.9493C12.1235 14.1807 12.2933 14.159 12.4588 14.1157C12.6242 14.0724 12.7679 14.0074 12.8898 13.9208C13.0204 13.8256 13.1206 13.7086 13.1903 13.57C13.2686 13.4228 13.3078 13.2539 13.3078 13.0633C13.3078 12.7688 13.2033 12.5306 12.9943 12.3488C12.7853 12.1582 12.5023 12.0629 12.1452 12.0629C11.7621 12.0629 11.466 12.1669 11.257 12.3747C11.0567 12.574 10.9174 12.7992 10.839 13.0503L9.27145 12.4137C9.34983 12.1972 9.46739 11.9763 9.62415 11.7511C9.7809 11.5172 9.97684 11.3094 10.212 11.1275C10.4558 10.9369 10.7388 10.7853 11.061 10.6727C11.3833 10.5515 11.7534 10.4908 12.1714 10.4908C12.5981 10.4908 12.9856 10.5515 13.334 10.6727C13.691 10.794 13.9958 10.9629 14.2483 11.1794C14.5009 11.3873 14.6968 11.6385 14.8362 11.933C14.9755 12.2188 15.0452 12.5306 15.0452 12.8684C15.0452 13.1283 15.0103 13.3622 14.9407 13.57C14.8797 13.7779 14.797 13.9641 14.6925 14.1287C14.588 14.2933 14.4661 14.4362 14.3267 14.5575C14.1961 14.6701 14.0611 14.761 13.9218 14.8303V14.9342C14.3398 15.0988 14.6838 15.363 14.9537 15.7268C15.2324 16.0906 15.3717 16.5496 15.3717 17.104C15.3717 17.4937 15.2977 17.8532 15.1497 18.1823C15.0016 18.5028 14.7883 18.7843 14.5096 19.0268C14.2396 19.2694 13.9131 19.4556 13.5299 19.5855C13.1467 19.7241 12.72 19.7934 12.2497 19.7934Z" fill="var(--fill-0, #4285F4)"/>
<path d="M18.4912 19.5855V12.6995L16.9106 13.3622L16.2836 11.92L18.9092 10.6987H20.2024V19.5855H18.4912Z" fill="var(--fill-0, #4285F4)"/>
</g>
</g>
</svg>
