<svg preserveAspectRatio="none" width="100%" height="100%" overflow="visible" style="display: block;" viewBox="0 0 33.25 34.25" fill="none" xmlns="http://www.w3.org/2000/svg">
<g id="Frame 1984078633">
<path d="M0 7C0 3.13401 3.13401 0 7 0H26.25C30.116 0 33.25 3.13401 33.25 7V26.25C33.25 30.116 30.116 33.25 26.25 33.25H7C3.13401 33.25 0 30.116 0 26.25V7Z" fill="var(--fill-0, black)"/>
<g id="Union">
</g>
<g id="IconConsoleSparkle">
</g>
<path id="Union_2" d="M22.1973 18.1445C22.4414 18.1445 22.6604 18.2956 22.748 18.5234L23.4541 20.3584C23.5569 20.6259 23.7686 20.8376 24.0361 20.9404L25.8721 21.6465C26.0998 21.7341 26.2499 21.9532 26.25 22.1973C26.25 22.4413 26.0998 22.6603 25.8721 22.748L24.0361 23.4541C23.7686 23.5569 23.5569 23.7686 23.4541 24.0361L22.748 25.8721C22.6604 26.0999 22.4414 26.25 22.1973 26.25C21.9532 26.2499 21.7341 26.0999 21.6465 25.8721L20.9404 24.0361C20.8376 23.7686 20.6259 23.5569 20.3584 23.4541L18.5234 22.748C18.2956 22.6604 18.1445 22.4414 18.1445 22.1973C18.1447 21.9532 18.2957 21.7341 18.5234 21.6465L20.3584 20.9404C20.626 20.8376 20.8376 20.626 20.9404 20.3584L21.6465 18.5234C21.7341 18.2956 21.9532 18.1446 22.1973 18.1445ZM22.1982 7.00098C23.8766 7.0014 25.2373 8.36165 25.2373 10.04V15.1055C25.2371 15.6645 24.7836 16.1187 24.2246 16.1191C23.6652 16.1191 23.2112 15.6648 23.2109 15.1055V10.04C23.2109 9.48074 22.7575 9.02679 22.1982 9.02637H10.04C9.48049 9.02637 9.02637 9.48049 9.02637 10.04V22.1982C9.02681 22.7574 9.48075 23.2109 10.04 23.2109H15.1055C15.6648 23.2112 16.1191 23.6652 16.1191 24.2246C16.1187 24.7836 15.6645 25.2371 15.1055 25.2373H10.04C8.36167 25.2373 7.00142 23.8766 7.00098 22.1982V10.04C7.00098 8.36138 8.36138 7.00098 10.04 7.00098H22.1982ZM10.8428 11.3486C11.2384 10.9533 11.8808 10.9532 12.2764 11.3486L13.4375 12.5107C14.0308 13.1041 14.0307 14.0667 13.4375 14.6602L12.2764 15.8213C11.8807 16.217 11.2384 16.217 10.8428 15.8213C10.4475 15.4257 10.4475 14.7843 10.8428 14.3887L11.6455 13.585L10.8428 12.7822C10.4472 12.3866 10.4471 11.7443 10.8428 11.3486ZM17.1318 14.0928C17.6912 14.093 18.1455 14.5461 18.1455 15.1055C18.1454 15.6648 17.6911 16.1179 17.1318 16.1182H15.6123C15.0528 16.1182 14.5997 15.6649 14.5996 15.1055C14.5996 14.5459 15.0528 14.0928 15.6123 14.0928H17.1318Z" fill="var(--fill-0, white)"/>
<g id="Mask group" filter="url(#filter0_d_0_3922)">
<mask id="mask0_0_3922" style="mask-type:alpha" maskUnits="userSpaceOnUse" x="7" y="7" width="20" height="20">
<path id="Union_3" d="M22.1973 18.1445C22.4414 18.1445 22.6604 18.2956 22.748 18.5234L23.4541 20.3584C23.5569 20.6259 23.7686 20.8376 24.0361 20.9404L25.8721 21.6465C26.0998 21.7341 26.2499 21.9532 26.25 22.1973C26.25 22.4413 26.0998 22.6603 25.8721 22.748L24.0361 23.4541C23.7686 23.5569 23.5569 23.7686 23.4541 24.0361L22.748 25.8721C22.6604 26.0999 22.4414 26.25 22.1973 26.25C21.9532 26.2499 21.7341 26.0999 21.6465 25.8721L20.9404 24.0361C20.8376 23.7686 20.6259 23.5569 20.3584 23.4541L18.5234 22.748C18.2956 22.6604 18.1445 22.4414 18.1445 22.1973C18.1447 21.9532 18.2957 21.7341 18.5234 21.6465L20.3584 20.9404C20.626 20.8376 20.8376 20.626 20.9404 20.3584L21.6465 18.5234C21.7341 18.2956 21.9532 18.1446 22.1973 18.1445ZM22.1982 7.00098C23.8766 7.0014 25.2373 8.36165 25.2373 10.04V15.1055C25.2371 15.6645 24.7836 16.1187 24.2246 16.1191C23.6652 16.1191 23.2112 15.6648 23.2109 15.1055V10.04C23.2109 9.48074 22.7575 9.02679 22.1982 9.02637H10.04C9.48049 9.02637 9.02637 9.48049 9.02637 10.04V22.1982C9.02681 22.7574 9.48075 23.2109 10.04 23.2109H15.1055C15.6648 23.2112 16.1191 23.6652 16.1191 24.2246C16.1187 24.7836 15.6645 25.2371 15.1055 25.2373H10.04C8.36167 25.2373 7.00142 23.8766 7.00098 22.1982V10.04C7.00098 8.36138 8.36138 7.00098 10.04 7.00098H22.1982ZM10.8428 11.3486C11.2384 10.9533 11.8808 10.9532 12.2764 11.3486L13.4375 12.5107C14.0308 13.1041 14.0307 14.0667 13.4375 14.6602L12.2764 15.8213C11.8807 16.217 11.2384 16.217 10.8428 15.8213C10.4475 15.4257 10.4475 14.7843 10.8428 14.3887L11.6455 13.585L10.8428 12.7822C10.4472 12.3866 10.4471 11.7443 10.8428 11.3486ZM17.1318 14.0928C17.6912 14.093 18.1455 14.5461 18.1455 15.1055C18.1454 15.6648 17.6911 16.1179 17.1318 16.1182H15.6123C15.0528 16.1182 14.5997 15.6649 14.5996 15.1055C14.5996 14.5459 15.0528 14.0928 15.6123 14.0928H17.1318Z" fill="var(--fill-0, white)"/>
</mask>
<g mask="url(#mask0_0_3922)">
<g id="Ellipse 552" filter="url(#filter1_f_0_3922)">
<circle cx="12.125" cy="24.125" r="6.5" fill="var(--fill-0, #97DCFF)"/>
</g>
<g id="Ellipse 553" filter="url(#filter2_f_0_3922)">
<ellipse cx="6.625" cy="14.625" rx="4" ry="8" fill="var(--fill-0, #C8C7FF)"/>
</g>
<g id="Ellipse 554" filter="url(#filter3_f_0_3922)">
<circle cx="24.125" cy="19.125" r="3.5" fill="var(--fill-0, #FFF3B0)"/>
</g>
<g id="Ellipse 555" filter="url(#filter4_f_0_3922)">
<path d="M29.625 11.875C29.625 14.7745 26.6029 17.125 22.875 17.125C19.1471 17.125 16.125 14.7745 16.125 11.875C16.125 8.97551 19.1471 6.625 22.875 6.625C26.6029 6.625 29.625 8.97551 29.625 11.875Z" fill="var(--fill-0, #C6FFC8)"/>
</g>
</g>
</g>
</g>
<defs>
<filter id="filter0_d_0_3922" x="3.00098" y="7.00098" width="27.249" height="27.249" filterUnits="userSpaceOnUse" color-interpolation-filters="sRGB">
<feFlood flood-opacity="0" result="BackgroundImageFix"/>
<feColorMatrix in="SourceAlpha" type="matrix" values="0 0 0 0 0 0 0 0 0 0 0 0 0 0 0 0 0 0 127 0" result="hardAlpha"/>
<feOffset dy="4"/>
<feGaussianBlur stdDeviation="2"/>
<feComposite in2="hardAlpha" operator="out"/>
<feColorMatrix type="matrix" values="0 0 0 0 1 0 0 0 0 1 0 0 0 0 1 0 0 0 0.1 0"/>
<feBlend mode="normal" in2="BackgroundImageFix" result="effect1_dropShadow_0_3922"/>
<feBlend mode="normal" in="SourceGraphic" in2="effect1_dropShadow_0_3922" result="shape"/>
</filter>
<filter id="filter1_f_0_3922" x="2.125" y="14.125" width="20" height="20" filterUnits="userSpaceOnUse" color-interpolation-filters="sRGB">
<feFlood flood-opacity="0" result="BackgroundImageFix"/>
<feBlend mode="normal" in="SourceGraphic" in2="BackgroundImageFix" result="shape"/>
<feGaussianBlur stdDeviation="1.75" result="effect1_foregroundBlur_0_3922"/>
</filter>
<filter id="filter2_f_0_3922" x="-0.875" y="3.125" width="15" height="23" filterUnits="userSpaceOnUse" color-interpolation-filters="sRGB">
<feFlood flood-opacity="0" result="BackgroundImageFix"/>
<feBlend mode="normal" in="SourceGraphic" in2="BackgroundImageFix" result="shape"/>
<feGaussianBlur stdDeviation="1.75" result="effect1_foregroundBlur_0_3922"/>
</filter>
<filter id="filter3_f_0_3922" x="17.125" y="12.125" width="14" height="14" filterUnits="userSpaceOnUse" color-interpolation-filters="sRGB">
<feFlood flood-opacity="0" result="BackgroundImageFix"/>
<feBlend mode="normal" in="SourceGraphic" in2="BackgroundImageFix" result="shape"/>
<feGaussianBlur stdDeviation="1.75" result="effect1_foregroundBlur_0_3922"/>
</filter>
<filter id="filter4_f_0_3922" x="12.625" y="3.125" width="20.5" height="17.5" filterUnits="userSpaceOnUse" color-interpolation-filters="sRGB">
<feFlood flood-opacity="0" result="BackgroundImageFix"/>
<feBlend mode="normal" in="SourceGraphic" in2="BackgroundImageFix" result="shape"/>
<feGaussianBlur stdDeviation="1.75" result="effect1_foregroundBlur_0_3922"/>
</filter>
</defs>
</svg>
