<svg preserveAspectRatio="none" width="100%" height="100%" overflow="visible" style="display: block;" viewBox="0 0 30.1875 30.1875" fill="none" xmlns="http://www.w3.org/2000/svg">
<g id="open-ai" clip-path="url(#clip0_0_4261)">
<path id="Vector" d="M28.0267 12.3531C28.3643 11.3367 28.481 10.2599 28.3691 9.19467C28.2573 8.12949 27.9194 7.10043 27.3781 6.17626C26.5756 4.77936 25.3502 3.6734 23.8786 3.01784C22.407 2.36227 20.7652 2.19095 19.19 2.5286C18.295 1.53312 17.1539 0.790643 15.8812 0.375742C14.6086 -0.0391588 13.2491 -0.111877 11.9394 0.164891C10.6297 0.441659 9.41593 1.05817 8.41991 1.9525C7.42389 2.84683 6.68074 3.9875 6.26507 5.25994C5.21564 5.47514 4.22422 5.91185 3.35708 6.54089C2.48994 7.16993 1.76704 7.9768 1.23671 8.9076C0.425469 10.3022 0.0787482 11.9186 0.246679 13.5232C0.414609 15.1278 1.08849 16.6374 2.17089 17.8338C1.83212 18.8498 1.71421 19.9264 1.82506 20.9916C1.9359 22.0568 2.27294 23.0861 2.81363 24.0105C3.61718 25.4079 4.84364 26.5141 6.31628 27.1697C7.78891 27.8253 9.43166 27.9964 11.0078 27.6583C11.7188 28.459 12.5924 29.0987 13.5703 29.5349C14.5483 29.971 15.608 30.1935 16.6788 30.1875C18.2933 30.189 19.8666 29.6774 21.1715 28.7266C22.4764 27.7757 23.4454 26.4348 23.9386 24.8974C24.9879 24.6818 25.9792 24.245 26.8463 23.6159C27.7134 22.9869 28.4363 22.1802 28.967 21.2496C29.7686 19.8571 30.1094 18.2468 29.9405 16.6489C29.7716 15.051 29.1018 13.5473 28.0267 12.3531ZM16.6788 28.2117C15.3564 28.2138 14.0756 27.7504 13.0608 26.9026L13.2393 26.8015L19.2495 23.3322C19.3991 23.2445 19.5233 23.1193 19.6099 22.9691C19.6965 22.8188 19.7425 22.6487 19.7434 22.4752V14.0015L22.2842 15.4714C22.2968 15.4777 22.3076 15.487 22.3159 15.4983C22.3242 15.5097 22.3297 15.5229 22.332 15.5368V22.5586C22.3288 24.057 21.7322 25.493 20.6727 26.5525C19.6132 27.612 18.1771 28.2086 16.6788 28.2117ZM4.5274 23.0228C3.86425 21.8777 3.62615 20.5354 3.85498 19.2321L4.03359 19.3393L10.0497 22.8086C10.1986 22.8959 10.368 22.942 10.5406 22.942C10.7132 22.942 10.8827 22.8959 11.0316 22.8086L18.3807 18.5716V21.5053C18.38 21.5205 18.3759 21.5354 18.3687 21.5488C18.3614 21.5622 18.3513 21.5738 18.3389 21.5827L12.2514 25.0936C10.9522 25.842 9.40916 26.0443 7.96099 25.6561C6.51283 25.2678 5.27792 24.3207 4.5274 23.0228ZM2.94457 9.9312C3.61232 8.77876 4.66631 7.89975 5.91993 7.44979V14.5906C5.91767 14.7632 5.96175 14.9331 6.04757 15.0828C6.13339 15.2325 6.2578 15.3564 6.40783 15.4416L13.7213 19.6606L11.1804 21.1304C11.1666 21.1377 11.1513 21.1415 11.1357 21.1415C11.1201 21.1415 11.1048 21.1377 11.091 21.1304L5.01544 17.6255C3.71871 16.8738 2.77269 15.639 2.38455 14.1913C1.99641 12.7436 2.19779 11.2011 2.94457 9.90152V9.9312ZM23.8196 14.7811L16.4824 10.5204L19.0174 9.05627C19.0312 9.04897 19.0465 9.04515 19.0621 9.04515C19.0776 9.04515 19.093 9.04897 19.1067 9.05627L25.1823 12.5672C26.1113 13.1032 26.8686 13.8924 27.3658 14.8427C27.8631 15.793 28.0797 16.8651 27.9905 17.9339C27.9013 19.0027 27.5099 20.0241 26.862 20.8788C26.2141 21.7334 25.3364 22.3862 24.3314 22.7608V15.6199C24.3261 15.4477 24.2762 15.2798 24.1864 15.1327C24.0967 14.9856 23.9704 14.8645 23.8196 14.7811ZM26.3487 10.9786L26.1701 10.8714L20.1659 7.37244C20.0161 7.28454 19.8456 7.23821 19.672 7.23821C19.4983 7.23821 19.3278 7.28454 19.178 7.37244L11.835 11.6093V8.67566C11.8335 8.66074 11.836 8.64568 11.8423 8.63206C11.8485 8.61845 11.8584 8.60678 11.8708 8.5983L17.9464 5.09328C18.8776 4.55684 19.9422 4.29663 21.0158 4.34307C22.0895 4.3895 23.1277 4.74068 24.0091 5.35551C24.8905 5.97035 25.5786 6.82342 25.9929 7.81497C26.4072 8.80652 26.5307 9.89555 26.3488 10.9547L26.3487 10.9786ZM10.4483 16.1793L7.90752 14.7154C7.89481 14.7078 7.88394 14.6974 7.87568 14.6851C7.86742 14.6728 7.86197 14.6588 7.85973 14.6441V7.64022C7.86113 6.56577 8.16837 5.51391 8.74554 4.60764C9.32272 3.70136 10.146 2.97812 11.119 2.52248C12.0921 2.06684 13.1748 1.89763 14.2404 2.03463C15.3061 2.17163 16.3108 2.60918 17.137 3.29612L16.9584 3.39737L10.9483 6.86642C10.7987 6.95415 10.6745 7.07928 10.5879 7.22952C10.5013 7.37977 10.4553 7.54995 10.4543 7.72337L10.4483 16.1793ZM11.8289 13.204L15.1017 11.3176L18.3807 13.204V16.9767L15.1137 18.8631L11.8349 16.9767L11.8289 13.204Z" fill="var(--fill-0, black)"/>
</g>
<defs>
<clipPath id="clip0_0_4261">
<rect width="30.1875" height="30.1875" fill="white"/>
</clipPath>
</defs>
</svg>
