<svg preserveAspectRatio="none" width="100%" height="100%" overflow="visible" style="display: block;" viewBox="0 0 24.7569 33.6938" fill="none" xmlns="http://www.w3.org/2000/svg">
<g id="Slides">
<path id="Page" d="M2.35486 0C1.0861 0 0.0575562 1.02854 0.0575562 2.29731V31.3965C0.0575562 32.6653 1.0861 33.6938 2.35486 33.6938H22.2649C23.5336 33.6938 24.5622 32.6653 24.5622 31.3965V9.18922L15.3729 0H2.35486Z" fill="var(--fill-0, #F4B70A)"/>
<path id="Shadow" d="M2.35486 33.6938C1.0861 33.6938 0.0575562 32.6653 0.0575562 31.3965V31.0136C0.0575562 32.2824 1.0861 33.3109 2.35486 33.3109H22.2649C23.5336 33.3109 24.5622 32.2824 24.5622 31.0136V31.3965C24.5622 32.6653 23.5336 33.6938 22.2649 33.6938H2.35486Z" fill="var(--fill-0, #EFA904)"/>
<path id="Highlight" d="M2.35486 0C1.0861 0 0.0575562 1.02854 0.0575562 2.29731V2.68019C0.0575562 1.41142 1.0861 0.382884 2.35486 0.382884H15.7558L15.3729 0H2.35486Z" fill="var(--fill-0, #F6C028)"/>
<path id="Fold" d="M15.3732 0L24.5625 9.18923H17.6705C16.4018 9.18923 15.3732 8.16069 15.3732 6.89192V0Z" fill="var(--fill-0, #FADC87)"/>
<path id="Icon" fill-rule="evenodd" clip-rule="evenodd" d="M6.94943 15.3155C6.52651 15.3155 6.18366 15.6584 6.18366 16.0813V26.8021C6.18366 27.225 6.52651 27.5678 6.94943 27.5678H17.6702C18.0931 27.5678 18.436 27.225 18.436 26.8021V16.0813C18.436 15.6584 18.0931 15.3155 17.6702 15.3155H6.94943ZM16.9044 18.7615H7.7152V24.1219H16.9044V18.7615Z" fill="var(--fill-0, white)"/>
</g>
</svg>
