<svg preserveAspectRatio="none" width="100%" height="100%" overflow="visible" style="display: block;" viewBox="0 0 24.5044 33.6937" fill="none" xmlns="http://www.w3.org/2000/svg">
<g id="Sheets">
<path id="Page" d="M2.29729 0C1.02853 0 0 1.02853 0 2.29729V31.3963C0 32.665 1.02853 33.6935 2.29729 33.6935H22.2071C23.4759 33.6935 24.5044 32.665 24.5044 31.3963V9.18915L15.3153 0H2.29729Z" fill="var(--fill-0, #20A464)"/>
<path id="Shadow" d="M2.29729 33.6937C1.02853 33.6937 0 32.6651 0 31.3964V31.0135C0 32.2822 1.02853 33.3108 2.29729 33.3108H22.2071C23.4759 33.3108 24.5044 32.2822 24.5044 31.0135V31.3964C24.5044 32.6651 23.4759 33.6937 22.2071 33.6937H2.29729Z" fill="var(--fill-0, #149456)"/>
<path id="Highlight" d="M2.29729 0C1.02853 0 0 1.02853 0 2.29729V2.68017C0 1.41141 1.02853 0.382881 2.29729 0.382881H15.6981L15.3152 0H2.29729Z" fill="var(--fill-0, #38AE74)"/>
<path id="Fold" d="M15.3149 0L24.504 9.18915H17.6121C16.3434 9.18915 15.3149 8.16062 15.3149 6.89186V0Z" fill="var(--fill-0, #8ED1B1)"/>
<path id="Icon" fill-rule="evenodd" clip-rule="evenodd" d="M18.3775 16.4642V27.5677H6.12529V16.4642H18.3775ZM11.4856 17.9957H7.65681V19.9101H11.4856V17.9957ZM13.0171 19.9101V17.9957H16.846V19.9101H13.0171ZM11.4856 21.0587H7.65681V22.9731H11.4856V21.0587ZM13.0171 22.9731V21.0587H16.846V22.9731H13.0171ZM11.4856 24.1218H7.65681V26.0362H11.4856V24.1218ZM13.0171 26.0362V24.1218H16.846V26.0362H13.0171Z" fill="var(--fill-0, white)"/>
</g>
</svg>
