<svg preserveAspectRatio="none" width="100%" height="100%" overflow="visible" style="display: block;" viewBox="0 0 34.2125 31.1021" fill="none" xmlns="http://www.w3.org/2000/svg">
<g id="g-drive">
<g id="Vector">
</g>
<g id="Vector_2">
</g>
<g id="Vector_3">
</g>
<path id="Vector_4" d="M17.1094 10.0319L11.7273 0.533739C11.906 0.351797 12.1116 0.232458 12.3172 0.152246C10.7301 0.674598 10.0018 2.45686 10.0018 2.45686L0.169624 19.804C0.0312775 20.3479 -0.00715538 20.8389 0.010138 21.2713H10.7416L17.1094 10.0319Z" fill="var(--fill-0, #34A853)"/>
<g id="Vector_5">
</g>
<g id="Vector_6">
</g>
<g id="Vector_7">
</g>
<g id="Vector_8">
</g>
<path id="Vector_9" d="M17.1093 10.0319L23.4771 21.2713H34.2086C34.2258 20.8389 34.1874 20.3479 34.0491 19.804L24.2169 2.45686C24.2169 2.45686 23.4867 0.674598 21.9015 0.152246C22.1051 0.232458 22.3127 0.351797 22.4914 0.533739L17.1093 10.0319Z" fill="var(--fill-0, #FBBC05)"/>
<path id="Vector_10" d="M17.1093 10.0323L22.4914 0.534122C22.3127 0.352179 22.1052 0.23284 21.9015 0.152628C21.6671 0.0763298 21.4153 0.0254642 21.1425 0.0117696H20.8581H13.3605H13.0761C12.8052 0.0235079 12.5516 0.0743735 12.3171 0.152628C12.1135 0.23284 11.9059 0.352179 11.7272 0.534122L17.1093 10.0323Z" fill="var(--fill-0, #188038)"/>
<g id="Vector_11">
</g>
<g id="Vector_12">
</g>
<g id="Vector_13">
</g>
<path id="Vector_14" d="M10.7435 21.2713L5.42287 30.6619C5.42287 30.6619 5.24609 30.5759 5.0059 30.3978C5.76105 30.9789 6.49505 31.1021 6.49505 31.1021H27.3912C28.5441 31.1021 28.7842 30.6619 28.7842 30.6619C28.7881 30.66 28.79 30.658 28.7939 30.6561L23.4771 21.2713H10.7435Z" fill="var(--fill-0, #4285F4)"/>
<g id="Vector_15">
</g>
<g id="Vector_16">
</g>
<path id="Vector_17" d="M10.7438 21.2713H0.0123392C0.0661407 22.5469 0.619528 23.2923 0.619528 23.2923L1.02304 23.9927C1.05186 24.0337 1.06915 24.0572 1.06915 24.0572L1.94727 25.5988L3.91871 29.0303C3.97635 29.1692 4.04361 29.2964 4.1147 29.4177C4.14161 29.4588 4.16658 29.5038 4.1954 29.5429C4.20309 29.5546 4.21077 29.5664 4.21846 29.5781C4.46249 29.9224 4.73534 30.1885 5.00819 30.3978C5.24838 30.5778 5.42516 30.6619 5.42516 30.6619L10.7438 21.2713Z" fill="var(--fill-0, #1967D2)"/>
<path id="Vector_18" d="M23.4771 21.2713H34.2085C34.1547 22.5469 33.6013 23.2923 33.6013 23.2923L33.1978 23.9927C33.169 24.0337 33.1517 24.0572 33.1517 24.0572L32.2736 25.5988L30.3022 29.0303C30.2445 29.1692 30.1773 29.2964 30.1062 29.4177C30.0793 29.4588 30.0543 29.5038 30.0255 29.5429C30.0178 29.5546 30.0101 29.5664 30.0024 29.5781C29.7584 29.9224 29.4855 30.1885 29.2127 30.3978C28.9725 30.5778 28.7957 30.6619 28.7957 30.6619L23.4771 21.2713Z" fill="var(--fill-0, #EA4335)"/>
</g>
</svg>
