<svg preserveAspectRatio="none" width="100%" height="100%" overflow="visible" style="display: block;" viewBox="0 0 24 24" fill="none" xmlns="http://www.w3.org/2000/svg">
<g id="&#228;&#186;&#164;&#230;&#152;&#147;&#230;&#184;&#133;&#229;&#141;&#149;_transaction-order 1">
<g id="Group 1321317750">
<path id="Vector" d="M11.7046 10.3078H15.0297" stroke="var(--stroke-0, #455871)" stroke-width="1.3" stroke-linecap="round" stroke-linejoin="round"/>
<path id="Vector_2" d="M11.7046 13.9608H15.0297" stroke="var(--stroke-0, #455871)" stroke-width="1.3" stroke-linecap="round" stroke-linejoin="round"/>
<path id="Subtract" d="M16.1748 3.98412C18.0065 3.98412 19.4911 5.46987 19.4912 7.3015V16.6843C19.4911 18.516 18.0065 20.0007 16.1748 20.0007H7.80762C5.97591 20.0007 4.4903 18.516 4.49023 16.6843V7.3015C4.49037 5.46987 5.97595 3.98412 7.80762 3.98412H8.48926C8.47527 4.11648 8.47262 4.25224 8.48633 4.39037L8.5752 5.2849H7.80762C6.69393 5.2849 5.79115 6.18784 5.79102 7.3015V16.6843C5.79108 17.798 6.69388 18.7009 7.80762 18.7009H16.1748C17.2885 18.7009 18.1913 17.798 18.1914 16.6843V7.3015C18.1913 6.18784 17.2885 5.2849 16.1748 5.2849H14.4092V4.19506C14.4092 4.12382 14.4058 4.05342 14.3984 3.98412H16.1748Z" fill="var(--fill-0, #455871)"/>
<path id="Rectangle 279335635" d="M8.42529 4.2C8.42529 3.53726 8.96255 3 9.62529 3H12.9611C13.6239 3 14.1611 3.53726 14.1611 4.2V5.0703C14.1611 5.73304 13.6239 6.2703 12.9611 6.2703H9.62529C8.96255 6.2703 8.42529 5.73304 8.42529 5.0703V4.2Z" stroke="var(--stroke-0, #455871)" stroke-width="1.3" stroke-linejoin="round"/>
<circle id="Ellipse 2890" cx="8.93438" cy="10.3047" r="0.918708" fill="var(--fill-0, #455871)"/>
<circle id="Ellipse 2891" cx="8.93438" cy="13.9606" r="0.918708" fill="var(--fill-0, #455871)"/>
</g>
</g>
</svg>
