<svg preserveAspectRatio="none" width="100%" height="100%" overflow="visible" style="display: block;" viewBox="0 0 14.6255 14.6255" fill="none" xmlns="http://www.w3.org/2000/svg">
<path id="Vector" d="M9.96067 4.66482C10.013 4.71706 10.0545 4.77909 10.0828 4.84738C10.1111 4.91567 10.1256 4.98886 10.1256 5.06278C10.1256 5.13671 10.1111 5.2099 10.0828 5.27819C10.0545 5.34647 10.013 5.40851 9.96067 5.46075L5.46067 9.96075C5.40841 10.013 5.34636 10.0545 5.27808 10.0828C5.2098 10.111 5.13661 10.1256 5.0627 10.1256C4.98879 10.1256 4.9156 10.111 4.84732 10.0828C4.77904 10.0545 4.71699 10.013 4.66473 9.96075C4.61247 9.90849 4.57101 9.84645 4.54273 9.77816C4.51445 9.70988 4.49989 9.63669 4.49989 9.56278C4.49989 9.48887 4.51445 9.41569 4.54273 9.34741C4.57101 9.27912 4.61247 9.21708 4.66473 9.16482L9.16473 4.66482C9.21697 4.61252 9.27901 4.57103 9.3473 4.54272C9.41558 4.51441 9.48878 4.49984 9.5627 4.49984C9.63662 4.49984 9.70982 4.51441 9.7781 4.54272C9.84639 4.57103 9.90843 4.61252 9.96067 4.66482ZM13.4721 1.15341C13.1064 0.787736 12.6724 0.497666 12.1946 0.299763C11.7169 0.10186 11.2048 0 10.6877 0C10.1706 0 9.65854 0.10186 9.18079 0.299763C8.70305 0.497666 8.26896 0.787736 7.90333 1.15341L5.78973 3.2663C5.68418 3.37185 5.62489 3.515 5.62489 3.66427C5.62489 3.81354 5.68418 3.95669 5.78973 4.06224C5.89528 4.16778 6.03843 4.22708 6.1877 4.22708C6.33697 4.22708 6.48012 4.16778 6.58567 4.06224L8.69926 1.95286C9.22864 1.43512 9.94083 1.14702 10.6813 1.1511C11.4217 1.15518 12.1307 1.4511 12.6544 1.97464C13.178 2.49819 13.474 3.20711 13.4783 3.94757C13.4825 4.68803 13.1945 5.40027 12.6768 5.92974L10.5625 8.04333C10.457 8.14879 10.3977 8.29185 10.3976 8.44105C10.3975 8.59025 10.4567 8.73337 10.5622 8.83892C10.6676 8.94447 10.8107 9.0038 10.9599 9.00386C11.1091 9.00393 11.2522 8.94472 11.3578 8.83927L13.4721 6.72216C13.8377 6.35652 14.1278 5.92244 14.3257 5.44469C14.5236 4.96695 14.6255 4.4549 14.6255 3.93778C14.6255 3.42067 14.5236 2.90862 14.3257 2.43088C14.1278 1.95313 13.8377 1.51905 13.4721 1.15341ZM8.03973 10.5626L5.92614 12.6762C5.66604 12.9422 5.35576 13.1539 5.01328 13.2991C4.6708 13.4443 4.30292 13.5201 3.93093 13.5221C3.55895 13.5242 3.19025 13.4524 2.84619 13.311C2.50213 13.1696 2.18954 12.9613 1.92653 12.6982C1.66352 12.4352 1.4553 12.1226 1.31394 11.7785C1.17257 11.4344 1.10087 11.0657 1.10299 10.6937C1.1051 10.3217 1.18099 9.95384 1.32625 9.61139C1.47152 9.26893 1.68328 8.9587 1.94926 8.69864L4.06215 6.58575C4.1677 6.48021 4.227 6.33705 4.227 6.18778C4.227 6.03852 4.1677 5.89536 4.06215 5.78982C3.95661 5.68427 3.81345 5.62497 3.66419 5.62497C3.51492 5.62497 3.37176 5.68427 3.26622 5.78982L1.15333 7.90341C0.414864 8.64187 0 9.64344 0 10.6878C0 11.7321 0.414864 12.7337 1.15333 13.4722C1.89179 14.2106 2.89336 14.6255 3.9377 14.6255C4.98204 14.6255 5.98361 14.2106 6.72208 13.4722L8.83567 11.3579C8.94112 11.2523 9.00033 11.1092 9.00027 10.96C9.0002 10.8108 8.94087 10.6677 8.83532 10.5623C8.72977 10.4568 8.58665 10.3976 8.43745 10.3977C8.28825 10.3977 8.14519 10.4571 8.03973 10.5626Z" fill="var(--fill-0, #0EC46C)"/>
</svg>
