<svg preserveAspectRatio="none" width="100%" height="100%" overflow="visible" style="display: block;" viewBox="0 0 24 24" fill="none" xmlns="http://www.w3.org/2000/svg">
<g id="link-tanka">
<path id="Vector" d="M21.5 14.5742C21.499 16.1765 20.9 17.7207 19.8202 18.9043C18.7404 20.0879 17.2576 20.8255 15.6625 20.9728C14.0673 21.12 12.4746 20.6662 11.1965 19.7003C9.91839 18.7344 9.0469 17.3259 8.75277 15.7509C9.77877 15.9417 10.8358 15.8799 11.8325 15.5707C12.8293 15.2615 13.7358 14.7142 14.4737 13.9761C15.2116 13.238 15.7588 12.3313 16.068 11.3343C16.3771 10.3374 16.4389 9.28012 16.2481 8.2539C17.7235 8.52859 19.0562 9.3109 20.0154 10.4652C20.9746 11.6196 21.4998 13.0732 21.5 14.5742ZM15.0717 8.1446C15.4664 8.14497 15.8602 8.18156 16.2481 8.2539C16.034 7.10252 15.5096 6.0315 14.7314 5.15644C13.9532 4.28138 12.9509 3.63553 11.8325 3.2886C10.7142 2.94167 9.5224 2.90683 8.38574 3.18785C7.24907 3.46888 6.21073 4.05508 5.38279 4.8832C4.55486 5.71131 3.96878 6.74988 3.68781 7.88679C3.40685 9.0237 3.44168 10.2158 3.78854 11.3343C4.13539 12.4529 4.78111 13.4555 5.65598 14.2338C6.53085 15.0121 7.60164 15.5367 8.75277 15.7509C8.58007 14.8228 8.61377 13.8681 8.85151 12.9546C9.08925 12.0411 9.52517 11.1911 10.1283 10.4651C10.7315 9.73904 11.4871 9.15476 12.3414 8.75371C13.1958 8.35267 14.128 8.14471 15.0717 8.1446Z" fill="var(--fill-0, #35394C)"/>
</g>
</svg>
