<svg preserveAspectRatio="none" width="100%" height="100%" overflow="visible" style="display: block;" viewBox="0 0 24 24" fill="none" xmlns="http://www.w3.org/2000/svg">
<g id="tab/workspace/default">
<path id="Union" d="M9.11035 12.8887C10.2149 12.8887 11.1102 13.7842 11.1104 14.8887V18C11.1104 19.1046 10.2149 20 9.11035 20H6L5.7959 19.9893C4.78723 19.887 4 19.0356 4 18V14.8887C4.00011 13.8531 4.78729 13.0017 5.7959 12.8994L6 12.8887H9.11035ZM18 12.8887C19.1045 12.8887 19.9999 13.7842 20 14.8887V18C20 19.1046 19.1046 20 18 20H14.8887L14.6846 19.9893C13.6759 19.887 12.8887 19.0356 12.8887 18V14.8887C12.8888 13.8531 13.676 13.0017 14.6846 12.8994L14.8887 12.8887H18ZM6 14.1885C5.61347 14.1885 5.29992 14.5022 5.2998 14.8887V18C5.2998 18.3866 5.6134 18.7002 6 18.7002H9.11035C9.49695 18.7002 9.81055 18.3866 9.81055 18V14.8887C9.81043 14.5022 9.49688 14.1885 9.11035 14.1885H6ZM14.8887 14.1885C14.5021 14.1885 14.1886 14.5022 14.1885 14.8887V18C14.1885 18.3866 14.5021 18.7002 14.8887 18.7002H18C18.3866 18.7002 18.7002 18.3866 18.7002 18V14.8887C18.7001 14.5022 18.3865 14.1885 18 14.1885H14.8887ZM16.0264 4.28418C16.1833 3.90558 16.7055 3.90559 16.8623 4.28418L17.0879 4.82715C17.4718 5.75399 18.1876 6.49491 19.0879 6.89551L19.7266 7.17871C20.091 7.3413 20.0912 7.87264 19.7266 8.03516L19.0508 8.33496C18.1729 8.72544 17.4697 9.43957 17.0791 10.3359L16.8594 10.8389C16.699 11.2069 16.1897 11.2069 16.0293 10.8389L15.8105 10.3359C15.4199 9.43951 14.7158 8.72544 13.8379 8.33496L13.1621 8.03516C12.7978 7.87261 12.7978 7.34133 13.1621 7.17871L13.8008 6.89551C14.7012 6.49492 15.4169 5.75405 15.8008 4.82715L16.0264 4.28418ZM9.11035 4C10.2149 4 11.1102 4.89553 11.1104 6V9.11133C11.1104 10.2159 10.2149 11.1113 9.11035 11.1113H6L5.7959 11.1006C4.78723 10.9983 4 10.147 4 9.11133V6C4.00011 4.96444 4.78729 4.113 5.7959 4.01074L6 4H9.11035ZM6 5.2998C5.61347 5.2998 5.29992 5.6135 5.2998 6V9.11133C5.2998 9.49793 5.6134 9.81152 6 9.81152H9.11035C9.49695 9.81152 9.81055 9.49793 9.81055 9.11133V6C9.81043 5.6135 9.49688 5.2998 9.11035 5.2998H6Z" fill="var(--fill-0, #455871)"/>
</g>
</svg>
