<svg preserveAspectRatio="none" width="100%" height="100%" overflow="visible" style="display: block;" viewBox="0 0 24.5249 15.0839" fill="none" xmlns="http://www.w3.org/2000/svg">
<path id="Vector" d="M24.5243 7.49484C24.5266 7.37053 24.4959 7.24782 24.4352 7.13931C24.3745 7.03079 24.286 6.94036 24.1789 6.87729L13.5967 0.167951H13.4397C13.2206 0.0575225 12.9786 0 12.7332 0C12.4878 0 12.2458 0.0575225 12.0267 0.167951L11.8697 0.262154L0.356006 6.91916C0.246157 6.98003 0.154979 7.06968 0.0922746 7.17849C0.0295704 7.2873 -0.00228819 7.41115 0.000127886 7.53671C-0.00203508 7.66488 0.0309711 7.79118 0.0955587 7.9019C0.160146 8.01263 0.253845 8.10353 0.366473 8.16473L11.8802 14.8217L12.0372 14.9159C12.2563 15.0264 12.4983 15.0839 12.7437 15.0839C12.9891 15.0839 13.2311 15.0264 13.4502 14.9159V14.9159L13.6072 14.8217L24.1893 8.12286C24.2961 8.05759 24.3835 7.96493 24.4424 7.8545C24.5013 7.74407 24.5296 7.61989 24.5243 7.49484V7.49484Z" fill="var(--fill-0, #123B6D)"/>
</svg>
