<svg preserveAspectRatio="none" width="100%" height="100%" overflow="visible" style="display: block;" viewBox="0 0 32.2 24.2983" fill="none" xmlns="http://www.w3.org/2000/svg">
<g id="gmail">
<path id="Vector" d="M24.9569 2.17665L16.1939 8.8549L7.23053 2.17665V2.17845L7.24136 2.18748V11.5388L16.0928 18.3615L24.9569 11.8024V2.17665Z" fill="var(--fill-0, #EA4335)"/>
<path id="Vector_2" d="M27.258 0.552263L24.9567 2.1767V11.8024L32.1981 6.37317V3.10263C32.1981 3.10263 31.3191 -1.56853 27.258 0.552263Z" fill="var(--fill-0, #FBBC05)"/>
<path id="Vector_3" d="M24.9567 11.8025V24.2872H30.5069C30.5069 24.2872 32.0862 24.1284 32.1999 22.3703V6.37322L24.9567 11.8025Z" fill="var(--fill-0, #34A853)"/>
<path id="Vector_4" d="M7.24143 24.2983V11.5392L7.23053 11.5302L7.24143 24.2983Z" fill="var(--fill-0, #C5221F)"/>
<path id="Vector_5" d="M7.23063 2.17814L4.94197 0.562721C0.880853 -1.55808 4.27246e-05 3.11129 4.27246e-05 3.11129V6.38183L7.23063 11.5295V2.17814Z" fill="var(--fill-0, #C5221F)"/>
<path id="Vector_6" d="M7.23053 2.17857V11.5299L7.24143 11.539V2.1876L7.23053 2.17857Z" fill="var(--fill-0, #C5221F)"/>
<path id="Vector_7" d="M0.000105208 6.38414V22.3813C0.112012 24.1411 1.69314 24.2981 1.69314 24.2981H7.24333L7.2307 11.53L0.000105208 6.38414Z" fill="var(--fill-0, #4285F4)"/>
</g>
</svg>
