<svg preserveAspectRatio="none" width="100%" height="100%" overflow="visible" style="display: block;" viewBox="0 0 32.2 32.3687" fill="none" xmlns="http://www.w3.org/2000/svg">
<g id="vector">
<path d="M10.2026 13.1793V12.9273C10.2026 12.2882 10.7144 11.7583 11.374 11.7142L16.1787 11.3934L22.8231 21.1779V12.5904L21.1129 12.3624V12.2427C21.1129 11.5961 21.6364 11.0626 22.3044 11.0284L26.6761 10.8045V11.4336C26.6761 11.7289 26.4565 11.9816 26.1555 12.0325L25.1035 12.2104V26.1176L23.7832 26.5717C22.6801 26.951 21.4522 26.545 20.8207 25.5921L14.3701 15.8582V25.1487L16.3556 25.5286L16.328 25.7128C16.2413 26.2897 15.7433 26.726 15.1408 26.7528L10.2026 26.9726C10.1374 26.3522 10.6023 25.7973 11.2437 25.7299L11.8932 25.6616V13.2743L10.2026 13.1793Z" fill="black"/>
<path fill-rule="evenodd" clip-rule="evenodd" d="M21.9021 0.00907193L2.10503 1.3607C0.919203 1.44166 0 2.39501 0 3.54393V22.7992C0 23.8787 0.371605 24.9276 1.05627 25.7805L5.32481 31.0981C6.01495 31.9578 7.10103 32.4313 8.22466 32.3621L30.1971 31.0095C31.3233 30.9402 32.2 30.0372 32.2 28.9466V7.05529C32.2 6.38056 31.8593 5.74829 31.2872 5.36152L24.3316 0.658793C23.6227 0.179528 22.765 -0.0498452 21.9021 0.00907193ZM3.08673 3.84428C2.81138 3.64043 2.94242 3.21574 3.28832 3.19093L22.0352 1.84628C22.6325 1.80344 23.2261 1.96792 23.7091 2.31016L27.4705 4.97507C27.6133 5.07625 27.5464 5.29466 27.3696 5.30427L7.51665 6.38399C6.91584 6.41667 6.3228 6.24016 5.84509 5.88648L3.08673 3.84428ZM6.58547 9.76886C6.58547 9.12389 7.10652 8.59114 7.77281 8.55485L28.763 7.41172C29.4123 7.37636 29.959 7.87574 29.959 8.50433V27.4599C29.959 28.1037 29.4398 28.6359 28.7748 28.6738L7.91753 29.8605C7.19487 29.9016 6.58547 29.3463 6.58547 28.6467V9.76886Z" fill="black"/>
</g>
</svg>
