<svg preserveAspectRatio="none" width="100%" height="100%" overflow="visible" style="display: block;" viewBox="0 0 20 19.0486" fill="none" xmlns="http://www.w3.org/2000/svg">
<g id="Group 2">
<path id="Fill-1" d="M8.44445 1.48715L0 19.0486H3.74392L10.001 6.03935L16.2559 19.0486H20L13.3333 5.1845H10.4125L12.1886 1.48715H8.44445Z" fill="var(--fill-0, #1C2948)"/>
<path id="Fill-2" d="M19.9153 0.0344859V0.0268704C19.9134 0.0173509 19.9095 -0.00168798 19.896 0.000215905C19.8864 0.00211979 19.8768 0.0116392 19.871 0.0192548C19.8633 0.0287742 19.8556 0.0382937 19.8479 0.0478131C19.8402 0.0573326 19.8249 0.0725637 19.8249 0.0725637C19.7998 0.101122 19.7729 0.12968 19.7479 0.158239C19.7383 0.169662 19.6786 0.236298 19.6594 0.255337C19.6363 0.272472 19.6113 0.287703 19.5882 0.285799C19.542 0.281992 19.5209 0.30103 19.4978 0.331493C19.4497 0.394321 19.4035 0.457149 19.3516 0.514266C19.3035 0.565671 19.3169 0.491419 19.2842 0.559959C19.2784 0.573287 19.2554 0.577094 19.2419 0.588518C19.1765 0.636115 19.2073 0.577094 19.1457 0.630403C19.0957 0.672289 19.1072 0.697039 19.0553 0.737021C18.9783 0.794138 18.9225 0.876005 18.8321 0.915987C18.7878 0.935026 18.7397 0.952161 18.7282 1.00928C18.7263 1.01499 18.7186 1.0207 18.7128 1.02451C18.6685 1.05307 18.6262 1.09305 18.5781 1.10828C18.4954 1.13303 18.4453 1.20919 18.3645 1.23774C18.3472 1.24346 18.3049 1.27392 18.3241 1.31771C18.3261 1.32342 18.3203 1.33865 18.3126 1.34246C18.2626 1.36721 18.2356 1.41861 18.1952 1.44908C18.1317 1.49858 18.0798 1.5595 18.0259 1.61852C17.9105 1.68897 17.7893 1.7556 17.7046 1.86793C17.7008 1.87364 17.6834 1.87555 17.6757 1.87364C17.6411 1.86412 17.62 1.88887 17.593 1.9022C17.5237 1.94028 17.4641 1.99168 17.3948 2.02786C17.316 2.06784 17.2448 2.07355 17.1928 2.14971C17.1851 2.16113 17.1774 2.17255 17.1678 2.18398C17.162 2.19159 17.1543 2.19921 17.1466 2.20682C17.1216 2.23538 17.0908 2.26584 17.0543 2.27156C17.0466 2.27346 17.037 2.27346 17.0312 2.27917C17.0254 2.28298 17.0235 2.29059 17.0197 2.2944C17.0023 2.31725 16.9716 2.30963 16.9408 2.30583L16.9023 2.37627C16.8811 2.37246 16.858 2.37437 16.8388 2.38769C16.8176 2.40102 16.8003 2.42387 16.7888 2.44671C16.7792 2.46385 16.7715 2.48289 16.7695 2.50193C16.7676 2.52287 16.7657 2.55143 16.7445 2.55904C16.7349 2.56095 16.7253 2.55904 16.7157 2.55904C16.6753 2.55904 16.6618 2.60474 16.631 2.62187C16.5906 2.64472 16.5464 2.61045 16.5079 2.59522C16.4829 2.65805 16.4328 2.70374 16.3732 2.71897C16.3212 2.7323 16.2905 2.76276 16.2693 2.79893C16.2366 2.85415 16.1962 2.86938 16.1365 2.86747C16.0923 2.86557 16.0461 2.86747 16.0326 2.92649C16.0307 2.93601 16.0153 2.94173 16.0057 2.94744C15.9557 2.976 15.8999 2.99313 15.8595 3.03502C15.8518 3.04263 15.8383 3.04454 15.8268 3.04644C15.7883 3.05025 15.7479 3.05025 15.7094 3.05215C15.7056 3.05215 15.7017 3.05596 15.6979 3.05786C15.6959 3.07119 15.694 3.08452 15.6902 3.10927C15.6575 3.10356 15.6267 3.09975 15.5978 3.09213C15.5555 3.08261 15.5247 3.09213 15.5016 3.1245C15.4651 3.174 15.4497 3.17781 15.4073 3.13592C15.3958 3.1245 15.3958 3.09975 15.3881 3.0769C15.3573 3.10356 15.3323 3.12831 15.3035 3.15496C15.3285 3.21208 15.2977 3.24064 15.2477 3.26539C15.2092 3.28443 15.1765 3.30918 15.138 3.33393C15.1284 3.32631 15.113 3.31679 15.0957 3.30727C15.0764 3.40627 14.9995 3.37391 14.9379 3.38152C14.9283 3.4177 14.9398 3.4672 14.8898 3.48433C14.8917 3.48624 14.8936 3.48814 14.8956 3.49005C14.9514 3.49956 14.9918 3.46339 15.0341 3.43864C15.0687 3.49005 15.0764 3.49195 15.0995 3.44435C15.1341 3.3701 15.1996 3.36058 15.2707 3.34535C15.2746 3.3701 15.2765 3.38914 15.2784 3.40437C15.2996 3.38914 15.3188 3.37391 15.3362 3.36058C15.3458 3.37772 15.3573 3.37581 15.3669 3.3701C15.3785 3.36439 15.3881 3.35677 15.3997 3.36248C15.4035 3.37581 15.4054 3.38724 15.4073 3.39675C15.4073 3.40627 15.4073 3.41579 15.4035 3.42341C15.3977 3.43864 15.3843 3.45006 15.3612 3.45958C15.3035 3.48624 15.2438 3.50908 15.1822 3.53003C15.1438 3.54335 15.0976 3.54526 15.0687 3.5681C15.0129 3.6138 14.8994 3.65188 14.8282 3.64616C14.8128 3.64426 14.7994 3.63474 14.7859 3.62713C14.7724 3.61951 14.7532 3.61761 14.7416 3.62903C14.7339 3.63664 14.732 3.64807 14.7224 3.65188C14.707 3.65949 14.6935 3.64045 14.6801 3.63093C14.6512 3.60809 14.6012 3.63474 14.605 3.67091C14.6512 3.66901 14.682 3.72803 14.6608 3.76801C14.6435 3.80038 14.5569 3.82323 14.5242 3.83655C14.4203 3.87653 14.3145 3.89177 14.2048 3.8594C14.201 3.8575 14.1952 3.8575 14.1914 3.8575C14.1875 3.8575 14.1837 3.8613 14.1818 3.86321C14.1644 3.87653 14.151 3.89557 14.1452 3.91842C14.1356 3.91271 14.1279 3.90509 14.124 3.89367C14.1009 3.91652 14.0567 3.91461 14.0355 3.88986C14.0201 3.89367 14.0124 3.9108 14.0105 3.92794C14.0086 3.94317 14.0124 3.96031 14.0086 3.97554C13.9874 4.07644 13.8739 4.12404 13.7893 4.15641C13.6969 4.19258 13.6007 4.21733 13.5141 4.26302C13.4237 4.31253 13.3275 4.32395 13.2217 4.3468C13.2409 4.29539 13.2505 4.26112 13.3044 4.24208C13.3641 4.22114 13.4218 4.2002 13.4795 4.17545C13.4853 4.17354 13.491 4.16973 13.491 4.16593C13.493 4.15641 13.4776 4.1526 13.468 4.1526C13.4583 4.1526 13.4487 4.1545 13.441 4.15831C13.4333 4.16212 13.4237 4.16973 13.4141 4.16593C13.4102 4.16402 13.4064 4.16021 13.4025 4.15831C13.3968 4.1545 13.391 4.1545 13.3852 4.1545C13.3564 4.1545 13.2794 4.14689 13.2986 4.204C13.2794 4.19258 13.2602 4.19829 13.2428 4.20972C13.2275 4.21923 13.2121 4.23447 13.1928 4.23637C13.1832 4.23827 13.1736 4.23637 13.1659 4.24018C13.1505 4.24779 13.1428 4.27445 13.1255 4.27254C13.1159 4.27064 13.1082 4.25922 13.0985 4.25922C13.0774 4.25731 13.0755 4.29158 13.0562 4.30301C13.0466 4.30872 13.0312 4.30681 13.0197 4.30491C12.9773 4.29729 12.9408 4.31633 12.9023 4.33347C12.8619 4.35251 12.8292 4.38297 12.808 4.42105C12.8061 4.42485 12.8042 4.43057 12.8061 4.43437C12.808 4.44009 12.8157 4.44009 12.8215 4.44009H12.8638C12.8638 4.45532 12.8657 4.46864 12.8677 4.48388C12.8696 4.4972 12.8657 4.51053 12.8503 4.51243C12.8427 4.51434 12.833 4.50863 12.8253 4.50863C12.8119 4.50672 12.7965 4.50863 12.7849 4.51624C12.7811 4.52005 12.7753 4.52386 12.7695 4.52005C12.7676 4.51815 12.7657 4.51624 12.7638 4.51434C12.7599 4.51053 12.7522 4.51053 12.7465 4.51434C12.733 4.52195 12.7291 4.52576 12.7137 4.52766C12.6964 4.52957 12.681 4.52957 12.6637 4.53147C12.6579 4.53147 12.6522 4.53147 12.6464 4.53528C12.6406 4.53718 12.6349 4.5429 12.6272 4.5448C12.6156 4.54861 12.6041 4.5429 12.5945 4.5467C12.5887 4.54861 12.5829 4.55432 12.5752 4.55242C12.5714 4.55242 12.5656 4.55051 12.5579 4.55051C12.5541 4.55051 12.5483 4.54861 12.5444 4.54861C12.4963 4.56003 12.4482 4.56574 12.3982 4.57336C12.3713 4.57717 12.3501 4.58288 12.3328 4.61334C12.2943 4.68188 12.2058 4.68759 12.1365 4.63999C12.0884 4.60763 12.025 4.5924 11.9769 4.61334C11.9134 4.63999 11.8441 4.63999 11.7825 4.66665C11.6959 4.70473 11.5921 4.69521 11.5151 4.75613C11.4304 4.82086 11.3496 4.8875 11.2342 4.84942C11.2015 4.8399 11.1842 4.86085 11.1572 4.86846C11.0937 4.88369 11.0302 4.95414 10.961 4.87798C10.9533 4.87036 10.9283 4.86656 10.9225 4.87227C10.8609 4.92177 10.7724 4.89131 10.7109 4.94271C10.6897 4.94842 10.6705 4.95985 10.6474 4.95223C10.6281 4.95033 10.6147 4.95985 10.6031 4.97508C10.5781 4.96937 10.5666 4.97698 10.5627 5.00173C10.53 5.00173 10.4838 4.98841 10.4684 5.00364C10.4511 5.01887 10.4357 5.02458 10.4165 5.02839C10.3857 5.03029 10.353 5.02268 10.3184 5.02648C10.3145 5.02648 10.3087 5.02458 10.3049 5.02648C10.2683 5.03029 10.2337 5.0322 10.1991 5.04171C10.1029 5.05695 10.0144 5.08741 9.94126 5.16737C9.92394 5.18451 9.92971 5.22639 9.88739 5.21878C9.81812 5.1826 9.81812 5.1826 9.80465 5.21687C9.76617 5.22068 9.72385 5.27399 9.69691 5.23972C9.65073 5.1807 9.60456 5.19593 9.55453 5.21878C9.5276 5.2321 9.50066 5.2302 9.47372 5.2321C9.35444 5.24162 9.23515 5.25685 9.11971 5.28732C9.10239 5.29112 9.08508 5.30826 9.07546 5.32349C9.03313 5.39013 8.90807 5.4282 8.84265 5.38632C8.75607 5.3292 8.66564 5.33301 8.57137 5.35966C8.5502 5.36538 8.52327 5.38061 8.50788 5.37299C8.39436 5.32349 8.28469 5.36918 8.1731 5.38251C8.0692 5.39584 7.96338 5.41297 7.86141 5.42059C7.7402 5.43011 7.61706 5.44153 7.4997 5.46438C7.36887 5.48913 7.23803 5.49103 7.1072 5.49865C6.89941 5.50817 6.69162 5.51007 6.4819 5.51388C6.30297 5.51769 6.12404 5.5215 5.94511 5.51959C5.79888 5.51769 5.65266 5.50626 5.50643 5.49865C5.3679 5.49103 5.22745 5.48913 5.08892 5.47771C4.92923 5.46438 4.76954 5.44915 4.60985 5.4282C4.48479 5.41107 4.3578 5.39584 4.23659 5.35966C4.08267 5.31207 3.92298 5.28541 3.76521 5.25495C3.63246 5.2302 3.5074 5.19403 3.38426 5.13881C3.27651 5.08931 3.16685 5.04362 3.05333 5.00744C2.9148 4.96366 2.77435 4.93129 2.64352 4.86275C2.59349 4.8361 2.53962 4.80944 2.48767 4.78279C2.21447 4.6419 1.95665 4.48007 1.69691 4.31633C1.57185 4.23637 1.46218 4.12594 1.30634 4.11071C1.24092 4.105 1.18512 4.12975 1.12548 4.1545C1.08123 4.17164 1.02736 4.17354 0.9908 4.2021C0.917688 4.25731 0.896524 4.39249 0.869588 4.47436C0.85612 4.51243 0.833032 4.55242 0.838804 4.5943C0.850348 4.68759 0.83688 4.77898 0.82726 4.87227C0.81764 4.95985 0.800324 5.05314 0.819564 5.13691C0.833032 5.19974 0.8465 5.26447 0.859968 5.32539C0.852272 5.3749 0.850348 5.4244 0.85612 5.47771C0.863816 5.53673 0.88498 5.58052 0.935004 5.60907C0.981181 5.63573 1.03505 5.65667 1.02158 5.72521C1.02158 5.72902 1.02543 5.73473 1.02736 5.73854C1.08892 5.82802 1.11971 5.93654 1.21206 6.00318C1.22553 6.0127 1.23515 6.02983 1.24284 6.04316C1.24669 6.04887 1.24284 6.05649 1.24284 6.06982C1.22553 6.0622 1.21206 6.05649 1.18897 6.04697C1.20052 6.09647 1.20436 6.14026 1.21976 6.17834C1.23707 6.22022 1.26401 6.2583 1.28902 6.30019C1.36598 6.27353 1.40831 6.31351 1.44102 6.37634C1.44871 6.38967 1.46218 6.40109 1.47372 6.41252C1.48334 6.39919 1.48912 6.39157 1.49874 6.38015C1.49296 6.44679 1.50643 6.5039 1.55646 6.56673C1.59879 6.61814 1.60071 6.68858 1.65266 6.73618C1.6642 6.7457 1.65651 6.77425 1.65843 6.7952C1.65266 6.7971 1.64881 6.79901 1.64304 6.80091C1.63149 6.78758 1.62187 6.77235 1.60841 6.76093C1.58147 6.73808 1.55453 6.71523 1.52567 6.69239C1.49681 6.72856 1.49489 6.7457 1.53337 6.78949C1.61418 6.88278 1.68921 6.97987 1.78734 7.05793C1.83929 7.09982 1.86815 7.17407 1.90663 7.23309C1.92394 7.25975 1.93741 7.29021 1.95857 7.31686C1.97781 7.33971 1.99321 7.36446 2.01052 7.38731C2.02207 7.40063 2.03361 7.41587 2.04708 7.42729C2.08748 7.46346 2.12211 7.51106 2.18561 7.50535C2.18945 7.50535 2.19523 7.50916 2.19715 7.51296C2.22793 7.54533 2.26834 7.57008 2.28373 7.61768C2.2972 7.66147 2.33183 7.68812 2.37993 7.69954C2.42033 7.71097 2.45689 7.73191 2.49537 7.74905C2.54347 7.77189 2.58387 7.80997 2.64352 7.79664C2.65314 7.79474 2.66468 7.80616 2.67623 7.81187C2.70701 7.83091 2.73587 7.85376 2.76858 7.8728C2.86863 7.93182 2.96867 7.98894 3.06872 8.04796C3.12259 8.07842 3.17647 8.11269 3.23034 8.14125C3.28614 8.17171 3.32846 8.22311 3.3958 8.23835C3.46892 8.25548 3.5401 8.28023 3.62091 8.30498C3.61899 8.35258 3.66709 8.35258 3.70557 8.364C3.71904 8.36781 3.73443 8.36971 3.74982 8.37162C3.77676 8.37352 3.796 8.38685 3.81331 8.4116C3.81716 8.41731 3.82293 8.42112 3.82678 8.43064C3.83448 8.42873 3.84217 8.42683 3.84794 8.42493C3.9326 8.45729 4.0211 8.48395 4.11153 8.50489C4.20581 8.52774 4.30586 8.54487 4.39051 8.60389C4.41745 8.62293 4.45785 8.62484 4.49248 8.63435C4.60215 8.66101 4.71567 8.66862 4.82534 8.7048C4.93116 8.74097 5.04082 8.79428 5.15242 8.79047C5.34097 8.78286 5.51413 8.79238 5.69883 8.81142C5.82967 8.82474 5.95857 8.85711 6.09133 8.86282C6.1452 8.86473 6.201 8.89138 6.25102 8.87234C6.31067 8.84949 6.37223 8.85901 6.42995 8.85901C6.61466 8.85711 6.79167 8.94278 6.98214 8.91232C7.08604 8.89519 7.19763 8.91423 7.30345 8.91423C7.492 8.91423 7.6517 8.92375 7.84025 8.91803C7.94222 8.91423 8.05766 8.90471 8.15194 8.87805C8.26353 8.84759 8.40013 8.87234 8.51557 8.86472C8.68104 8.85521 8.84265 8.81332 9.00427 8.78857C9.02351 8.78476 9.03313 8.7562 9.06006 8.76763C9.13125 8.79809 9.20629 8.77524 9.27363 8.76572C9.41216 8.74668 9.54491 8.70289 9.68729 8.7048C9.72577 8.7048 9.78734 8.7048 9.80273 8.69528C9.90278 8.63626 10.0009 8.59057 10.1202 8.59818C10.1548 8.60008 10.1818 8.57724 10.2125 8.56581C10.2703 8.54297 10.3453 8.53535 10.4165 8.52583C10.4319 8.52393 10.4453 8.52202 10.4607 8.51631C10.607 8.49727 10.7397 8.47252 10.8917 8.44777C10.9494 8.43825 10.9995 8.38494 11.0533 8.39827C11.1688 8.42683 11.263 8.35639 11.3689 8.34116C11.4554 8.32973 11.5382 8.30498 11.6228 8.28404C11.6652 8.27452 11.7075 8.265 11.7517 8.25929C11.7864 8.25548 11.8306 8.26119 11.8633 8.24786C11.8845 8.24025 11.9018 8.22311 11.923 8.22311C11.9307 8.22311 11.9403 8.22502 11.948 8.22121C11.9538 8.21931 11.9557 8.21359 11.9595 8.20979C11.9692 8.19836 11.9807 8.19075 11.9961 8.18884C12.0192 8.18313 12.025 8.16409 12.0461 8.15457C12.0731 8.14315 12.1135 8.14315 12.1423 8.13554C12.2039 8.1165 12.2597 8.08984 12.3212 8.0708C12.4386 8.03463 12.556 8.00036 12.6753 7.9718C12.7099 7.96228 12.7445 7.95276 12.7811 7.94515C12.8446 7.93182 12.8927 7.85186 12.9331 7.80616C12.9389 7.81759 12.9408 7.83282 12.9465 7.84424C12.9523 7.85566 12.9658 7.86709 12.9793 7.86328C13.0043 7.85566 12.9946 7.81378 13.0139 7.79664C13.0351 7.78903 13.0581 7.77951 13.0793 7.78522C13.0889 7.78712 13.0966 7.79284 13.1062 7.79664C13.1524 7.81568 13.2063 7.79283 13.2525 7.78903C13.3044 7.78522 13.3352 7.76999 13.3833 7.74524C13.4025 7.73572 13.4237 7.73001 13.4449 7.72429C13.4814 7.73572 13.518 7.74333 13.5199 7.68622C13.5449 7.67099 13.568 7.64624 13.5969 7.64052C13.7181 7.61197 13.8374 7.57389 13.9528 7.52439C14.0086 7.49964 14.0817 7.47489 14.1298 7.43681C14.1702 7.40444 14.1606 7.36636 14.1875 7.32257C14.1875 7.34161 14.2106 7.35304 14.2299 7.34923C14.2491 7.34542 14.2626 7.33019 14.276 7.31496C14.2799 7.31115 14.2837 7.30734 14.2876 7.30925C14.2914 7.31115 14.2933 7.31305 14.2933 7.31686C14.303 7.334 14.328 7.33781 14.3453 7.32829C14.3626 7.31877 14.3742 7.30163 14.3799 7.28259C14.4434 7.29211 14.4877 7.30925 14.5454 7.27688C14.5877 7.25403 14.6397 7.24832 14.6801 7.22548C14.7263 7.20073 14.757 7.1398 14.7801 7.09601C14.782 7.11315 14.7917 7.13028 14.8051 7.1417C14.8071 7.14361 14.8128 7.14551 14.8128 7.14551C14.8167 7.14551 14.8186 7.1398 14.8186 7.1398C14.8378 7.10934 14.8513 7.07507 14.8571 7.0408C14.8648 6.99701 14.9744 7.04461 15.011 7.01034C15.0495 6.97416 15.0937 6.9437 15.138 6.91705C15.1765 6.8942 15.24 6.88278 15.2707 6.85231C15.3131 6.80852 15.3073 6.70571 15.3958 6.72856C15.4362 6.73808 15.4785 6.70952 15.4862 6.68668C15.517 6.59148 15.619 6.63527 15.6767 6.58006C15.7133 6.54579 15.7902 6.5534 15.7979 6.47344C15.7998 6.4544 15.8172 6.43346 15.8326 6.42013C15.8653 6.39348 15.8826 6.44679 15.8845 6.46963C15.9422 6.4525 15.9903 6.403 16.0538 6.38967C16.0711 6.38586 16.0884 6.38396 16.1038 6.37634C16.1192 6.36873 16.1327 6.3573 16.1462 6.34398L16.2154 6.28115C16.2751 6.22593 16.3232 6.14787 16.4001 6.12693C16.4732 6.10789 16.5637 5.96129 16.6195 6.01651C16.6272 6.02412 16.6368 6.01651 16.6368 6.00889C16.6329 5.93083 16.6541 5.87943 16.7484 5.90227C16.7618 5.84516 16.8292 5.82993 16.8503 5.78233C16.8869 5.70236 17.0062 5.70427 17.0293 5.61479C17.037 5.58813 17.0504 5.55005 17.0793 5.55577C17.1139 5.50055 17.1909 5.45486 17.2101 5.40536C17.2409 5.32539 17.2794 5.32159 17.339 5.36538C17.3621 5.33872 17.339 5.29684 17.3718 5.28161C17.4372 5.24734 17.4814 5.15404 17.5449 5.12929C17.593 5.11026 17.6046 5.13691 17.6392 5.09312C17.6546 5.07408 17.6488 5.06075 17.6757 5.04362C17.6969 5.03029 17.7258 5.00173 17.745 4.98269C17.7527 4.97508 17.7566 4.96556 17.7431 4.94462C17.7431 4.8875 17.77 4.88369 17.82 4.85513C17.8239 4.85323 17.8258 4.84752 17.8277 4.84371C17.8354 4.79992 17.8662 4.76946 17.8874 4.73328C17.9201 4.71044 17.9547 4.6895 17.9894 4.66855C18.0259 4.64761 18.0721 4.65142 18.074 4.60192C18.0779 4.54099 18.1086 4.50482 18.1606 4.48007C18.1914 4.46674 18.2145 4.4477 18.2145 4.41343C18.2125 4.3468 18.2645 4.30301 18.2799 4.2516C18.2895 4.22114 18.3087 4.204 18.3318 4.18877C18.3261 4.20972 18.3222 4.22875 18.3145 4.2516C18.3241 4.22114 18.3819 4.19258 18.3992 4.15831C18.4069 4.14118 18.4261 4.11833 18.43 4.10119C18.4338 4.08215 18.4184 4.06121 18.4242 4.04408C18.43 4.02694 18.4473 4.03456 18.455 4.02504C18.4646 4.01361 18.4569 3.99458 18.4665 3.98125C18.4992 3.93556 18.5127 3.91652 18.5088 3.8594C18.5492 3.8594 18.5666 3.81942 18.5839 3.78705C18.5993 3.75469 18.5935 3.71661 18.6108 3.68424C18.6416 3.62903 18.6358 3.55859 18.5781 3.52241C18.5339 3.59476 18.4857 3.65949 18.4261 3.72232C18.4011 3.74707 18.3665 3.77563 18.3549 3.8099C18.3434 3.84417 18.3588 3.84798 18.3241 3.86702C18.2934 3.88225 18.2683 3.89748 18.2453 3.92223C18.2279 3.94127 18.1991 3.9565 18.1837 3.97554C18.1741 3.98886 18.1798 4.0041 18.1721 4.01742C18.1587 4.04217 18.1529 4.04408 18.1471 4.03646C18.1394 4.02694 18.1375 4.00219 18.1221 3.99838C18.1125 3.99648 18.1086 4.00981 18.1086 4.01933C18.1067 4.04027 18.1048 4.05931 18.0971 4.08025C18.0875 4.11262 18.0586 4.12785 18.0259 4.12785C17.9663 4.12785 18.0201 4.06692 18.0355 4.04598C18.0605 4.0079 18.0836 3.96792 18.1067 3.92794C18.124 3.90129 18.1452 3.87082 18.176 3.87082C18.1895 3.87082 18.2068 3.87463 18.2183 3.86702C18.226 3.86321 18.2299 3.85559 18.2337 3.84798C18.2529 3.81371 18.2722 3.77753 18.2914 3.74326C18.2991 3.72994 18.3068 3.7147 18.3184 3.70328C18.328 3.69376 18.3395 3.68424 18.353 3.67663C18.3934 3.64997 18.43 3.61761 18.4646 3.58524C18.4761 3.57382 18.4877 3.56239 18.4934 3.54716C18.5011 3.53003 18.5011 3.51289 18.5069 3.49576C18.5262 3.44435 18.5858 3.46529 18.5666 3.39485C18.5646 3.38914 18.5646 3.38152 18.5743 3.37772H18.5954V3.32821C18.6031 3.33773 18.6127 3.34725 18.6204 3.35677C18.6224 3.35868 18.6262 3.36248 18.6301 3.36248C18.6339 3.36439 18.6397 3.36058 18.6435 3.35868C18.6493 3.35487 18.6531 3.35297 18.6589 3.34916C18.6705 3.34154 18.6782 3.33202 18.6782 3.3187C18.6782 3.31298 18.6743 3.30918 18.6705 3.30918C18.6724 3.30156 18.7532 3.19494 18.7609 3.19304C18.7647 3.19304 18.7667 3.19113 18.7724 3.18352C18.7763 3.16638 18.7686 3.14925 18.7763 3.13402C18.7801 3.12831 18.784 3.1264 18.7878 3.12069C18.7936 3.11117 18.7917 3.10165 18.7955 3.09213C18.7994 3.08452 18.8051 3.07881 18.809 3.07309C18.8244 3.05215 18.8148 3.00836 18.8128 2.98551V2.97028C18.8148 2.96648 18.8167 2.96076 18.8186 2.95696C18.8244 2.93792 18.8051 2.91697 18.8128 2.89984C18.8148 2.89413 18.8205 2.89032 18.8244 2.88651C18.8455 2.86557 18.8436 2.83511 18.8475 2.80845C18.8475 2.80464 18.8494 2.79893 18.8475 2.79513C18.8455 2.79132 18.8417 2.78751 18.8321 2.79322C18.8186 2.80845 18.8051 2.82178 18.7917 2.83701C18.7801 2.85034 18.7686 2.86367 18.7647 2.8808C18.7609 2.89222 18.7609 2.90745 18.7513 2.91317C18.7474 2.91507 18.6666 3.01598 18.6608 3.01788C18.6454 3.0255 18.6512 3.05596 18.6339 3.05977C18.6281 3.06167 18.6224 3.05786 18.6166 3.05786C18.6012 3.05786 18.5954 3.075 18.5896 3.08832C18.5685 3.13402 18.5185 3.13402 18.4877 3.174C18.4819 3.18161 18.4781 3.19113 18.4742 3.19875C18.4627 3.21969 18.4434 3.23492 18.4203 3.23492C18.403 3.23492 18.3895 3.24825 18.3799 3.26158C18.3953 3.24254 18.4088 3.21969 18.4242 3.19875C18.4338 3.18733 18.453 3.1759 18.453 3.16067C18.453 3.16067 18.453 3.15496 18.455 3.15306C18.4588 3.14925 18.4646 3.15306 18.4704 3.15306C18.4819 3.15306 18.4858 3.13592 18.4896 3.1245C18.4973 3.10927 18.5146 3.10165 18.5242 3.08642C18.5281 3.08071 18.53 3.07309 18.5339 3.06738C18.5377 3.06167 18.5415 3.05596 18.5473 3.05025C18.555 3.04263 18.5627 3.03311 18.5704 3.0255C18.5916 3.00265 18.6127 2.9779 18.6262 2.94934C18.6397 2.92078 18.6397 2.89222 18.6512 2.86367C18.6762 2.80084 18.7262 2.74943 18.7667 2.69803C18.8359 2.60664 18.9206 2.52858 18.986 2.43148C19.011 2.39531 19.0341 2.32296 19.1111 2.36675C19.1072 2.34771 19.1053 2.33248 19.1053 2.32106C19.1053 2.29821 19.113 2.28488 19.1361 2.27536C19.1476 2.26965 19.1611 2.26584 19.1784 2.26013C19.1842 2.21634 19.1919 2.17065 19.1976 2.12686C19.2015 2.10211 19.2073 2.08497 19.2323 2.06974C19.2881 2.03357 19.3092 1.98216 19.3054 1.93076C19.2804 1.95932 19.2554 1.98597 19.2284 2.01643C19.2149 1.98978 19.2053 1.96884 19.1938 1.94599C19.1842 1.9517 19.1745 1.95361 19.1707 1.95741C19.0976 2.04309 19.0245 2.12876 18.9533 2.21444C18.9417 2.22777 18.934 2.2449 18.9206 2.25252C18.8629 2.28298 18.8167 2.33058 18.7955 2.3896C18.759 2.49431 18.6647 2.54572 18.5973 2.62187C18.5896 2.62949 18.5646 2.62949 18.5512 2.62378C18.5473 2.62187 18.5415 2.61616 18.5377 2.61235C18.5262 2.62378 18.5204 2.6371 18.5069 2.64662C18.505 2.64853 18.5031 2.64853 18.4973 2.64281C18.4934 2.63901 18.3222 2.79513 18.2914 2.79132C18.2972 2.75895 18.328 2.7361 18.3511 2.71516C18.3819 2.68851 18.4184 2.66756 18.4434 2.63901C18.4704 2.60854 18.505 2.5857 18.5319 2.55524C18.5358 2.55143 18.5377 2.54572 18.5396 2.54C18.5415 2.5362 18.5454 2.53239 18.5473 2.52668C18.555 2.50383 18.5646 2.48289 18.5781 2.46385C18.6435 2.37627 18.7166 2.2944 18.7859 2.21063C18.8051 2.18778 18.8263 2.16494 18.8494 2.14019C18.8186 2.11924 18.7936 2.17446 18.7724 2.13257C18.8686 1.96884 18.8571 1.98788 18.9379 1.93076C18.9263 1.86222 18.9898 1.83557 19.0264 1.79749C19.0687 1.7537 19.1149 1.71372 19.1515 1.66422C19.188 1.61471 19.2226 1.56521 19.2611 1.51571C19.2669 1.5081 19.2823 1.50619 19.2958 1.50238C19.3054 1.60139 19.2169 1.64327 19.1784 1.72324C19.2342 1.68706 19.3977 1.49667 19.4343 1.42433C19.4035 1.44527 19.3843 1.4586 19.3477 1.48335C19.3535 1.45098 19.3496 1.42813 19.3592 1.4129C19.3823 1.37863 19.4208 1.35007 19.4054 1.30438C19.3881 1.25678 19.4478 1.23203 19.4324 1.19015C19.4285 1.18253 19.4285 1.17301 19.4247 1.15968C19.4093 1.16349 19.3958 1.16349 19.3881 1.17111C19.3381 1.22632 19.2534 1.22442 19.2034 1.28153C19.2015 1.28534 19.1938 1.28725 19.1899 1.28534C19.1822 1.28534 19.1784 1.28725 19.1707 1.29296C19.1553 1.35959 19.0764 1.40148 19.0245 1.43765C19.0206 1.43956 19.0187 1.44336 19.0149 1.44527C18.9571 1.48715 18.9013 1.53475 18.8417 1.57473C18.8282 1.58425 18.8148 1.59187 18.8032 1.60329C18.7763 1.62804 18.7551 1.6585 18.7378 1.69087C18.7224 1.71752 18.7109 1.72324 18.6858 1.74227C18.6743 1.75179 18.6647 1.76322 18.6512 1.77083C18.6377 1.78035 18.6204 1.78606 18.607 1.79368C18.58 1.81081 18.5877 1.86222 18.5531 1.86603C18.5454 1.86603 18.5377 1.86032 18.5339 1.85651C18.5281 1.86793 18.4607 1.9517 18.4607 1.94789C18.4511 1.90411 18.5165 1.86222 18.4973 1.82033C18.455 1.86412 18.4126 1.90982 18.3703 1.95361C18.3241 2.0012 18.278 2.0507 18.2222 2.08878C18.1741 2.12115 18.1106 2.13638 18.0682 2.17636C18.0336 2.20682 18.0009 2.24109 17.9643 2.26775C17.9066 2.30963 17.847 2.34771 17.7893 2.38579C17.7412 2.41816 17.6931 2.45243 17.645 2.48479C17.6392 2.4886 17.6315 2.4905 17.6199 2.4886C17.6373 2.46956 17.6565 2.44862 17.6738 2.42958C17.6873 2.41435 17.7046 2.40102 17.7027 2.37817C17.7027 2.37056 17.7085 2.36104 17.7142 2.35723C17.7489 2.32867 17.7835 2.29821 17.822 2.27727C17.8508 2.26013 17.8739 2.243 17.8835 2.21254C17.8893 2.1954 17.8989 2.18207 17.9162 2.18969C17.9393 2.19921 17.9509 2.18398 17.9643 2.17255C18.0221 2.12686 18.0798 2.08117 18.1356 2.03357C18.1394 2.03738 18.1433 2.03928 18.1452 2.04309C18.1317 2.06022 18.1202 2.07736 18.1067 2.09449C18.1106 2.10211 18.1163 2.11163 18.126 2.12496C18.1356 2.11544 18.1548 2.10401 18.1529 2.0964C18.1452 2.06213 18.1683 2.06213 18.1895 2.05261C18.2106 2.04309 18.2376 2.03738 18.2376 2.00311H18.1991C18.2202 1.9498 18.2703 1.93457 18.3068 1.89459C18.3395 1.86032 18.3472 1.81272 18.3992 1.79749C18.4069 1.79558 18.4165 1.79368 18.4242 1.78797C18.4415 1.77464 18.4492 1.74989 18.4704 1.74037C18.4934 1.73085 18.5108 1.74989 18.5358 1.74608C18.5666 1.74227 18.5935 1.72895 18.607 1.70039C18.6108 1.69277 18.6204 1.68516 18.6301 1.68135C18.6897 1.65279 18.7301 1.60329 18.7744 1.55569C18.7974 1.53094 18.8244 1.51 18.8494 1.49096C18.8532 1.48335 18.8552 1.47763 18.859 1.46811C18.8186 1.47573 18.7878 1.48144 18.7551 1.48715C18.7513 1.48335 18.7474 1.47954 18.7436 1.47573C18.757 1.45669 18.7647 1.42813 18.782 1.42433C18.8167 1.41481 18.8263 1.39006 18.8417 1.3653C18.8532 1.34627 18.8629 1.31961 18.9013 1.32723C18.8956 1.35388 18.8898 1.37482 18.8859 1.39767C18.9148 1.43194 18.936 1.42052 18.9533 1.38815C18.9706 1.35769 18.986 1.32913 19.0302 1.33484C19.0341 1.33484 19.0379 1.33294 19.0418 1.32913C19.0476 1.32342 19.0533 1.31771 19.063 1.31009C19.0283 1.23394 19.1053 1.20728 19.138 1.16159C19.1534 1.14065 19.1919 1.13493 19.2149 1.12541C19.238 1.07972 19.2611 1.03403 19.2842 0.986431C19.24 0.955968 19.2149 1.02451 19.1688 0.992142C19.2053 0.959776 19.24 0.925506 19.2765 0.896948C19.2765 0.902659 19.2804 0.908371 19.3015 0.910275C19.2765 0.973103 19.2765 0.973103 19.2977 1.01118C19.3323 0.988334 19.3689 0.963584 19.4054 0.938833C19.392 0.915987 19.3823 0.900756 19.3727 0.887428C19.3516 0.853158 19.3708 0.839831 19.3804 0.803657C19.3939 0.748444 19.3939 0.809369 19.4497 0.729406C19.4535 0.723694 19.4593 0.714174 19.4651 0.714174C19.5055 0.706559 19.5151 0.674193 19.5266 0.641827C19.5363 0.615172 19.5536 0.588518 19.5728 0.567575C19.5978 0.539017 19.6305 0.546632 19.6594 0.531401C19.6786 0.519978 19.721 0.470477 19.7152 0.445726C19.7036 0.394321 19.6074 0.476188 19.594 0.495227C19.5767 0.518074 19.5651 0.544728 19.544 0.565671C19.5093 0.601845 19.4689 0.632307 19.4285 0.660865C19.4266 0.662769 19.4227 0.662769 19.4189 0.668481C19.4131 0.651346 19.4189 0.607557 19.4247 0.580902C19.4304 0.577094 19.4362 0.573287 19.4458 0.567575C19.4651 0.556152 19.4805 0.535209 19.492 0.514266C19.5055 0.489515 19.5132 0.464765 19.5497 0.466669C19.5574 0.466669 19.567 0.459053 19.5747 0.453342C19.6248 0.411456 19.6767 0.36957 19.7306 0.325781C19.7017 0.27628 19.7306 0.24201 19.7691 0.209644C19.7864 0.194413 19.8018 0.179182 19.821 0.169662C19.8518 0.154431 19.8749 0.131584 19.8941 0.106834C19.896 0.10493 19.896 0.0992182 19.896 0.0992182C19.896 0.0992182 19.896 0.0935065 19.898 0.0916026C19.9191 0.066852 19.9172 0.0516209 19.9153 0.0344859Z" fill="var(--fill-0, #FF3047)"/>
</g>
</svg>
