<svg preserveAspectRatio="none" width="100%" height="100%" overflow="visible" style="display: block;" viewBox="0 0 34.1779 26.2895" fill="none" xmlns="http://www.w3.org/2000/svg">
<g id="Mask group">
<path id="Rectangle 279335636" d="M18.1468 0.978139C18.2616 0.437923 18.7926 0.093076 19.3328 0.207902L21.4113 0.649697C21.9515 0.764524 22.2964 1.29554 22.1815 1.83576L17.1917 25.3113C17.0768 25.8515 16.5458 26.1964 16.0056 26.0815L13.9271 25.6397C13.3869 25.5249 13.0421 24.9939 13.1569 24.4537L18.1468 0.978139Z" fill="url(#paint0_linear_0_4532)"/>
<path id="Union" d="M9.81153 6.0576C10.0876 6.05761 10.3115 6.2815 10.3115 6.5576V11.1787C10.3115 11.4549 10.0877 11.6787 9.81153 11.6787H5.6211V15.4385H9.81153C10.0877 15.4385 10.3115 15.6623 10.3115 15.9385V20.5596C10.3113 20.8356 10.0876 21.0595 9.81153 21.0596H5.19044C4.91438 21.0596 4.69062 20.8356 4.69044 20.5596V16.3691H0.500005C0.223842 16.3691 5.35721e-06 16.1453 5.35721e-06 15.8691V11.248C1.17111e-05 10.9719 0.223847 10.748 0.500005 10.748H4.69044V6.5576C4.69051 6.28149 4.91431 6.0576 5.19044 6.0576H9.81153Z" fill="url(#paint1_linear_0_4532)"/>
<path id="Union_2" d="M24.3664 6.0576C24.0902 6.05761 23.8664 6.2815 23.8664 6.5576V11.1787C23.8664 11.4549 24.0902 11.6787 24.3664 11.6787H28.5568V15.4385H24.3664C24.0902 15.4385 23.8664 15.6623 23.8664 15.9385V20.5596C23.8665 20.8356 24.0903 21.0595 24.3664 21.0596H28.9875C29.2635 21.0596 29.4873 20.8356 29.4875 20.5596V16.3691H33.6779C33.954 16.3691 34.1779 16.1453 34.1779 15.8691V11.248C34.1779 10.9719 33.954 10.748 33.6779 10.748H29.4875V6.5576C29.4874 6.28149 29.2636 6.0576 28.9875 6.0576H24.3664Z" fill="url(#paint2_linear_0_4532)"/>
</g>
<defs>
<linearGradient id="paint0_linear_0_4532" x1="14.3354" y1="25.7296" x2="23.6947" y2="24.4997" gradientUnits="userSpaceOnUse">
<stop stop-color="#8D60FF"/>
<stop offset="1" stop-color="#005EFF"/>
</linearGradient>
<linearGradient id="paint1_linear_0_4532" x1="3.54494" y1="21.0613" x2="11.0163" y2="9.60712" gradientUnits="userSpaceOnUse">
<stop stop-color="#8D60FF"/>
<stop offset="1" stop-color="#005EFF"/>
</linearGradient>
<linearGradient id="paint2_linear_0_4532" x1="30.633" y1="21.0613" x2="23.1616" y2="9.60712" gradientUnits="userSpaceOnUse">
<stop stop-color="#8D60FF"/>
<stop offset="1" stop-color="#005EFF"/>
</linearGradient>
</defs>
</svg>
