<svg preserveAspectRatio="none" width="100%" height="100%" overflow="visible" style="display: block;" viewBox="0 0 25.4561 15.0935" fill="none" xmlns="http://www.w3.org/2000/svg">
<g id="Vector" opacity="0.35" style="mix-blend-mode:multiply">
<path d="M25.1209 0.617552L14.0887 7.32689L13.9317 7.42109C13.7029 7.53069 13.4526 7.5879 13.199 7.58856C12.942 7.58771 12.6883 7.53055 12.4558 7.42109V7.42109C12.4012 7.39359 12.3488 7.3621 12.2988 7.32689L0.366445 0.628017C0.253817 0.566814 0.160118 0.475915 0.0955307 0.365193C0.0309431 0.254471 -0.0020631 0.128165 9.98747e-05 0V13.4815C0.00146233 13.6954 0.0451285 13.907 0.128583 14.104C0.212038 14.301 0.333634 14.4795 0.486372 14.6294C0.639109 14.7792 0.81997 14.8973 1.01855 14.9769C1.21712 15.0566 1.42948 15.0962 1.64342 15.0934H23.8125C24.0264 15.0962 24.2388 15.0566 24.4374 14.9769C24.6359 14.8973 24.8168 14.7792 24.9695 14.6294C25.1223 14.4795 25.2439 14.301 25.3273 14.104C25.4108 13.907 25.4544 13.6954 25.4558 13.4815V0C25.4592 0.123299 25.43 0.245316 25.3712 0.353741C25.3124 0.462167 25.2261 0.553165 25.1209 0.617552V0.617552Z" fill="var(--fill-0, white)"/>
</g>
</svg>
