<svg preserveAspectRatio="none" width="100%" height="100%" overflow="visible" style="display: block;" viewBox="0 0 25.3751 19.4661" fill="none" xmlns="http://www.w3.org/2000/svg">
<g id="Group 1321317692">
<path id="Rectangle 279335636" d="M13.5363 0.427939C13.5866 0.191595 13.8189 0.0407248 14.0552 0.0909614L16.1949 0.545768C16.4313 0.596005 16.5822 0.828325 16.5319 1.06467L12.7115 19.0381C12.6613 19.2745 12.429 19.4253 12.1926 19.3751L10.0529 18.9203C9.8166 18.8701 9.66573 18.6377 9.71597 18.4014L13.5363 0.427939Z" fill="var(--fill-0, white)"/>
<path id="Union" d="M7.28418 4.49741C7.48913 4.49741 7.65514 4.66358 7.65527 4.8685V8.30014C7.65502 8.50496 7.48906 8.67123 7.28418 8.67123H4.17383V11.4622H7.28418C7.48922 11.4622 7.65527 11.6283 7.65527 11.8333V15.264C7.65527 15.469 7.48921 15.6351 7.28418 15.6351H3.85352C3.64848 15.6351 3.48243 15.469 3.48242 15.264V12.1537H0.371094C0.166117 12.1536 0 11.9866 0 11.7816V8.35092C5.20067e-05 8.14597 0.16615 7.9799 0.371094 7.97983H3.48242V4.8685C3.48256 4.66358 3.64856 4.49741 3.85352 4.49741H7.28418Z" fill="var(--fill-0, white)"/>
<path id="Union_2" d="M18.0909 4.49741C17.8859 4.49741 17.7199 4.66358 17.7198 4.8685V8.30014C17.72 8.50496 17.886 8.67123 18.0909 8.67123H21.2012V11.4622H18.0909C17.8858 11.4622 17.7198 11.6283 17.7198 11.8333V15.264C17.7198 15.469 17.8858 15.6351 18.0909 15.6351H21.5215C21.7266 15.6351 21.8926 15.469 21.8926 15.264V12.1537H25.004C25.2089 12.1536 25.3751 11.9866 25.3751 11.7816V8.35092C25.375 8.14598 25.2089 7.9799 25.004 7.97983H21.8926V4.8685C21.8925 4.66358 21.7265 4.49741 21.5215 4.49741H18.0909Z" fill="var(--fill-0, white)"/>
</g>
</svg>
