<svg preserveAspectRatio="none" width="100%" height="100%" overflow="visible" style="display: block;" viewBox="0 0 25.4563 30.1869" fill="none" xmlns="http://www.w3.org/2000/svg">
<g id="Vector" opacity="0.2" style="mix-blend-mode:multiply">
<path d="M25.4557 15.0934V28.5749C25.4544 28.7888 25.4107 29.0004 25.3272 29.1974C25.2438 29.3944 25.1222 29.5729 24.9694 29.7228C24.8167 29.8726 24.6358 29.9907 24.4373 30.0703C24.2387 30.15 24.0263 30.1896 23.8124 30.1868H1.63285C1.4198 30.1882 1.20855 30.1476 1.01119 30.0673C0.813825 29.987 0.634203 29.8687 0.482578 29.719C0.330953 29.5693 0.210296 29.3913 0.127495 29.1949C0.044694 28.9986 0.00137156 28.7879 1.43833e-06 28.5749V15.0934C-0.000254513 15.2198 0.0336539 15.3439 0.0981414 15.4526C0.162629 15.5613 0.255298 15.6506 0.366346 15.7109L1.87359 16.5483V1.57005C1.85362 1.17468 1.99109 0.787498 2.25592 0.493247C2.52074 0.198997 2.89135 0.0216427 3.28663 0H22.1272C22.5225 0.0216427 22.8931 0.198997 23.1579 0.493247C23.4228 0.787498 23.5602 1.17468 23.5403 1.57005V16.5588L25.1208 15.7214C25.2276 15.6561 25.3149 15.5635 25.3738 15.4531C25.4327 15.3426 25.461 15.2184 25.4557 15.0934V15.0934Z" fill="var(--fill-0, white)"/>
</g>
</svg>
