<svg preserveAspectRatio="none" width="100%" height="100%" overflow="visible" style="display: block;" viewBox="0 0 36.9031 24.5" fill="none" xmlns="http://www.w3.org/2000/svg">
<g id="onedrive-1 1">
<path id="Vector" d="M14.1133 6.92105L21.8462 11.5518L26.4538 9.61223C27.3904 9.20769 28.4 8.99966 29.4201 9.00102C29.5905 9.00102 29.7585 9.00907 29.9254 9.01943C29.3717 6.85919 28.2023 4.90632 26.5595 3.3982C24.9166 1.89009 22.8711 0.891669 20.6715 0.524313C18.4718 0.156956 16.2129 0.43648 14.1691 1.32891C12.1254 2.22133 10.3849 3.68823 9.15919 5.5513L9.2766 5.54784C10.9854 5.54561 12.6607 6.02125 14.1133 6.92105Z" fill="var(--fill-0, #0364B8)"/>
<path id="Vector_2" d="M14.1146 6.91967C12.6615 6.02006 10.9857 5.54481 9.27667 5.5476L9.15927 5.55106C7.48678 5.57198 5.85161 6.0482 4.42943 6.92857C3.00725 7.80893 1.85182 9.06016 1.08729 10.5478C0.322748 12.0355 -0.0220012 13.7033 0.0900789 15.3722C0.202159 17.041 0.766832 18.6478 1.72343 20.0199L8.54 17.1503L11.5719 15.8749L18.3205 13.0341L21.8451 11.5515L14.1146 6.91967Z" fill="var(--fill-0, #0078D4)"/>
<path id="Vector_3" d="M29.9259 9.0191C29.7577 9.00734 29.5892 9.00119 29.4206 9.00068C28.4007 8.99985 27.3916 9.20827 26.4555 9.61305L21.8466 11.5514L23.183 12.3514L27.5628 14.9747L29.4735 16.1188L36.0081 20.0324C36.6018 18.9303 36.9096 17.6968 36.903 16.4449C36.8965 15.193 36.5759 13.9628 35.9707 12.8669C35.3655 11.7711 34.495 10.8446 33.4389 10.1723C32.3828 9.50005 31.175 9.10354 29.9259 9.0191Z" fill="var(--fill-0, #1490DF)"/>
<path id="Vector_4" d="M29.4731 16.1192L27.5623 14.975L23.1825 12.3506L21.8473 11.5518L18.3216 13.0343L11.573 15.8751L8.53993 17.1505L1.72106 20.0201C2.56862 21.2386 3.69851 22.2337 5.01422 22.9207C6.32993 23.6076 7.79237 23.9658 9.27661 23.9648H29.4201C30.7709 23.9653 32.0966 23.6 33.2564 22.9077C34.4163 22.2154 35.367 21.2219 36.0076 20.0328L29.4731 16.1192Z" fill="var(--fill-0, #28A8EA)"/>
</g>
</svg>
