<svg preserveAspectRatio="none" width="100%" height="100%" overflow="visible" style="display: block;" viewBox="0 0 22.8593 9.50813" fill="none" xmlns="http://www.w3.org/2000/svg">
<g id="Group 1321317641">
<g id="Vector">
<path d="M6.76092 3.01515C6.76092 2.63171 7.07176 2.32086 7.45521 2.32086C7.83865 2.32086 8.1495 2.63171 8.1495 3.01515V8.64662C8.1495 9.03007 7.83865 9.34091 7.45521 9.34091C7.07176 9.34091 6.76092 9.03007 6.76092 8.64662V3.01515Z" fill="var(--fill-0, #FDFEFE)"/>
<path d="M8.38093 1.00942C8.38093 1.52069 7.96647 1.93515 7.45521 1.93515C6.94395 1.93515 6.52949 1.52069 6.52949 1.00942C6.52949 0.498163 6.94395 0.0837039 7.45521 0.0837039C7.96647 0.0837039 8.38093 0.498163 8.38093 1.00942Z" fill="var(--fill-0, #FDFEFE)"/>
</g>
<path id="Union" d="M11.0883 0.0195462L11.0961 0.0214993C11.4299 0.0898713 11.6809 0.385281 11.681 0.739273C11.681 0.757274 11.6794 0.775308 11.6781 0.792984C11.6803 0.826777 11.6817 0.86159 11.681 0.897476C11.6808 0.942814 11.6803 0.988462 11.6801 1.03517C11.6792 1.17952 11.6771 1.32442 11.6752 1.46876C11.6744 1.56675 11.6738 1.66473 11.6732 1.76271C11.6719 1.94891 11.6706 2.13511 11.6683 2.3213H13.764C14.1474 2.32135 14.4584 2.63222 14.4584 3.01564C14.4582 3.39888 14.1473 3.70993 13.764 3.70998H11.6664V5.56935C11.7011 7.64383 12.6999 7.87506 14.3597 7.87697C14.6284 7.88294 14.8222 7.91392 15.0267 8.09669C15.1981 8.29021 15.2464 8.46139 15.2328 8.71974C15.1978 8.94589 15.1526 9.10984 14.931 9.24025C14.6509 9.45144 13.3774 9.30446 12.848 9.20314C11.8914 9.01301 11.2124 8.5833 10.7279 7.75978C10.1268 6.66025 10.2104 5.14517 10.2152 3.93361C10.2132 3.85597 10.2149 3.78194 10.2142 3.70998H10.0609C9.67767 3.70989 9.36679 3.39886 9.36658 3.01564C9.36658 2.63225 9.67754 2.32139 10.0609 2.3213H10.2133C10.2112 2.10263 10.2095 1.88373 10.2084 1.66505C10.2078 1.57261 10.2074 1.48016 10.2064 1.38771C10.205 1.25435 10.204 1.12069 10.2035 0.98732C10.2029 0.9461 10.2022 0.904788 10.2015 0.86232C10.2015 0.776698 10.2097 0.697619 10.224 0.625015C10.2269 0.606796 10.2315 0.589052 10.2357 0.571304C10.245 0.534781 10.2554 0.499765 10.2679 0.466812C10.2719 0.456912 10.2763 0.447196 10.2806 0.437515C10.4325 0.0802421 10.7784 -0.0542964 11.0883 0.0195462Z" fill="var(--fill-0, #FDFEFE)"/>
<path id="Union_2" d="M1.65332 0.00967854C1.65855 0.0101876 1.66375 0.0110131 1.66895 0.0116317C1.68715 0.0145747 1.70563 0.0160689 1.72363 0.0204207C2.06023 0.0866076 2.31432 0.383199 2.31445 0.739171C2.31445 0.757161 2.3128 0.775216 2.31152 0.792882C2.31375 0.826669 2.31509 0.861494 2.31445 0.897374C2.31424 0.942707 2.3137 0.988366 2.31348 1.03507C2.31262 1.17942 2.31054 1.32432 2.30859 1.46866C2.30783 1.56664 2.30726 1.66463 2.30664 1.76261C2.30534 1.94881 2.30304 2.13501 2.30078 2.3212H4.39746C4.78078 2.32136 5.0918 2.63219 5.0918 3.01554C5.0916 3.39872 4.78066 3.70972 4.39746 3.70987H2.29883V5.56925C2.33353 7.64379 3.3333 7.87497 4.99316 7.87687C5.26158 7.88284 5.45483 7.9141 5.65918 8.09659C5.83064 8.29015 5.87977 8.46126 5.86621 8.71964C5.83127 8.94576 5.7859 9.10974 5.56445 9.24015C5.28454 9.45144 4.01087 9.30437 3.48145 9.20304C2.52474 9.01293 1.84588 8.5832 1.36133 7.75968C0.760225 6.66014 0.843847 5.14507 0.848633 3.93351C0.846594 3.85587 0.848319 3.78184 0.847656 3.70987H0.694336C0.31101 3.70987 0.000194096 3.39882 0 3.01554C1.6761e-08 2.63209 0.31089 2.3212 0.694336 2.3212H0.84668C0.844611 2.10254 0.842904 1.88363 0.841797 1.66495C0.841223 1.5725 0.840835 1.48005 0.839844 1.38761C0.83845 1.25424 0.837419 1.12059 0.836914 0.987218C0.836323 0.945998 0.83557 0.904686 0.834961 0.862218C0.834946 0.772727 0.843796 0.690421 0.859375 0.615147C0.861851 0.600661 0.864851 0.586361 0.868164 0.572179C0.877479 0.535228 0.888633 0.500014 0.901367 0.46671C0.905342 0.456808 0.909673 0.447096 0.914062 0.437413C1.05497 0.106041 1.36223 -0.0308402 1.65332 0.00967854Z" fill="var(--fill-0, #FDFEFE)"/>
<path id="Union_3" d="M22.8567 7.20787C22.8557 7.73018 22.8593 8.25339 22.8593 8.77526C22.8593 9.18001 22.5312 9.50812 22.1265 9.50812C21.7217 9.50812 21.3936 9.18001 21.3936 8.77526C21.3936 7.85404 21.3702 6.92979 21.3741 6.00742C21.3728 5.2946 21.2229 4.69986 20.7178 4.16867C20.2353 3.69826 19.6796 3.49201 19.0139 3.49489C17.729 3.52136 16.7232 4.49639 16.8098 5.83812C16.886 7.01955 17.8103 7.99342 19.0132 8.02818C19.2798 8.03074 19.5081 8.00858 19.7633 7.92627C19.7877 7.92627 19.8174 7.90519 19.8419 7.90858C19.9001 7.89367 19.9612 7.88574 20.0241 7.88574C20.4289 7.88574 20.757 8.21385 20.757 8.6186C20.757 9.09067 20.39 9.27899 19.9839 9.37349C18.5276 9.71239 17.2034 9.07463 16.5549 8.4916C15.9063 7.90858 15.4366 6.9071 15.3977 6.13231C15.3358 4.89801 15.5752 4.16867 16.2859 3.25206C16.8033 2.5849 17.7248 2.14017 18.5495 2.02891C20.8271 1.81228 22.7407 3.26559 22.8471 5.53853C22.8587 6.09494 22.8577 6.65146 22.8567 7.20787Z" fill="var(--fill-0, #FDFEFE)"/>
</g>
</svg>
