<svg preserveAspectRatio="none" width="100%" height="100%" overflow="visible" style="display: block;" viewBox="0 0 25.4466 15.094" fill="none" xmlns="http://www.w3.org/2000/svg">
<path id="Envelope" d="M25.1209 0.617552L14.0887 7.32689L13.9317 7.42109C13.7029 7.53069 13.4526 7.5879 13.199 7.58857C12.942 7.58772 12.6883 7.53055 12.4558 7.42109V7.42109C12.4012 7.39359 12.3488 7.3621 12.2988 7.32689L0.366445 0.628018C0.253817 0.566814 0.160118 0.475915 0.0955307 0.365193C0.0309431 0.254471 -0.0020631 0.128165 9.98747e-05 0V13.4815C0.00146233 13.6954 0.0451285 13.907 0.128583 14.104C0.212038 14.301 0.333634 14.4795 0.486372 14.6294C0.639109 14.7792 0.81997 14.8973 1.01855 14.9769C1.21712 15.0566 1.42948 15.0962 1.64342 15.0934H23.8125C24.0303 15.0993 24.247 15.0604 24.4492 14.9791C24.6514 14.8978 24.8347 14.7759 24.9878 14.6208C25.1409 14.4658 25.2605 14.2809 25.3392 14.0777C25.4179 13.8745 25.454 13.6573 25.4453 13.4396V0C25.4498 0.122299 25.4223 0.243647 25.3653 0.351985C25.3084 0.460322 25.2241 0.551878 25.1209 0.617552Z" fill="url(#paint0_linear_0_4365)"/>
<defs>
<linearGradient id="paint0_linear_0_4365" x1="21.447" y1="-3.37037" x2="3.91475" y2="17.5217" gradientUnits="userSpaceOnUse">
<stop stop-color="#35B8F1"/>
<stop offset="0.9" stop-color="#0F78D1"/>
</linearGradient>
</defs>
</svg>
