<svg preserveAspectRatio="none" width="100%" height="100%" overflow="visible" style="display: block;" viewBox="0 0 37.2313 37.2313" fill="none" xmlns="http://www.w3.org/2000/svg">
<g id="icons8-outlook-calendar 1">
<path id="Vector" d="M21.7182 10.0835H32.9908C33.619 10.0835 34.1286 10.5931 34.1286 11.2213V26.0099C34.1286 26.6382 33.619 27.1478 32.9908 27.1478H21.7182V10.0835Z" fill="var(--fill-0, #1976D2)"/>
<path id="Vector_2" d="M32.5773 13.9291H21.7182V25.9843H32.5773V13.9291Z" fill="var(--fill-0, white)"/>
<path id="Vector_3" d="M20.9426 34.1286L3.1026 30.6382V6.59303L20.9426 3.1026V34.1286Z" fill="var(--fill-0, #1976D2)"/>
<path id="Vector_4" d="M11.8287 12.7982C9.36521 12.7982 7.36869 15.4029 7.36869 18.6156C7.36869 21.8284 9.36521 24.433 11.8287 24.433C14.2921 24.433 16.2887 21.8284 16.2887 18.6156C16.2887 15.4029 14.2921 12.7982 11.8287 12.7982ZM11.6348 22.1061C10.3495 22.1061 9.30781 20.5431 9.30781 18.6156C9.30781 16.6881 10.3495 15.1252 11.6348 15.1252C12.92 15.1252 13.9617 16.6881 13.9617 18.6156C13.9617 20.5431 12.92 22.1061 11.6348 22.1061Z" fill="var(--fill-0, white)"/>
<path id="Vector_5" d="M23.8489 23.0655H21.7547V25.3149H23.8489V23.0655Z" fill="var(--fill-0, #1976D2)"/>
<path id="Vector_6" d="M26.4869 23.0655H24.3927V25.3149H26.4869V23.0655Z" fill="var(--fill-0, #1976D2)"/>
<path id="Vector_7" d="M29.1249 23.0655H27.0307V25.3149H29.1249V23.0655Z" fill="var(--fill-0, #1976D2)"/>
<path id="Vector_8" d="M23.8489 20.2903H21.7547V22.5396H23.8489V20.2903Z" fill="var(--fill-0, #1976D2)"/>
<path id="Vector_9" d="M26.4869 20.2903H24.3927V22.5396H26.4869V20.2903Z" fill="var(--fill-0, #1976D2)"/>
<path id="Vector_10" d="M29.1249 20.2903H27.0307V22.5396H29.1249V20.2903Z" fill="var(--fill-0, #1976D2)"/>
<path id="Vector_11" d="M31.7629 20.2903H29.6687V22.5396H31.7629V20.2903Z" fill="var(--fill-0, #1976D2)"/>
<path id="Vector_12" d="M23.8489 17.6119H21.7547V19.8613H23.8489V17.6119Z" fill="var(--fill-0, #1976D2)"/>
<path id="Vector_13" d="M26.4869 17.6119H24.3927V19.8613H26.4869V17.6119Z" fill="var(--fill-0, #1976D2)"/>
<path id="Vector_14" d="M29.1249 17.6119H27.0307V19.8613H29.1249V17.6119Z" fill="var(--fill-0, #1976D2)"/>
<path id="Vector_15" d="M31.7629 17.6119H29.6687V19.8613H31.7629V17.6119Z" fill="var(--fill-0, #1976D2)"/>
<path id="Vector_16" d="M26.4869 14.8242H24.3927V17.0736H26.4869V14.8242Z" fill="var(--fill-0, #1976D2)"/>
<path id="Vector_17" d="M29.1249 14.8242H27.0307V17.0736H29.1249V14.8242Z" fill="var(--fill-0, #1976D2)"/>
<path id="Vector_18" d="M31.7629 14.8242H29.6687V17.0736H31.7629V14.8242Z" fill="var(--fill-0, #1976D2)"/>
</g>
</svg>
