<svg preserveAspectRatio="none" width="100%" height="100%" overflow="visible" style="display: block;" viewBox="0 0 25.9766 5.19531" fill="none" xmlns="http://www.w3.org/2000/svg">
<path id="Vector" d="M5.44838 5.11951H0.826461C0.520943 5.11951 0.231096 4.97827 0.0900879 4.73711C-0.0705038 4.46149 -0.0117506 4.13076 0.235011 3.91369L3.45077 1.08523H1.14764C0.51311 1.08523 0 0.633911 0 0.0757935H4.25764C4.56315 0.0757935 4.853 0.217045 4.994 0.458206C5.15462 0.73382 5.09585 1.06455 4.84909 1.2816L1.63334 4.11008H4.30073C4.93526 4.11008 5.44838 4.5614 5.44838 5.11951ZM23.7402 0C23.0783 0 22.4828 0.251496 22.0754 0.654581C21.6643 0.251496 21.0688 0 20.4108 0C19.1809 0 18.1782 0.923305 18.1782 2.00164V5.11951C18.8127 5.11951 19.3258 4.66819 19.3258 4.11008V1.9913C19.3258 1.47108 19.7841 1.0301 20.3716 1.00943C20.9905 0.988761 21.5036 1.42629 21.5036 1.96719V4.11008C21.5036 4.66819 22.0167 5.11951 22.6512 5.11951V1.9913C22.6512 1.47108 23.1096 1.0301 23.697 1.00943C24.3159 0.988761 24.8291 1.42629 24.8291 1.96719V4.11008C24.8291 4.66819 25.3422 5.11951 25.9766 5.11951V2.00164C25.9727 0.923305 24.97 0 23.7402 0ZM11.2375 2.59765C11.2375 4.03085 9.91361 5.19531 8.28418 5.19531C6.65477 5.19531 5.33087 4.03085 5.33087 2.59765C5.33087 1.16446 6.65868 0 8.28418 0C9.9097 0 11.2375 1.16446 11.2375 2.59765ZM10.0899 2.59765C10.0899 1.72258 9.27907 1.00943 8.28418 1.00943C7.2893 1.00943 6.4785 1.72258 6.4785 2.59765C6.4785 3.47274 7.2893 4.18588 8.28418 4.18588C9.27907 4.18588 10.0899 3.47274 10.0899 2.59765ZM17.6024 2.59765C17.6024 4.03085 16.2786 5.19531 14.6492 5.19531C13.0196 5.19531 11.6958 4.03085 11.6958 2.59765C11.6958 1.16446 13.0237 0 14.6492 0C16.2745 0 17.6024 1.16446 17.6024 2.59765ZM16.4548 2.59765C16.4548 1.72258 15.644 1.00943 14.6492 1.00943C13.6543 1.00943 12.8434 1.72258 12.8434 2.59765C12.8434 3.47274 13.6543 4.18588 14.6492 4.18588C15.644 4.18588 16.4548 3.47274 16.4548 2.59765Z" fill="var(--fill-0, white)"/>
</svg>
