<svg preserveAspectRatio="none" width="100%" height="100%" overflow="visible" style="display: block;" viewBox="0 0 8.68038 9.19499" fill="none" xmlns="http://www.w3.org/2000/svg">
<path id="Vector" d="M0.53506 2.26424C0.858344 1.57032 1.3837 0.990235 2.04231 0.599994C2.78735 0.1772 3.63556 -0.0294134 4.49158 0.00337563C5.27226 -0.0140541 6.04296 0.181334 6.72105 0.568592C7.35144 0.948072 7.85995 1.50017 8.18642 2.15957C8.53244 2.89157 8.70098 3.69484 8.67837 4.50418C8.69584 5.35462 8.51298 6.19723 8.14456 6.96392C7.80281 7.65678 7.25903 8.22975 6.58498 8.60724C5.88658 9.01233 5.08932 9.21527 4.28224 9.19339C3.48651 9.2148 2.70037 9.01555 2.0109 8.61771C1.36971 8.24518 0.852686 7.69175 0.524592 7.02672C0.162841 6.30658 -0.016853 5.50874 0.00124327 4.70305C-0.0091667 3.86004 0.173431 3.02582 0.53506 2.26424ZM2.13651 6.18936C2.32414 6.60857 2.62047 6.96995 2.9948 7.23606C3.38172 7.50389 3.84316 7.64305 4.31364 7.63381C4.82144 7.65593 5.32219 7.50865 5.73715 7.21513C6.10748 6.95278 6.39453 6.58943 6.56404 6.16843C6.75086 5.66663 6.83969 5.13365 6.82572 4.59838C6.83026 4.08604 6.74888 3.57657 6.58498 3.09114C6.43672 2.64141 6.16022 2.24484 5.78948 1.95023C5.38706 1.64553 4.89126 1.49013 4.38691 1.51062C3.90136 1.4977 3.42446 1.64077 3.0262 1.91883C2.6466 2.182 2.34618 2.54395 2.15744 2.96553C1.94486 3.4831 1.84152 4.039 1.8539 4.59838C1.8439 5.14203 1.93989 5.68242 2.13651 6.18936V6.18936Z" fill="var(--fill-0, white)"/>
</svg>
