<svg width="24" height="24" viewBox="0 0 24 24" fill="none" xmlns="http://www.w3.org/2000/svg">
<path d="M9.51094 12.8891C10.3945 12.8891 11.1109 13.6055 11.1109 14.4891V18.4C11.1109 19.2836 10.3945 19.9999 9.51094 20H5.6C4.71634 20 4 19.2837 4 18.4V14.4891C4.00009 13.6055 4.7164 12.8891 5.6 12.8891H9.51094Z" fill="#35394C"/>
<path d="M18.4 12.8891C19.2835 12.8891 19.9999 13.6055 20 14.4891V18.4C20 19.2836 19.2836 19.9999 18.4 20H14.4891C13.6054 20 12.8891 19.2837 12.8891 18.4V14.4891C12.8891 13.6055 13.6055 12.8891 14.4891 12.8891H18.4Z" fill="#35394C"/>
<path d="M16.0258 4.28438C16.1827 3.90568 16.7065 3.90569 16.8633 4.28438L17.0875 4.82813C17.4715 5.75479 18.1881 6.49475 19.0883 6.89531L19.7266 7.17969C20.0909 7.34234 20.0912 7.87268 19.7266 8.03516L19.0516 8.33594C18.1736 8.72645 17.4695 9.44025 17.0789 10.3367L16.8594 10.8391C16.6989 11.2068 16.1902 11.2068 16.0297 10.8391L15.8109 10.3367C15.4204 9.44035 14.7161 8.7265 13.8383 8.33594L13.1625 8.03516C12.7981 7.87266 12.7983 7.34236 13.1625 7.17969L13.8008 6.89531C14.701 6.49477 15.4177 5.75482 15.8016 4.82813L16.0258 4.28438Z" fill="#35394C"/>
<path d="M9.51094 4C10.3944 4.00008 11.1108 4.71653 11.1109 5.6V9.51172C11.1107 10.3952 10.3944 11.1116 9.51094 11.1117H5.6C4.71646 11.1117 4.00019 10.3952 4 9.51172V5.6C4.00016 4.71648 4.71644 4 5.6 4H9.51094Z" fill="#35394C"/>
</svg>
