<svg width="24" height="24" viewBox="0 0 24 24" fill="none" xmlns="http://www.w3.org/2000/svg">
<path d="M21 14.5742C20.999 16.1765 20.4 17.7207 19.3202 18.9043C18.2404 20.0879 16.7576 20.8255 15.1625 20.9728C13.5673 21.12 11.9746 20.6662 10.6965 19.7003C9.41839 18.7344 8.5469 17.3259 8.25277 15.7509C9.27877 15.9417 10.3358 15.8799 11.3325 15.5707C12.3293 15.2615 13.2358 14.7142 13.9737 13.9761C14.7116 13.238 15.2588 12.3313 15.568 11.3343C15.8771 10.3374 15.9389 9.28012 15.7481 8.2539C17.2235 8.52859 18.5562 9.3109 19.5154 10.4652C20.4746 11.6196 20.9998 13.0732 21 14.5742ZM14.5717 8.1446C14.9664 8.14497 15.3602 8.18156 15.7481 8.2539C15.534 7.10252 15.0096 6.0315 14.2314 5.15644C13.4532 4.28138 12.4509 3.63553 11.3325 3.2886C10.2142 2.94167 9.0224 2.90683 7.88574 3.18785C6.74907 3.46888 5.71073 4.05508 4.88279 4.8832C4.05486 5.71131 3.46878 6.74988 3.18781 7.88679C2.90685 9.0237 2.94168 10.2158 3.28854 11.3343C3.63539 12.4529 4.28111 13.4555 5.15598 14.2338C6.03085 15.0121 7.10164 15.5367 8.25277 15.7509C8.08007 14.8228 8.11377 13.8681 8.35151 12.9546C8.58925 12.0411 9.02517 11.1911 9.62833 10.4651C10.2315 9.73904 10.9871 9.15476 11.8414 8.75371C12.6958 8.35267 13.628 8.14471 14.5717 8.1446Z" fill="#35394C"/>
</svg>
