<svg width="24" height="24" viewBox="0 0 24 24" fill="none" xmlns="http://www.w3.org/2000/svg">
<g clip-path="url(#clip0_59_5096)">
<path d="M5.82218 15.0594C5.805 15.061 5.78903 15.0685 5.77734 15.0805C5.76565 15.0925 5.75907 15.1081 5.75885 15.1244C5.74528 16.5695 5.79278 17.9138 5.75772 19.2386C5.74528 19.682 5.622 20.0116 5.1289 19.9997C4.42432 19.9834 4.49896 19.1736 4.50574 18.6304C4.51592 17.684 4.56229 17.1593 4.51931 16.2801C4.47521 15.3759 4.52045 14.4393 4.52045 13.4158C4.52195 9.53471 4.51743 6.97908 4.50688 5.74897C4.49896 4.90444 4.58265 4.44153 5.31099 4.11195C5.46103 4.04402 5.74188 4.01041 6.15355 4.01113C13.1188 4.02848 17.2916 4.02486 18.6722 4.00029C19.1796 3.99089 19.4484 4.21277 19.4785 4.66594C19.4838 4.74761 19.3922 4.94709 19.2037 5.26437C18.6823 6.14142 18.4991 6.38643 18.0219 7.26565C17.7406 7.78458 17.3836 8.37759 16.9508 9.04469C16.8845 9.14659 16.8487 9.26115 16.8434 9.38835C16.8426 9.422 16.8488 9.45551 16.8615 9.487C16.9429 9.68286 17.1107 9.98498 17.3648 10.3933C17.6106 10.7901 18.0505 11.5887 18.6846 12.7892C18.8263 13.0566 18.9327 13.2467 19.0035 13.3595C19.258 13.7649 19.6414 14.2604 19.4469 14.6723C19.3451 14.8884 19.1611 15.0055 18.895 15.0236C17.9902 15.0843 17.1906 15.0344 16.1829 15.0355C13.0351 15.0391 9.75528 15.0384 6.34355 15.0333C6.19427 15.0333 6.02048 15.042 5.82218 15.0594Z" fill="#35394C"/>
</g>
<defs>
<clipPath id="clip0_59_5096">
<rect width="24" height="24" fill="white"/>
</clipPath>
</defs>
</svg>
