<svg width="24" height="24" viewBox="0 0 24 24" fill="none" xmlns="http://www.w3.org/2000/svg">
<path d="M12.0001 4.94248C13.5698 4.94248 14.4634 4.93552 14.6807 4.92158C14.6963 4.92062 14.711 4.91352 14.7219 4.90167C14.7328 4.88983 14.7392 4.8741 14.7398 4.85753C14.7718 4.28338 14.7775 3.7223 14.757 3.17428C14.7414 2.76741 14.7919 2.48034 14.9083 2.31306C15.2097 1.87917 15.8654 1.89617 16.1668 2.38232C16.2464 2.50953 16.2825 2.72603 16.2751 3.03184C16.2718 3.17298 16.2714 3.78068 16.2739 4.85493C16.2739 4.87516 16.2815 4.89457 16.2951 4.909C16.3086 4.92342 16.3271 4.93169 16.3464 4.93203C16.9148 4.93987 17.616 4.85885 18.0651 4.9817C19.0664 5.25745 19.9227 6.17356 19.9768 7.31184C20.008 7.96964 20.0076 8.66403 19.9756 9.39501C19.9746 9.41269 19.9674 9.42931 19.9552 9.44146C19.9431 9.45362 19.927 9.46038 19.9104 9.46035C19.0066 9.45948 18.3201 9.46077 17.851 9.46426C17.6091 9.46687 15.6588 9.46731 12.0001 9.46557C8.34061 9.4647 6.3899 9.4634 6.14796 9.46166C5.67884 9.4573 4.99238 9.45556 4.08858 9.45643C4.07191 9.45645 4.05586 9.44969 4.04373 9.43754C4.0316 9.42538 4.02432 9.40876 4.02337 9.39108C3.99221 8.66011 3.99221 7.96571 4.02337 7.30792C4.0775 6.16963 4.93497 5.25352 5.93636 4.97777C6.38539 4.85623 7.08661 4.93726 7.65497 4.92942C7.67433 4.92907 7.69279 4.9208 7.70637 4.90638C7.71995 4.89196 7.72756 4.87254 7.72756 4.85232C7.73084 3.77807 7.73084 3.17036 7.72756 3.02922C7.72018 2.72341 7.75626 2.50691 7.83582 2.37971C8.13722 1.89355 8.79292 1.87787 9.09433 2.31175C9.21079 2.47903 9.26122 2.76612 9.24564 3.17299C9.22432 3.721 9.22965 4.28209 9.26163 4.85624C9.26222 4.8728 9.26859 4.88853 9.27951 4.90037C9.29043 4.91221 9.30511 4.91931 9.32068 4.92028C9.53802 4.93422 10.4312 4.94161 12.0001 4.94248Z" fill="#35394C"/>
<path d="M12.0037 11.0014C17.1556 11.0035 19.8026 11.0049 19.9446 11.0056C19.9593 11.0056 19.9734 11.0108 19.9838 11.0199C19.9942 11.029 20 11.0414 20 11.0543C19.9942 13.2861 19.9942 15.864 20 18.7879C20.0025 19.7308 19.4126 20.5162 18.4485 20.8534C18.185 20.9457 17.6994 20.9937 16.9918 20.9972C16.4936 21 14.8292 21.0007 11.9988 20.9993C9.16835 20.9986 7.5044 20.9968 7.00694 20.994C6.29852 20.9898 5.81255 20.9415 5.54904 20.8492C4.58614 20.5109 3.99632 19.7255 4.00002 18.7826C4.00823 15.8587 4.01069 13.2808 4.0074 11.049C4.0074 11.0426 4.00884 11.0363 4.01163 11.0304C4.01441 11.0245 4.01849 11.0191 4.02364 11.0146C4.02878 11.0101 4.03489 11.0065 4.04162 11.0041C4.04834 11.0016 4.05554 11.0004 4.06282 11.0004C4.20483 10.9996 6.85179 11 12.0037 11.0014Z" fill="#35394C"/>
</svg>
