<svg width="24" height="24" viewBox="0 0 24 24" fill="none" xmlns="http://www.w3.org/2000/svg">
<g clip-path="url(#clip0_59_4938)">
<path d="M11.7046 10.3076H15.0297" stroke="#455871" stroke-width="1.3" stroke-linecap="round" stroke-linejoin="round"/>
<path d="M11.7046 13.9609H15.0297" stroke="#455871" stroke-width="1.3" stroke-linecap="round" stroke-linejoin="round"/>
<path d="M16.1748 3.98438C18.0065 3.98438 19.4911 5.47013 19.4912 7.30176V16.6846C19.4911 18.5163 18.0065 20.001 16.1748 20.001H7.80762C5.97591 20.001 4.4903 18.5163 4.49023 16.6846V7.30176C4.49037 5.47013 5.97595 3.98438 7.80762 3.98438H8.48926C8.47527 4.11674 8.47262 4.2525 8.48633 4.39062L8.5752 5.28516H7.80762C6.69393 5.28516 5.79115 6.18809 5.79102 7.30176V16.6846C5.79108 17.7983 6.69388 18.7012 7.80762 18.7012H16.1748C17.2885 18.7012 18.1913 17.7983 18.1914 16.6846V7.30176C18.1913 6.18809 17.2885 5.28516 16.1748 5.28516H14.4092V4.19531C14.4092 4.12407 14.4058 4.05367 14.3984 3.98438H16.1748Z" fill="#455871"/>
<path d="M8.42529 4.2C8.42529 3.53726 8.96255 3 9.62529 3H12.9611C13.6239 3 14.1611 3.53726 14.1611 4.2V5.0703C14.1611 5.73304 13.6239 6.2703 12.9611 6.2703H9.62529C8.96255 6.2703 8.42529 5.73304 8.42529 5.0703V4.2Z" stroke="#455871" stroke-width="1.3" stroke-linejoin="round"/>
<circle cx="8.93433" cy="10.3045" r="0.918708" fill="#455871"/>
<circle cx="8.93433" cy="13.9607" r="0.918708" fill="#455871"/>
</g>
<defs>
<clipPath id="clip0_59_4938">
<rect width="24" height="24" fill="white"/>
</clipPath>
</defs>
</svg>
