<svg width="24" height="24" viewBox="2.5 2.5 19 19" fill="none" xmlns="http://www.w3.org/2000/svg">
<path d="M10.2143 4C13.0133 4 15.3405 6.01275 15.8315 8.66964C18.4878 9.16085 20.5 11.4871 20.5 14.2857C20.5 17.4416 17.9416 20 14.7857 20C11.9871 20 9.66085 17.9878 9.16964 15.3315C6.51275 14.8405 4.5 12.5133 4.5 9.71429C4.5 6.55837 7.05837 4 10.2143 4ZM15.9247 9.85882C15.8491 12.8999 13.3999 15.3491 10.3588 15.4247C10.8649 17.3982 12.6543 18.8571 14.7857 18.8571C17.3104 18.8571 19.3571 16.8104 19.3571 14.2857C19.3571 12.1543 17.8982 10.3649 15.9247 9.85882ZM10.2143 5.14286C7.68956 5.14286 5.64286 7.18956 5.64286 9.71429C5.64286 12.239 7.68956 14.2857 10.2143 14.2857C12.739 14.2857 14.7857 12.239 14.7857 9.71429C14.7857 7.18956 12.739 5.14286 10.2143 5.14286Z" fill="#455871"/>
</svg>
