<svg width="24" height="24" viewBox="0 0 24 24" fill="none" xmlns="http://www.w3.org/2000/svg">
<g clip-path="url(#clip0_59_5079)">
<path d="M13.8434 3.0091L10.17 3.00269C9.31841 3.0012 8.62699 3.60851 8.62568 4.35914L8.62378 5.44565C8.62247 6.19628 9.31177 6.80599 10.1634 6.80748L13.8367 6.81389C14.6883 6.81538 15.3797 6.20808 15.381 5.45745L15.3829 4.37093C15.3843 3.6203 14.695 3.01059 13.8434 3.0091Z" fill="#35394C"/>
<path d="M7.65238 4.96209C7.67058 4.96307 7.68822 4.97059 7.70121 4.9826C7.71409 4.99456 7.7223 5.01056 7.72367 5.02752C7.74272 5.32773 7.70876 5.8602 7.80961 6.21307C8.17276 7.48311 9.3772 7.87907 10.6836 7.85174C11.1266 7.84261 11.9842 7.84316 13.2549 7.8537C13.8769 7.85859 14.3394 7.80966 14.6426 7.70721C15.4285 7.44109 15.9451 6.90802 16.1924 6.1076C16.2899 5.7916 16.2575 5.46489 16.253 5.02459C16.253 5.00861 16.2598 4.99318 16.2715 4.98163C16.2834 4.97003 16.3003 4.96264 16.3174 4.96209C17.8301 4.9179 18.9674 5.31581 19.3965 6.76092C19.5242 7.1896 19.4982 7.8265 19.4971 8.14666C19.4874 10.5103 19.4888 13.8333 19.5 18.1154C19.5015 18.6778 19.4667 19.0662 19.3965 19.2805C19.1523 20.024 18.4892 20.6101 17.7598 20.883C17.5492 20.9623 17.1593 20.9998 16.5909 20.9963C16.0231 20.9935 12.9666 20.9943 7.42192 20.9992C6.81109 20.9999 6.39508 20.9541 6.17387 20.8615C5.47125 20.5687 4.88813 19.9965 4.61918 19.3107C4.53859 19.1043 4.49855 18.7856 4.50004 18.3547C4.51349 15.6975 4.51515 12.3387 4.50395 8.2785C4.50171 7.38596 4.55761 6.7981 4.67192 6.5158C5.18294 5.26479 6.31238 4.90317 7.65238 4.96209ZM8.93559 14.3849C8.81193 14.3591 8.68488 14.3555 8.56156 14.3752C8.4861 14.3872 8.41307 14.4094 8.34379 14.4377C8.3285 14.4439 8.31282 14.4492 8.29789 14.4562C8.26979 14.4695 8.2424 14.4843 8.21586 14.5002C8.20248 14.5082 8.18968 14.517 8.1768 14.5256C8.16488 14.5335 8.15221 14.5405 8.14067 14.549C8.06795 14.6028 8.00532 14.6676 7.95317 14.7394C7.92139 14.7832 7.89461 14.8297 7.87211 14.8781C7.86339 14.8968 7.85588 14.9157 7.84867 14.9348C7.83368 14.9745 7.82023 15.0151 7.81156 15.0568C7.81108 15.0591 7.81007 15.0613 7.80961 15.0637C7.74222 15.4027 7.89529 15.7686 8.22758 15.9816C8.24251 15.9912 8.25822 15.9993 8.27348 16.008C8.28526 16.0147 8.29659 16.0223 8.30863 16.0285L8.31254 16.0305C8.74426 16.2526 9.28436 16.1453 9.55766 15.7687C9.62263 15.6792 9.66563 15.5818 9.69047 15.4816C9.69304 15.4713 9.69709 15.4608 9.69926 15.4504C9.6996 15.4488 9.69991 15.4471 9.70024 15.4455C9.71364 15.3784 9.71743 15.3102 9.71391 15.2424C9.71157 15.1958 9.70652 15.1488 9.69633 15.1027C9.6708 14.9875 9.62061 14.8774 9.54984 14.7785C9.47905 14.6796 9.38851 14.5941 9.28324 14.5265C9.20268 14.4749 9.1148 14.4341 9.0225 14.4064C9.01319 14.4036 9.00354 14.4021 8.99418 14.3996C8.97484 14.3944 8.95525 14.3891 8.93559 14.3849ZM11.9082 14.716C11.7226 14.7154 11.5582 14.8039 11.462 14.9387C11.4346 14.9771 11.4156 15.0199 11.4004 15.0637C11.3865 15.1039 11.3777 15.1457 11.375 15.1896C11.3745 15.1987 11.3721 15.2078 11.3721 15.217V15.2424C11.372 15.2816 11.3784 15.32 11.3877 15.3576C11.4105 15.4499 11.4587 15.5328 11.5274 15.5978L11.6084 15.6613C11.622 15.6699 11.6371 15.6755 11.6514 15.6828C11.6827 15.6989 11.7154 15.7119 11.75 15.7219C11.7998 15.7362 11.8513 15.7461 11.9043 15.7463L15.9248 15.7599C16.1092 15.7606 16.2716 15.6724 16.3682 15.5392C16.3799 15.5231 16.3889 15.5057 16.3985 15.4885C16.4049 15.4769 16.4135 15.4664 16.419 15.4543L16.4512 15.3576C16.4582 15.3254 16.4618 15.2923 16.462 15.259V15.2336C16.4622 15.1665 16.4476 15.101 16.4209 15.0402C16.4104 15.0162 16.3971 14.9938 16.3829 14.9719C16.3612 14.9384 16.3365 14.9064 16.3067 14.8781C16.2621 14.8359 16.2096 14.8033 16.1534 14.7785C16.1165 14.7622 16.078 14.7484 16.0371 14.7404C16.0019 14.7334 15.9653 14.7298 15.9288 14.7297L11.9082 14.716ZM8.73734 10.5392C8.37006 10.5392 8.05026 10.733 7.88871 11.0178C7.86902 11.0525 7.8536 11.0893 7.83891 11.1262C7.79965 11.2247 7.77641 11.3312 7.77641 11.4426C7.77644 11.5279 7.78993 11.6104 7.81352 11.6887C7.82541 11.7281 7.84098 11.7664 7.85844 11.8039C7.91978 11.9354 8.01234 12.051 8.12895 12.1408C8.29982 12.2724 8.51452 12.3449 8.73734 12.3449C8.86336 12.3449 8.9881 12.3218 9.10453 12.2765C9.2209 12.2312 9.32695 12.1649 9.41606 12.0812C9.42722 12.0707 9.43673 12.058 9.44731 12.0471C9.46368 12.0301 9.48018 12.0134 9.49516 11.9953C9.52301 11.9616 9.54786 11.926 9.57035 11.8889C9.57674 11.8784 9.58394 11.8684 9.58988 11.8576C9.60239 11.8349 9.61459 11.812 9.62504 11.7883C9.63488 11.7659 9.64255 11.7428 9.65043 11.7199C9.65912 11.6946 9.66657 11.6689 9.67289 11.6428C9.68877 11.5772 9.69731 11.5101 9.69731 11.4426C9.6973 11.3533 9.68289 11.2649 9.65531 11.1799C9.64944 11.1617 9.64283 11.1438 9.63578 11.1262C9.63196 11.1166 9.62922 11.1063 9.62504 11.0969C9.61917 11.0835 9.61204 11.0708 9.60551 11.0578C9.58681 11.0205 9.56577 10.9846 9.54203 10.9504C9.53133 10.9349 9.51954 10.9203 9.50785 10.9055C9.38689 10.7523 9.21632 10.6363 9.01762 10.5793C9.00532 10.5758 8.99293 10.5726 8.98051 10.5695C8.96242 10.5651 8.94431 10.5603 8.92582 10.5568C8.91773 10.5553 8.90954 10.5542 8.90141 10.5529C8.84808 10.5443 8.79329 10.5393 8.73734 10.5392ZM11.8653 10.9123C11.7959 10.9124 11.7272 10.9253 11.6631 10.9504C11.599 10.9755 11.5403 11.0116 11.4913 11.0578C11.4422 11.104 11.4035 11.1595 11.377 11.2199C11.3506 11.2802 11.3368 11.3451 11.337 11.4103V11.4523C11.337 11.486 11.3406 11.5194 11.3477 11.5519C11.3966 11.7794 11.6109 11.9508 11.8672 11.9504L15.917 11.9435C16.2091 11.9431 16.4458 11.72 16.4454 11.4455V11.4015C16.4451 11.2697 16.3885 11.143 16.2891 11.05C16.1898 10.9571 16.0552 10.9052 15.9151 10.9055L11.8653 10.9123Z" fill="#35394C"/>
</g>
<defs>
<clipPath id="clip0_59_5079">
<rect width="24" height="24" fill="white"/>
</clipPath>
</defs>
</svg>
