<svg width="24" height="24" viewBox="0 0 24 24" fill="none" xmlns="http://www.w3.org/2000/svg">
<g clip-path="url(#clip0_59_5091)">
<path d="M13.0809 3.01409C13.0871 3.01377 13.0933 3.01478 13.0991 3.01704C13.105 3.0193 13.1103 3.02278 13.1148 3.02725C13.1193 3.03173 13.1229 3.03711 13.1253 3.04308C13.1277 3.04904 13.129 3.05546 13.129 3.06195C13.1275 5.57318 13.1312 7.89921 13.1402 10.04C13.1424 10.5852 13.101 11.17 13.1077 11.6754C13.1122 11.9777 13.1245 12.2532 13.3762 12.3828C13.5321 12.4629 13.6962 12.4594 13.8685 12.3723C13.8774 12.3676 13.8856 12.3617 13.8931 12.3548L14.7377 11.5073C14.7602 11.485 14.7902 11.4728 14.8212 11.4734C14.8522 11.4741 14.8817 11.4875 14.9033 11.5108L15.6427 12.3104C15.7025 12.375 15.7798 12.419 15.8642 12.4365C16.4158 12.5497 16.5332 12.1622 16.5232 11.6521C16.4963 10.3011 16.4915 8.56379 16.5086 6.44009C16.5116 6.02065 16.5015 5.4658 16.4784 4.77554C16.4635 4.33663 16.4758 3.781 16.5153 3.10864C16.5165 3.08998 16.524 3.07232 16.5364 3.05869C16.5489 3.04506 16.5655 3.03631 16.5836 3.03393C17.3234 2.94677 17.9096 3.06817 18.3422 3.39813C18.8844 3.81135 19.2442 4.33002 19.4217 4.95413C19.4904 5.19382 19.5139 5.84517 19.4922 6.90818C19.484 7.32685 19.4836 10.6264 19.4911 16.8068C19.4919 17.5072 19.4437 17.9877 19.3468 18.2484C19.028 19.0994 18.4384 19.6504 17.568 19.9095C17.3786 19.9655 17.0214 19.99 16.4963 19.983C15.8892 19.9753 13.1316 19.9733 8.22345 19.9772C7.87441 19.978 7.59176 19.983 7.37547 19.9924C6.96528 20.0103 6.6841 19.9967 6.53196 19.9515C5.58105 19.6683 4.9598 19.1072 4.66819 18.2683C4.55632 17.9461 4.50262 17.3193 4.5071 16.3878C4.52425 12.6376 4.52201 9.26145 4.50038 6.25917C4.49516 5.53856 4.54326 5.03 4.64469 4.73351C4.90722 3.96855 5.41698 3.43937 6.17397 3.14599C6.42904 3.04638 6.83327 2.99775 7.38666 3.00008C11.053 3.0172 12.9511 3.02187 13.0809 3.01409Z" fill="#35394C"/>
</g>
<defs>
<clipPath id="clip0_59_5091">
<rect width="24" height="24" fill="white"/>
</clipPath>
</defs>
</svg>
