<svg preserveAspectRatio="none" width="100%" height="100%" overflow="visible" style="display: block;" viewBox="0 0 19 19" fill="none" xmlns="http://www.w3.org/2000/svg">
<path id="Union" d="M6.78571 0C10.1095 0 12.8731 2.39015 13.4561 5.5452C16.6106 6.12851 19 8.89093 19 12.2143C19 15.9619 15.9619 19 12.2143 19C8.89093 19 6.12851 16.6106 5.5452 13.4561C2.39015 12.8731 0 10.1095 0 6.78571C0 3.03807 3.03807 0 6.78571 0ZM13.5668 6.95735C13.4771 10.5686 10.5686 13.4771 6.95735 13.5668C7.55828 15.9104 9.68322 17.6429 12.2143 17.6429C15.2124 17.6429 17.6429 15.2124 17.6429 12.2143C17.6429 9.68322 15.9104 7.55828 13.5668 6.95735ZM6.78571 1.35714C3.7876 1.35714 1.35714 3.7876 1.35714 6.78571C1.35714 9.78383 3.7876 12.2143 6.78571 12.2143C9.78383 12.2143 12.2143 9.78383 12.2143 6.78571C12.2143 3.7876 9.78383 1.35714 6.78571 1.35714Z" fill="var(--fill-0, #455871)"/>
</svg>
