<svg preserveAspectRatio="none" width="100%" height="100%" overflow="visible" style="display: block;" viewBox="0 0 24 24" fill="none" xmlns="http://www.w3.org/2000/svg">
<g id="&#228;&#186;&#164;&#230;&#152;&#147;&#230;&#184;&#133;&#229;&#141;&#149;_transaction-order 1">
<g id="Group 1321317750">
<path id="Vector" d="M12.1611 10.9371H16.2191" stroke="var(--stroke-0, #455871)" stroke-width="1.3" stroke-linecap="round" stroke-linejoin="round"/>
<path id="Vector_2" d="M12.1611 15.4062H16.2191" stroke="var(--stroke-0, #455871)" stroke-width="1.3" stroke-linecap="round" stroke-linejoin="round"/>
<path id="Subtract" d="M18.2041 3.34961C20.0358 3.34961 21.5205 4.83525 21.5205 6.66699V19.333C21.5205 21.1648 20.0358 22.6504 18.2041 22.6504H6.81738C4.98566 22.6504 3.5 21.1647 3.5 19.333V6.66699C3.5 4.83527 4.98566 3.34964 6.81738 3.34961H8.37402C8.37508 3.36289 8.37465 3.37632 8.37598 3.38965L8.50098 4.65039H6.81738C5.70363 4.65042 4.80078 5.55324 4.80078 6.66699V19.333C4.80078 20.4468 5.70363 21.3496 6.81738 21.3496H18.2041C19.3179 21.3496 20.2207 20.4468 20.2207 19.333V6.66699C20.2207 5.55322 19.3179 4.65039 18.2041 4.65039H15.2891V3.34961H18.2041Z" fill="var(--fill-0, #455871)"/>
<path id="Rectangle 279335635" d="M8.15918 3.2C8.15918 2.53726 8.69644 2 9.35918 2H13.9592C14.6219 2 15.1592 2.53726 15.1592 3.2V4.8C15.1592 5.46274 14.6219 6 13.9592 6H9.35918C8.69644 6 8.15918 5.46274 8.15918 4.8V3.2Z" stroke="var(--stroke-0, #455871)" stroke-width="1.3" stroke-linejoin="round"/>
<circle id="Ellipse 2890" cx="8.78037" cy="10.9353" r="1.12244" fill="var(--fill-0, #455871)"/>
<circle id="Ellipse 2891" cx="8.78037" cy="15.4053" r="1.12244" fill="var(--fill-0, #455871)"/>
</g>
</g>
</svg>
