<svg preserveAspectRatio="none" width="100%" height="100%" overflow="visible" style="display: block;" viewBox="0 0 36 36" fill="none" xmlns="http://www.w3.org/2000/svg">
<g id="Nut">
<path id="Vector" d="M18 14.1426C17.2697 14.1426 16.5559 14.3689 15.9487 14.7929C15.3415 15.2168 14.8682 15.8194 14.5888 16.5244C14.3093 17.2293 14.2362 18.0051 14.3786 18.7535C14.5211 19.5019 14.8728 20.1894 15.3891 20.7289C15.9055 21.2685 16.5634 21.636 17.2797 21.7848C17.9959 21.9337 18.7383 21.8573 19.413 21.5653C20.0877 21.2733 20.6643 20.7787 21.07 20.1443C21.4758 19.5098 21.6923 18.7639 21.6923 18.0008C21.6911 16.9779 21.3017 15.9974 20.6095 15.2741C19.9173 14.5508 18.9789 14.1439 18 14.1426ZM18 20.5729C17.5132 20.5729 17.0372 20.4221 16.6324 20.1394C16.2276 19.8568 15.9121 19.4551 15.7258 18.9851C15.5395 18.5151 15.4908 17.998 15.5858 17.499C15.6807 17.0001 15.9152 16.5418 16.2594 16.1821C16.6037 15.8223 17.0423 15.5774 17.5198 15.4781C17.9973 15.3789 18.4922 15.4298 18.942 15.6245C19.3918 15.8192 19.7762 16.1488 20.0467 16.5718C20.3172 16.9948 20.4615 17.4921 20.4615 18.0008C20.4615 18.683 20.2022 19.3372 19.7406 19.8196C19.2789 20.3019 18.6528 20.5729 18 20.5729ZM25.36 13.0294L18.5908 9.1592C18.4099 9.05478 18.2066 9 18 9C17.7934 9 17.5901 9.05478 17.4092 9.1592L10.64 13.031C10.4467 13.1415 10.2853 13.3043 10.1727 13.5022C10.0602 13.7002 10.0005 13.9261 10 14.1563V21.8437C10.0005 22.0739 10.0602 22.2998 10.1727 22.4978C10.2853 22.6957 10.4467 22.8585 10.64 22.969L17.4092 26.8408C17.5901 26.9452 17.7934 27 18 27C18.2066 27 18.4099 26.9452 18.5908 26.8408L25.36 22.969C25.5533 22.8585 25.7147 22.6957 25.8273 22.4978C25.9398 22.2998 25.9995 22.0739 26 21.8437V14.1571C25.9999 13.9264 25.9405 13.7001 25.8279 13.5016C25.7153 13.3032 25.5537 13.1401 25.36 13.0294ZM18 25.7171L11.2308 21.8445V14.1571L18 10.2845L24.7692 14.1563V21.8437L18 25.7171Z" fill="var(--fill-0, #455871)"/>
</g>
</svg>
