<svg preserveAspectRatio="none" width="100%" height="100%" overflow="visible" style="display: block;" viewBox="0 0 36 36" fill="none" xmlns="http://www.w3.org/2000/svg">
<g id="Nut">
<path id="Vector" d="M18 12.4283C16.9046 12.4283 15.8338 12.7551 14.923 13.3675C14.0122 13.9798 13.3023 14.8502 12.8831 15.8685C12.4639 16.8868 12.3543 18.0073 12.568 19.0884C12.7817 20.1694 13.3091 21.1624 14.0837 21.9418C14.8583 22.7212 15.8451 23.2519 16.9195 23.467C17.9939 23.682 19.1075 23.5716 20.1195 23.1498C21.1315 22.728 21.9965 22.0137 22.6051 21.0973C23.2136 20.1808 23.5385 19.1034 23.5385 18.0012C23.5366 16.5237 22.9525 15.1073 21.9143 14.0626C20.876 13.0178 19.4683 12.4301 18 12.4283ZM18 21.7164C17.2697 21.7164 16.5559 21.4985 15.9487 21.0903C15.3415 20.682 14.8682 20.1018 14.5888 19.4229C14.3093 18.7441 14.2362 17.997 14.3786 17.2764C14.5211 16.5557 14.8728 15.8937 15.3891 15.3741C15.9055 14.8545 16.5634 14.5006 17.2797 14.3573C17.9959 14.2139 18.7383 14.2875 19.413 14.5687C20.0877 14.8499 20.6643 15.3261 21.07 15.9371C21.4758 16.548 21.6923 17.2664 21.6923 18.0012C21.6923 18.9865 21.3033 19.9315 20.6109 20.6282C19.9184 21.325 18.9793 21.7164 18 21.7164ZM29.04 10.8203L18.8862 5.22996C18.6149 5.07912 18.31 5 18 5C17.69 5 17.3851 5.07912 17.1138 5.22996L6.96 10.8226C6.67003 10.9822 6.42797 11.2173 6.2591 11.5032C6.09023 11.7891 6.00075 12.1154 6 12.448V23.552C6.00075 23.8846 6.09023 24.2109 6.2591 24.4968C6.42797 24.7827 6.67003 25.0178 6.96 25.1774L17.1138 30.77C17.3851 30.9209 17.69 31 18 31C18.31 31 18.6149 30.9209 18.8862 30.77L29.04 25.1774C29.33 25.0178 29.572 24.7827 29.7409 24.4968C29.9098 24.2109 29.9992 23.8846 30 23.552V12.4492C29.9999 12.116 29.9107 11.789 29.7418 11.5024C29.5729 11.2158 29.3305 10.9802 29.04 10.8203ZM18 29.1469L7.84615 23.5532V12.4492L18 6.85538L28.1538 12.448V23.552L18 29.1469Z" fill="var(--fill-0, #455871)"/>
</g>
</svg>
